<?xml version="1.0" standalone="no"?>
<!DOCTYPE svg PUBLIC "-//W3C//DTD SVG 1.1//EN" "http://www.w3.org/Graphics/SVG/1.1/DTD/svg11.dtd" >
<svg>
<metadata>
Created by FontForge 20090914 at Mon Mar  3 13:02:21 2014
 By www-data
Copyright &#194;&#169; 2006 M. Hacen, All Rights Reserved / www.hacen.net
</metadata>
<defs>
<font id="HacenLebanon" horiz-adv-x="1025" >
  <font-face 
    font-family="Hacen Lebanon"
    font-weight="400"
    font-stretch="normal"
    units-per-em="2048"
    panose-1="2 0 0 0 0 0 0 0 0 0"
    ascent="1638"
    descent="-410"
    x-height="1039"
    cap-height="1383"
    bbox="-246 -752.998 2701 2134.08"
    underline-thickness="100"
    underline-position="-700"
    unicode-range="U+0020-U+FEFF"
  />
<missing-glyph horiz-adv-x="582" 
d="M5 1257h485v-1107h-485v1107zM76 1186v-966h343v966h-343z" />
    <glyph glyph-name="shaddawithfathatanisolated" unicode="&#x651;&#x64b;" horiz-adv-x="425" 
d="M398 1823c3.33301 -5.33301 5.16211 -9.50195 5.49512 -12.502s0.166016 -5.83301 -0.500977 -8.5s-1.16699 -5.5 -1.5 -8.5s0.833984 -7.5 3.50098 -13.5c8 -21.333 12.833 -43.333 14.5 -66s0 -43.834 -5 -63.501s-13.5 -36.5 -25.5 -50.5s-27.667 -22.667 -47 -26
c-16.667 -2.66699 -29.667 -1.66699 -39 3s-19.666 10.667 -30.999 18c-2.66699 -7.33301 -6.16699 -15.833 -10.5 -25.5s-10.333 -19.167 -18 -28.5s-16.667 -17.833 -27 -25.5s-22.833 -13.167 -37.5 -16.5c-22.667 -6 -41.334 -7.16699 -56.001 -3.5
s-26.334 10.334 -35.001 20.001s-14.5 21.334 -17.5 35.001s-4.5 27.167 -4.5 40.5c0 14 1.5 27.167 4.5 39.5s6.16699 22.166 9.5 29.499c0 -2 1.5 -1.5 4.5 1.5s6.16699 6.5 9.5 10.5s6.66602 7.5 9.99902 10.5s5 3.5 5 1.5c-3.33301 -14 -5.66602 -27.333 -6.99902 -40
s-0.666016 -23.5 2.00098 -32.5s8.33398 -15.333 17.001 -19s21.334 -3.83398 38.001 -0.500977c18.667 3.33301 32.334 11 41.001 23s14.5 25.5 17.5 40.5s4.83301 30.333 5.5 46s2.66699 28.834 6 39.501c0.666992 -2 2.16699 -1.66699 4.5 1l7.5 9
c2.66699 3.33301 5.33398 6.5 8.00098 9.5s4.66699 3.5 6 1.5c-2 -20 0.166992 -38 6.5 -54s15 -28.167 26 -36.5s23.667 -12.166 38 -11.499s28.5 7.66699 42.5 21c2.66699 6.66699 3.33398 14.334 2.00098 23.001s-4.16602 17.167 -8.49902 25.5s-9.5 16.5 -15.5 24.5
s-12 15 -18 21c3.33301 6.66699 8.16602 11.834 14.499 15.501s13 7 20 10s13.667 6.16699 20 9.5s11.5 7.66602 15.5 12.999zM400.996 1903l-340 -193l17 91l340 193zM389.996 2031l-340 -193l17 91l340 193z" />
    <glyph glyph-name="yerfinal" unicode="&#xfef4;&#xfeae;" horiz-adv-x="1637" 
d="M820 489l305.999 0.000976562l-60 221l302 206l114 -427h169v-356h-430l-30 113l-61 -113h-372c-20 -62.667 -45.333 -119.334 -76 -170.001s-65.5 -93.334 -104.5 -128.001s-81 -60.5 -126 -77.5s-91.5 -23.333 -139.5 -19s-96.667 20.333 -146 48
s-97.666 68.834 -144.999 123.501c122 26 227.5 73.667 316.5 143s161.5 158 217.5 266l-185 296l216 267zM1115 -9.99902l140 -139l140 139l188 -188l-188 -188l-140 140l-140 -140l-188 188z" />
    <glyph glyph-name="terfinal" unicode="&#xfe98;&#xfeae;" horiz-adv-x="1637" 
d="M820 489l305.999 0.000976562l-60 221l302 206l114 -427h169v-356h-430l-30 113l-61 -113h-372c-20 -62.667 -45.333 -119.334 -76 -170.001s-65.5 -93.334 -104.5 -128.001s-81 -60.5 -126 -77.5s-91.5 -23.333 -139.5 -19s-96.667 20.333 -146 48
s-97.666 68.834 -144.999 123.501c122 26 227.5 73.667 316.5 143s161.5 158 217.5 266l-185 296l216 267zM838.999 1344l140 -139l140 139l188 -188l-188 -188l-140 140l-140 -140l-188 188z" />
    <glyph glyph-name="berfinal" unicode="&#xfe92;&#xfeae;" horiz-adv-x="1637" 
d="M820 489l305.999 0.000976562l-60 221l302 206l114 -427h169v-356h-430l-30 113l-61 -113h-372c-20 -62.667 -45.333 -119.334 -76 -170.001s-65.5 -93.334 -104.5 -128.001s-81 -60.5 -126 -77.5s-91.5 -23.333 -139.5 -19s-96.667 20.333 -146 48
s-97.666 68.834 -144.999 123.501c122 26 227.5 73.667 316.5 143s161.5 158 217.5 266l-185 296l216 267zM1063 -27.999l212 -212l-212 -211l-211 211z" />
    <glyph glyph-name="infinal" unicode="&#xfef4;&#xfee6;" horiz-adv-x="1992" 
d="M487 -264c-95.333 0 -174.33 16.165 -236.997 48.498s-111.334 74.833 -146.001 127.5s-56.5 112.834 -65.5 180.501s-7.33301 137.167 5 208.5s34.333 141.166 66 209.499s70.834 129.833 117.501 184.5l101 14c-26 -74.667 -40.333 -145.834 -43 -213.501
s4.16602 -128 20.499 -181s41.5 -96.667 75.5 -131s75.167 -55.166 123.5 -62.499s103.166 0.833984 164.499 24.501s127 66.834 197 129.501l-129 416l264 230c40 -68.667 71.667 -139.667 95 -213s38.333 -146.333 45 -219h342l-60 221l302 206l114 -427h169v-356h-430
l-30 113l-61 -113h-388c-21.333 -57.333 -49.833 -110.333 -85.5 -159s-78.834 -90.667 -129.501 -126s-109 -62.833 -175 -82.5s-140 -29.5 -222 -29.5zM1392 -10.002l140 -139l140 139l188 -188l-188 -188l-140 140l-140 -140l-188 188zM557.003 1236l212 -212l-212 -211
l-211 211z" />
    <glyph glyph-name="benfinal" unicode="&#xfe92;&#xfee6;" horiz-adv-x="1992" 
d="M487 -264c-95.333 0 -174.33 16.165 -236.997 48.498s-111.334 74.833 -146.001 127.5s-56.5 112.834 -65.5 180.501s-7.33301 137.167 5 208.5s34.333 141.166 66 209.499s70.834 129.833 117.501 184.5l101 14c-26 -74.667 -40.333 -145.834 -43 -213.501
s4.16602 -128 20.499 -181s41.5 -96.667 75.5 -131s75.167 -55.166 123.5 -62.499s103.166 0.833984 164.499 24.501s127 66.834 197 129.501l-129 416l264 230c40 -68.667 71.667 -139.667 95 -213s38.333 -146.333 45 -219h342l-60 221l302 206l114 -427h169v-356h-430
l-30 113l-61 -113h-388c-21.333 -57.333 -49.833 -110.333 -85.5 -159s-78.834 -90.667 -129.501 -126s-109 -62.833 -175 -82.5s-140 -29.5 -222 -29.5zM557.003 1236l212 -212l-212 -211l-211 211zM1476 -28.002l212 -212l-212 -211l-211 211z" />
    <glyph glyph-name="shaddawithdammatanisolated" unicode="&#x651;&#x64c;" horiz-adv-x="484" arabic-form="isolated" 
d="M396 1846c8.66699 -10 16.1689 -20.9971 22.502 -32.9971s12.166 -24 17.499 -36c7.33301 -21.333 11.666 -43.333 12.999 -66s-0.666992 -43.834 -6 -63.501s-14.166 -36.334 -26.499 -50.001s-28.166 -21.834 -47.499 -24.501c-16.667 -2.66699 -29.5 -1.66699 -38.5 3
s-19.167 11 -30.5 19c-2.66699 -7.33301 -6.33398 -15.666 -11.001 -24.999s-10.834 -18.666 -18.501 -27.999s-16.834 -17.833 -27.501 -25.5s-23.334 -13.167 -38.001 -16.5c-22.667 -5.33301 -41.5 -4.83301 -56.5 1.5s-27 16.166 -36 29.499s-15.333 29.166 -19 47.499
s-5.66699 36.333 -6 54s0.833984 33.834 3.50098 48.501s5.66699 25.667 9 33c0 -2 1.66699 -1.5 5 1.5s6.83301 6.5 10.5 10.5s7 7.33301 10 10s4.5 3 4.5 1c-3.33301 -14 -5.5 -29.833 -6.5 -47.5s0.333008 -34.167 4 -49.5s10.167 -27.833 19.5 -37.5
s22.666 -12.834 39.999 -9.50098c18.667 3.33301 32.334 11 41.001 23s14.667 25.5 18 40.5s5.5 30.167 6.5 45.5s3.16699 28.333 6.5 39c0.666992 -2 2.16699 -1.66699 4.5 1l8 9c3 3.33301 5.66699 6.5 8 9.5s4.16602 3.5 5.49902 1.5c-2 -20 0 -38 6 -54
s14.5 -28.333 25.5 -37s23.667 -12.834 38 -12.501s28.833 7.16602 43.5 20.499c2.66699 6.66699 3.33398 14.334 2.00098 23.001s-4.16602 17.334 -8.49902 26.001s-9.33301 17 -15 25s-11.5 15 -17.5 21c7.33301 13.333 13.833 25.833 19.5 37.5zM425.002 1928
c-4.66699 -8 -11.667 -17.5 -21 -28.5s-20.333 -22.333 -33 -34s-26.667 -22.667 -42 -33s-31.333 -19 -48 -26s-33.334 -11.333 -50.001 -13s-32.667 0.5 -48 6.5c-15.333 6.66699 -23.666 15.667 -24.999 27s-0.333008 23.333 3 36s7 24.667 11 36
s3.33301 20.166 -2 26.499s-17.5 9.33301 -36.5 9s-49.167 -6.16602 -90.5 -17.499c13.333 15.333 28.833 27.833 46.5 37.5s35.334 15.834 53.001 18.501s34.167 2.16699 49.5 -1.5s27.166 -10.5 35.499 -20.5s11.833 -23.5 10.5 -40.5s-9.33301 -37.5 -24 -61.5
c32 11.333 61.833 24 89.5 38s52.834 31.667 75.501 53c-28.667 6 -49.667 15 -63 27s-21.166 25.333 -23.499 40s0.333984 29.667 8.00098 45s18.167 29.166 31.5 41.499s28.666 22.333 45.999 30s34.666 11.167 51.999 10.5c14.667 -1.33301 24.5 -8.33301 29.5 -21
s7.33301 -27 7 -43s-2.33301 -31.5 -6 -46.5s-6.83398 -25.5 -9.50098 -31.5l40 -10l-18 -65zM403.002 2065c-3.33301 3.33301 -7.33496 5.49902 -12.002 6.49902s-8.66699 1.5 -12 1.5c-9.33301 0.666992 -17.166 -1.66602 -23.499 -7
c-6.33301 -5.33301 -9.5 -11.333 -9.5 -18c-1.33301 -6.66699 -0.166016 -12.167 3.50098 -16.5s8.5 -8.16602 14.5 -11.499s13.167 -6.5 21.5 -9.5l25.5 -9.5c1.33301 11.333 2 21.333 2 30c0 7.33301 -0.666992 14.5 -2 21.5s-4 11.833 -8 14.5v-2z" />
    <glyph glyph-name="shaddawithkasratanisolated" unicode="&#x651;&#x64d;" horiz-adv-x="425" arabic-form="isolated" 
d="M370 2050c8 -10 15.167 -21.1719 21.5 -33.5049s11.833 -24.5 16.5 -36.5c6.66699 -21.333 10.334 -43.333 11.001 -66s-1.83301 -43.667 -7.5 -63s-14.834 -35.666 -27.501 -48.999s-28.667 -21.333 -48 -24c-16.667 -2 -29.5 -0.666992 -38.5 4
s-19.167 11.334 -30.5 20.001c-2.66699 -7.33301 -6.5 -15.666 -11.5 -24.999s-11.333 -18.5 -19 -27.5s-17 -17.167 -28 -24.5s-23.833 -12.666 -38.5 -15.999c-22.667 -4.66699 -41.5 -3.66699 -56.5 3s-26.667 17 -35 31s-14.166 30 -17.499 48
s-4.83301 35.833 -4.5 53.5s1.83301 34 4.5 49s6 25.833 10 32.5c0 -2 1.5 -1.5 4.5 1.5l10.5 10.5c4 4 7.5 7.33301 10.5 10s4.5 3 4.5 1c-4 -14 -6.66699 -30 -8 -48s-0.333008 -34.667 3 -50s9.5 -27.833 18.5 -37.5s22.167 -13.167 39.5 -10.5
c19.333 2.66699 33.5 9.66699 42.5 21s15.333 24.5 19 39.5s6 30.333 7 46s3.5 28.834 7.5 39.501c0.666992 -2 2.33398 -1.83301 5.00098 0.5s5.5 5.33301 8.5 9l8 9.5c2.33301 2.66699 4.16602 3 5.49902 1c-2.66699 -19.333 -1.33398 -37.166 3.99902 -53.499
s13.333 -29 24 -38s23 -13.5 37 -13.5c14.667 0 29.667 6.66699 45 20c3.33301 6.66699 4.33301 14.167 3 22.5s-4 16.833 -8 25.5s-8.83301 17.167 -14.5 25.5s-11.167 15.5 -16.5 21.5l20 37c6 11.333 12.333 22.666 19 33.999zM391 1684l-350 -141l33 75l350 141z
M381 1579l-350 -141l33 75l350 141z" />
    <glyph glyph-name="shaddawithfathaisolated" unicode="&#x651;&#x64e;" horiz-adv-x="425" arabic-form="isolated" 
d="M398 1823c3.33301 -5.33301 5.16211 -9.50195 5.49512 -12.502s0.166016 -5.83301 -0.500977 -8.5s-1.16699 -5.5 -1.5 -8.5s0.833984 -7.5 3.50098 -13.5c8 -21.333 12.833 -43.333 14.5 -66s0 -43.834 -5 -63.501s-13.5 -36.5 -25.5 -50.5s-27.667 -22.667 -47 -26
c-16.667 -2.66699 -29.667 -1.66699 -39 3s-19.666 10.667 -30.999 18c-2.66699 -7.33301 -6.16699 -15.833 -10.5 -25.5s-10.333 -19.167 -18 -28.5s-16.667 -17.833 -27 -25.5s-22.833 -13.167 -37.5 -16.5c-22.667 -6 -41.334 -7.16699 -56.001 -3.5
s-26.334 10.334 -35.001 20.001s-14.5 21.334 -17.5 35.001s-4.5 27.167 -4.5 40.5c0 14 1.5 27.167 4.5 39.5s6.16699 22.166 9.5 29.499c0 -2 1.5 -1.5 4.5 1.5s6.16699 6.5 9.5 10.5s6.66602 7.5 9.99902 10.5s5 3.5 5 1.5c-3.33301 -14 -5.66602 -27.333 -6.99902 -40
s-0.666016 -23.5 2.00098 -32.5s8.33398 -15.333 17.001 -19s21.334 -3.83398 38.001 -0.500977c18.667 3.33301 32.334 11 41.001 23s14.5 25.5 17.5 40.5s4.83301 30.333 5.5 46s2.66699 28.834 6 39.501c0.666992 -2 2.16699 -1.66699 4.5 1l7.5 9
c2.66699 3.33301 5.33398 6.5 8.00098 9.5s4.66699 3.5 6 1.5c-2 -20 0.166992 -38 6.5 -54s15 -28.167 26 -36.5s23.667 -12.166 38 -11.499s28.5 7.66699 42.5 21c2.66699 6.66699 3.33398 14.334 2.00098 23.001s-4.16602 17.167 -8.49902 25.5s-9.5 16.5 -15.5 24.5
s-12 15 -18 21c3.33301 6.66699 8.16602 11.834 14.499 15.501s13 7 20 10s13.667 6.16699 20 9.5s11.5 7.66602 15.5 12.999zM400.996 1903l-340 -193l17 91l340 193z" />
    <glyph glyph-name="shaddawithdammaisolated" unicode="&#x651;&#x64f;" horiz-adv-x="437" arabic-form="isolated" 
d="M372 1846c8.66699 -10 16.1689 -20.9971 22.502 -32.9971s12.166 -24 17.499 -36c7.33301 -21.333 11.666 -43.333 12.999 -66s-0.666992 -43.834 -6 -63.501s-14.166 -36.334 -26.499 -50.001s-28.166 -21.834 -47.499 -24.501c-16.667 -2.66699 -29.5 -1.66699 -38.5 3
s-19.167 11 -30.5 19c-2.66699 -7.33301 -6.33398 -15.666 -11.001 -24.999s-10.834 -18.666 -18.501 -27.999s-16.834 -17.833 -27.501 -25.5s-23.334 -13.167 -38.001 -16.5c-22.667 -5.33301 -41.5 -4.83301 -56.5 1.5s-27 16.166 -36 29.499s-15.333 29.166 -19 47.499
s-5.66699 36.333 -6 54s0.833984 33.834 3.50098 48.501s5.66699 25.667 9 33c0 -2 1.66699 -1.5 5 1.5s6.83301 6.5 10.5 10.5s7 7.33301 10 10s4.5 3 4.5 1c-3.33301 -14 -5.5 -29.833 -6.5 -47.5s0.333008 -34.167 4 -49.5s10.167 -27.833 19.5 -37.5
s22.666 -12.834 39.999 -9.50098c18.667 3.33301 32.334 11 41.001 23s14.667 25.5 18 40.5s5.5 30.167 6.5 45.5s3.16699 28.333 6.5 39c0.666992 -2 2.16699 -1.66699 4.5 1l8 9c3 3.33301 5.66699 6.5 8 9.5s4.16602 3.5 5.49902 1.5c-2 -20 0 -38 6 -54
s14.5 -28.333 25.5 -37s23.667 -12.834 38 -12.501s28.833 7.16602 43.5 20.499c2.66699 6.66699 3.33398 14.334 2.00098 23.001s-4.16602 17.334 -8.49902 26.001s-9.33301 17 -15 25s-11.5 15 -17.5 21c7.33301 13.333 13.833 25.833 19.5 37.5zM347.002 1915
c-7.33301 -12 -19.668 -25.6641 -37.001 -40.9971s-37.833 -29.833 -61.5 -43.5s-49.167 -25 -76.5 -34s-55 -12.833 -83 -11.5c-38 2.66699 -63 4 -75 4c-11.333 0 -15.333 0.666992 -12 2l103 34c28.667 9.33301 54.334 18.666 77.001 27.999s43.167 19.666 61.5 30.999
s36.5 25.666 54.5 42.999c-30.667 5.33301 -53.167 14.166 -67.5 26.499s-22.666 25.833 -24.999 40.5s0.5 29.667 8.5 45s19 29.333 33 42s30.167 22.834 48.5 30.5c18.333 7.66699 36.833 11.167 55.5 10.5c15.333 -0.666992 25.666 -7.33398 30.999 -20
c5.33301 -12.667 7.83301 -27.167 7.5 -43.5s-2.5 -32.166 -6.5 -47.499s-7.33301 -26.333 -10 -33l43 -10l-19 -63zM322 2054.01c-3.33301 3.33301 -7.16895 5.49805 -11.502 6.49805s-8.16602 1.5 -11.499 1.5c-11.333 0.666992 -20.166 -1.66602 -26.499 -7
c-6.33301 -5.33301 -9.83301 -11.666 -10.5 -18.999c-1.33301 -13.333 5 -23.166 19 -29.499s30.667 -12.166 50 -17.499c1.33301 10.667 2 20.667 2 30c0 7.33301 -0.666992 14.666 -2 21.999s-4.33301 12 -9 14v-1z" />
    <glyph glyph-name="shaddawithkasraisolated" unicode="&#x651;&#x650;" horiz-adv-x="425" arabic-form="isolated" 
d="M385 1972c8 -10 15.167 -21.1729 21.5 -33.5059s11.833 -24.5 16.5 -36.5c6.66699 -21.333 10.334 -43.333 11.001 -66s-1.83301 -43.667 -7.5 -63s-14.834 -35.666 -27.501 -48.999s-28.667 -21.333 -48 -24c-16.667 -2 -29.5 -0.666992 -38.5 4
s-19.167 11.334 -30.5 20.001c-2.66699 -7.33301 -6.5 -15.666 -11.5 -24.999s-11.333 -18.5 -19 -27.5s-17 -17.167 -28 -24.5s-23.833 -12.666 -38.5 -15.999c-22.667 -4.66699 -41.5 -3.66699 -56.5 3s-26.667 17 -35 31s-14.166 30 -17.499 48
s-4.83301 35.833 -4.5 53.5s1.83301 33.834 4.5 48.501s6 25.667 10 33c0 -2 1.5 -1.5 4.5 1.5l10.5 10.5c4 4 7.5 7.33301 10.5 10s4.5 3 4.5 1c-4 -14 -6.66699 -30 -8 -48s-0.333008 -34.667 3 -50s9.5 -27.833 18.5 -37.5s22.167 -13.167 39.5 -10.5
c19.333 2.66699 33.5 9.66699 42.5 21s15.333 24.5 19 39.5s6 30.333 7 46s3.5 28.834 7.5 39.501c0.666992 -2 2.33398 -1.83301 5.00098 0.5s5.5 5.33301 8.5 9l8 9.5c2.33301 2.66699 4.16602 3 5.49902 1c-2.66699 -19.333 -1.33398 -37.166 3.99902 -53.499
s13.333 -29 24 -38s23 -13.5 37 -13.5c14.667 0 29.667 6.66699 45 20c3.33301 6.66699 4.33301 14.167 3 22.5s-4 16.833 -8 25.5s-8.83301 17.167 -14.5 25.5s-11.167 15.5 -16.5 21.5l20 37c6 11.333 12.333 22.666 19 33.999zM422 1589.99l-340 -193l17 91l340 193z" />
    <glyph glyph-name="fehwithyehisolated" unicode="&#xfed3;&#xfef2;" horiz-adv-x="1865" arabic-form="medial" 
d="M1094 489c-10.667 33.333 -13.5039 70.168 -8.50391 110.501s15.833 80.833 32.5 121.5s38.5 79.5 65.5 116.5s57.333 68.5 91 94.5s69.5 45 107.5 57s76.667 13 116 3c46 -11.333 86.667 -31.666 122 -60.999s65.333 -65.333 90 -108s44.334 -90.667 59.001 -144
s24.667 -110 30 -170s6.16602 -121.833 2.49902 -185.5s-11.5 -127.167 -23.5 -190.5h-696c-13.333 -64 -36.666 -120.5 -69.999 -169.5s-73.166 -90.667 -119.499 -125s-97.5 -61.166 -153.5 -80.499s-113 -31.166 -171 -35.499s-115.167 -1.33301 -171.5 9
s-108.166 28.166 -155.499 53.499s-88.333 58.166 -123 98.499s-59.5 88.166 -74.5 143.499s-18 118 -9 188s33.5 147.667 73.5 233l302 140c-29.333 -50.667 -51.166 -102.334 -65.499 -155.001s-20.333 -102.167 -18 -148.5s13.333 -87.5 33 -123.5s49 -62.333 88 -79
s88 -22 147 -16s128.833 28 209.5 66c-28 25.333 -59.833 45.833 -95.5 61.5s-69.5 27.5 -101.5 35.5l115 260h372zM370.996 -376.998l140 -139l140 139l188 -188l-188 -188l-140 140l-140 -140l-188 188zM1426 1540l212 -212l-212 -211l-211 211zM1549 484.002
c0.666992 9.33301 0.00488281 20.667 -1.99512 34s-5.33301 26.833 -10 40.5s-10.334 26.667 -17.001 39s-14 22.5 -22 30.5c-26.667 26.667 -49.5 44.667 -68.5 54s-34.333 12.333 -46 9s-19.834 -11.333 -24.501 -24s-5.83398 -27.334 -3.50098 -44.001
s8.16602 -34.167 17.499 -52.5s22.166 -34.666 38.499 -48.999s36 -25.333 59 -33s49.167 -9.16699 78.5 -4.5z" />
    <glyph glyph-name="laisolated" unicode="&#xfedf;&#xfef0;" horiz-adv-x="1637" arabic-form="medial" 
d="M1194 489l-0.00390625 611.002l357 209v-820l-76 -356h-393c-13.333 -64 -36.666 -120.5 -69.999 -169.5s-73.166 -90.667 -119.499 -125s-97.5 -61.166 -153.5 -80.499s-113 -31.166 -171 -35.499s-115.167 -1.33301 -171.5 9s-108.166 28.166 -155.499 53.499
s-88.333 58.166 -123 98.499s-59.5 88.166 -74.5 143.499s-18 118 -9 188s33.5 147.667 73.5 233l302 140c-29.333 -50.667 -51.166 -102.334 -65.499 -155.001s-20.333 -102.167 -18 -148.5s13.333 -87.5 33 -123.5s49 -62.333 88 -79s88 -22 147 -16s128.833 28 209.5 66
c-28 25.333 -59.833 45.833 -95.5 61.5s-69.5 27.5 -101.5 35.5l115 260h472z" />
    <glyph glyph-name="leminitial" unicode="&#xfedf;&#xfee4;" horiz-adv-x="912" arabic-form="medial" 
d="M202 1100l357 209l-5 -844l281 -97l-116 -337l-295 102h-439v356h217v611z" />
    <glyph glyph-name="allahisolated" unicode="&#xfedf;&#xfee0;&#xfeea;" horiz-adv-x="1958" arabic-form="isolated" 
d="M1522 1100l356.001 208.998v-820l-75 -356h-656l12 185l-126 -185h-447l-57 164l-85 -236l-404 208c8.66699 64 19 123.667 31 179s30.667 105.333 56 150s60.166 83.834 104.499 117.501s102.833 60.834 175.5 81.501l170 115l146 -423h231v457l357 208v-665h211v611z
M1382 1547c4 -36.667 3.16504 -72.5 -2.50195 -107.5s-14.667 -67.167 -27 -96.5s-27.333 -54.833 -45 -76.5s-36.5 -37 -56.5 -46s-40.667 -10.667 -62 -5s-41.333 20.834 -60 45.501c-16 -49.333 -35.5 -86.5 -58.5 -111.5s-46.167 -40 -69.5 -45
s-45.166 -1.33301 -65.499 11s-35.666 31.166 -45.999 56.499s-13.833 55.666 -10.5 90.999s17 73.666 41 114.999c16 -46.667 30.5 -77 43.5 -91s27 -17.833 42 -11.5s31.667 19.5 50 39.5s40.5 40.333 66.5 61c6 4.66699 14.833 6.83398 26.5 6.50098
s24.334 -1.16602 38.001 -2.49902s27.667 -2.33301 42 -3s27.166 1.33301 38.499 6c12 4.66699 21.333 13.334 28 26.001s12 26.334 16 41.001s7 29.167 9 43.5s4.66699 25.5 8 33.5c2.66699 -4.66699 7 -4.83398 13 -0.500977s12 9.16602 18 14.499s11.333 9.5 16 12.5
s7 0.833008 7 -6.5zM1180 1600c0 -2 -1.16699 -7.83301 -3.5 -17.5s-5.33301 -21.334 -9 -35.001l-12 -43.5l-12.5 -44c2.66699 20.667 -0.333008 42 -9 64s-20 43.333 -34 64s-29 39.834 -45 57.501l-40 44.5l34 154c20 -19.333 38 -37.666 54 -54.999
s29.833 -35.333 41.5 -54s20.5 -38.834 26.5 -60.501s9 -46.5 9 -74.5zM485.999 445.998l-45 140l-104 -62z" />
    <glyph glyph-name="lamwithalefmaddaaboveisolatedd" unicode="&#xfedf;&#xfe82;" horiz-adv-x="1109" arabic-form="isolated" 
d="M0 1314c-0.666992 76.667 19.5 143 60.5 199s117.667 58.5 230 7.5s198.5 -32.833 258.5 54.5c-28.667 -198.667 -111 -267 -247 -205s-236.667 43.333 -302 -56zM127 318c29.333 11.333 59.501 23.8359 90.501 37.5029s63.667 29 98 46s70.833 36.333 109.5 58
s80 46.5 124 74.5c-36.667 44 -69 77.167 -97 99.5s-52.5 37.333 -73.5 45s-38.833 10 -53.5 7s-26.834 -7.66699 -36.501 -14s-17.167 -12.333 -22.5 -18s-9 -7.16699 -11 -4.5l-280 285l205 369c102.667 -84.667 198.167 -175 286.5 -271s171.833 -197.667 250.5 -305
c13.333 44.667 21 96.834 23 156.501s-5.66699 131.834 -23 216.501l357 209c-0.666992 -71.333 -1.33398 -136.333 -2.00098 -195s-2.33398 -112.167 -5.00098 -160.5s-7.33398 -91.833 -14.001 -130.5s-16.334 -73.834 -29.001 -105.501s-29.167 -60.334 -49.5 -86.001
s-45.5 -49.834 -75.5 -72.501c30.667 -44 53.834 -91.5 69.501 -142.5s26.334 -102.833 32.001 -155.5s7.33398 -104.834 5.00098 -156.501s-6.16602 -99.834 -11.499 -144.501l-867 1v357zM552.001 318.003h176l-49 72z" />
    <glyph glyph-name="lamwithalefmaddaabovefinal" unicode="&#xfee0;&#xfe82;" horiz-adv-x="1239" arabic-form="final" 
d="M0 1314c-0.666992 76.667 19.5 143 60.5 199s117.667 58.5 230 7.5s198.5 -32.833 258.5 54.5c-28.667 -198.667 -111 -267 -247 -205s-236.667 43.333 -302 -56zM479 429c-26 49.333 -53.499 98.166 -82.499 146.499s-61.167 95.333 -96.5 141
s-74.666 89.334 -117.999 131.001s-92.333 80.5 -147 116.5l196 345c49.333 -22.667 94.666 -50.5 135.999 -83.5s78.666 -69.5 111.999 -109.5s63 -82.5 89 -127.5s48.833 -90.5 68.5 -136.5s36.167 -91.333 49.5 -136s24.333 -87 33 -127v511l356 209v-820h183v-356h-539
v122c-44 -56 -90.5 -96.333 -139.5 -121s-100 -38 -153 -40s-107.667 5.66699 -164 23s-113.5 40.333 -171.5 69z" />
    <glyph glyph-name="lamwithalefhamzaaboveisolatedd" unicode="&#xfedf;&#xfe84;" horiz-adv-x="1109" arabic-form="isolated" 
d="M127 318c29.333 11.333 59.501 23.8359 90.501 37.5029s63.667 29 98 46s70.833 36.333 109.5 58s80 46.5 124 74.5c-36.667 44 -69 77.167 -97 99.5s-52.5 37.333 -73.5 45s-38.833 10 -53.5 7s-26.834 -7.66699 -36.501 -14s-17.167 -12.333 -22.5 -18
s-9 -7.16699 -11 -4.5l-280 285l205 369c102.667 -84.667 198.167 -175 286.5 -271s171.833 -197.667 250.5 -305c13.333 44.667 21 96.834 23 156.501s-5.66699 131.834 -23 216.501l357 209c-0.666992 -71.333 -1.33398 -136.333 -2.00098 -195
s-2.33398 -112.167 -5.00098 -160.5s-7.33398 -91.833 -14.001 -130.5s-16.334 -73.834 -29.001 -105.501s-29.167 -60.334 -49.5 -86.001s-45.5 -49.834 -75.5 -72.501c30.667 -44 53.834 -91.5 69.501 -142.5s26.334 -102.833 32.001 -155.5
s7.33398 -104.834 5.00098 -156.501s-6.16602 -99.834 -11.499 -144.501l-867 1v357zM552.001 318.003h176l-49 72zM103.001 1459c-20 24 -32.332 49.835 -36.999 77.502s-4 53.667 2 78s16.333 45.666 31 63.999s31.667 30.5 51 36.5s40.166 4.16699 62.499 -5.5
s43.833 -30.167 64.5 -61.5c-40 -8.66699 -68.667 -17.834 -86 -27.501s-27 -19 -29 -28s2.33301 -17.167 13 -24.5s24.667 -13 42 -17l118 32v-167l-244 -65l-31 82z" />
    <glyph glyph-name="lamwithalefhamzaabovefinal" unicode="&#xfee0;&#xfe84;" horiz-adv-x="1239" arabic-form="final" 
d="M103 1459c-20 24 -32.332 49.835 -36.999 77.502s-4 53.667 2 78s16.333 45.666 31 63.999s31.667 30.5 51 36.5s40.166 4.16699 62.499 -5.5s43.833 -30.167 64.5 -61.5c-40 -8.66699 -68.667 -17.834 -86 -27.501s-27 -19 -29 -28s2.33301 -17.167 13 -24.5
s24.667 -13 42 -17l118 32v-167l-244 -65l-31 82zM479.001 429.002c-26 49.333 -53.499 98.166 -82.499 146.499s-61.167 95.333 -96.5 141s-74.666 89.334 -117.999 131.001s-92.333 80.5 -147 116.5l196 345c49.333 -22.667 94.666 -50.5 135.999 -83.5
s78.666 -69.5 111.999 -109.5s63 -82.5 89 -127.5s48.833 -90.5 68.5 -136.5s36.167 -91.333 49.5 -136s24.333 -87 33 -127v511l356 209v-820h183v-356h-539v122c-44 -56 -90.5 -96.333 -139.5 -121s-100 -38 -153 -40s-107.667 5.66699 -164 23s-113.5 40.333 -171.5 69z
" />
    <glyph glyph-name="lamwithalefhamzabelowisolated" unicode="&#xfedf;&#xfe88;" horiz-adv-x="1109" arabic-form="isolated" 
d="M93 -382c-20 24 -32.332 49.835 -36.999 77.502s-4 53.667 2 78s16.333 45.666 31 63.999s31.667 30.5 51 36.5s40.166 4.16699 62.499 -5.5s43.833 -30.167 64.5 -61.5c-40 -8.66699 -68.667 -17.834 -86 -27.501s-27 -19 -29 -28s2.33301 -17.167 13 -24.5
s24.667 -13 42 -17l118 32v-167l-244 -65l-31 82zM127.001 318.002c29.333 11.333 59.501 23.8359 90.501 37.5029s63.667 29 98 46s70.833 36.333 109.5 58s80 46.5 124 74.5c-36.667 44 -69 77.167 -97 99.5s-52.5 37.333 -73.5 45s-38.833 10 -53.5 7
s-26.834 -7.66699 -36.501 -14s-17.167 -12.333 -22.5 -18s-9 -7.16699 -11 -4.5l-280 285l205 369c102.667 -84.667 198.167 -175 286.5 -271s171.833 -197.667 250.5 -305c13.333 44.667 21 96.834 23 156.501s-5.66699 131.834 -23 216.501l357 209
c-0.666992 -71.333 -1.33398 -136.333 -2.00098 -195s-2.33398 -112.167 -5.00098 -160.5s-7.33398 -91.833 -14.001 -130.5s-16.334 -73.834 -29.001 -105.501s-29.167 -60.334 -49.5 -86.001s-45.5 -49.834 -75.5 -72.501c30.667 -44 53.834 -91.5 69.501 -142.5
s26.334 -102.833 32.001 -155.5s7.33398 -104.834 5.00098 -156.501s-6.16602 -99.834 -11.499 -144.501l-867 1v357zM552.002 318.005h176l-49 72z" />
    <glyph glyph-name="lamwithalefhamzabelowfinal" unicode="&#xfee0;&#xfe88;" horiz-adv-x="1239" arabic-form="final" 
d="M83 -189c-20 24 -32.332 49.835 -36.999 77.502s-4 53.667 2 78s16.333 45.666 31 63.999s31.667 30.5 51 36.5s40.166 4.16699 62.499 -5.5s43.833 -30.167 64.5 -61.5c-40 -8.66699 -68.667 -17.834 -86 -27.501s-27 -19 -29 -28s2.33301 -17.167 13 -24.5
s24.667 -13 42 -17l118 32v-167l-244 -65l-31 82zM479.001 429.002c-26 49.333 -53.499 98.166 -82.499 146.499s-61.167 95.333 -96.5 141s-74.666 89.334 -117.999 131.001s-92.333 80.5 -147 116.5l196 345c49.333 -22.667 94.666 -50.5 135.999 -83.5
s78.666 -69.5 111.999 -109.5s63 -82.5 89 -127.5s48.833 -90.5 68.5 -136.5s36.167 -91.333 49.5 -136s24.333 -87 33 -127v511l356 209v-820h183v-356h-539v122c-44 -56 -90.5 -96.333 -139.5 -121s-100 -38 -153 -40s-107.667 5.66699 -164 23s-113.5 40.333 -171.5 69z
" />
    <glyph glyph-name="lamwithalefisolated" unicode="&#xfedf;&#xfe8e;" horiz-adv-x="1109" arabic-form="isolated" 
d="M127 318c29.333 11.333 59.501 23.8359 90.501 37.5029s63.667 29 98 46s70.833 36.333 109.5 58s80 46.5 124 74.5c-36.667 44 -69 77.167 -97 99.5s-52.5 37.333 -73.5 45s-38.833 10 -53.5 7s-26.834 -7.66699 -36.501 -14s-17.167 -12.333 -22.5 -18
s-9 -7.16699 -11 -4.5l-280 285l205 369c102.667 -84.667 198.167 -175 286.5 -271s171.833 -197.667 250.5 -305c13.333 44.667 21 96.834 23 156.501s-5.66699 131.834 -23 216.501l357 209c-0.666992 -71.333 -1.33398 -136.333 -2.00098 -195
s-2.33398 -112.167 -5.00098 -160.5s-7.33398 -91.833 -14.001 -130.5s-16.334 -73.834 -29.001 -105.501s-29.167 -60.334 -49.5 -86.001s-45.5 -49.834 -75.5 -72.501c30.667 -44 53.834 -91.5 69.501 -142.5s26.334 -102.833 32.001 -155.5
s7.33398 -104.834 5.00098 -156.501s-6.16602 -99.834 -11.499 -144.501l-867 1v357zM552.001 318.003h176l-49 72z" />
    <glyph glyph-name="lamwithaleffinal" unicode="&#xfee0;&#xfe8e;" horiz-adv-x="1239" arabic-form="final" 
d="M479 429c-26 49.333 -53.499 98.166 -82.499 146.499s-61.167 95.333 -96.5 141s-74.666 89.334 -117.999 131.001s-92.333 80.5 -147 116.5l196 345c49.333 -22.667 94.666 -50.5 135.999 -83.5s78.666 -69.5 111.999 -109.5s63 -82.5 89 -127.5
s48.833 -90.5 68.5 -136.5s36.167 -91.333 49.5 -136s24.333 -87 33 -127v511l356 209v-820h183v-356h-539v122c-44 -56 -90.5 -96.333 -139.5 -121s-100 -38 -153 -40s-107.667 5.66699 -164 23s-113.5 40.333 -171.5 69z" />
    <glyph glyph-name="fathatanisolated" unicode="&#xfe70;" horiz-adv-x="408" arabic-form="isolated" 
d="M389 1675l-340 -193l17 91l340 193zM403 1842l-340 -193l17 91l340 193z" />
    <glyph glyph-name="fathatanabove" unicode="&#xfe71;" horiz-adv-x="408" arabic-form="medial" 
d="M391 1222l-340 -193l17 91l340 193zM405 1389l-340 -193l17 91l340 193z" />
    <glyph glyph-name="dammatanisolated" unicode="&#xfe72;" horiz-adv-x="469" arabic-form="isolated" 
d="M409 1632c-4 -9.33301 -10.5 -20.499 -19.5 -33.499s-19.667 -26.333 -32 -40s-25.833 -26.834 -40.5 -39.501s-29.834 -23 -45.501 -31s-31.5 -13 -47.5 -15s-31.333 0.666992 -46 8s-22.667 17.833 -24 31.5s-0.333008 27.667 3 42s6.83301 28.333 10.5 42
s3 24.334 -2 32.001s-16.5 11.167 -34.5 10.5s-46.667 -7.33398 -86 -20.001c12.667 18 27.5 32.5 44.5 43.5s33.833 18.333 50.5 22s32.334 3.33398 47.001 -0.999023s26 -12.5 34 -24.5s11.5 -28 10.5 -48s-8.83301 -44 -23.5 -72c30.667 13.333 59.167 28 85.5 44
s50.166 36.667 71.499 62c-27.333 6.66699 -47.5 17.167 -60.5 31.5s-20.333 30.166 -22 47.499s1 35 8 53s17 34.5 30 49.5s27.667 27 44 36s32.833 13.167 49.5 12.5c14 -1.33301 23.333 -9.5 28 -24.5s6.83398 -32 6.50098 -51s-2.33301 -37.5 -6 -55.5
s-6.5 -30.333 -8.5 -37l38 -12l-17 -76zM388 1793c-6.66699 6.66699 -14.333 9.99805 -23 9.99805c-9.33301 0.666992 -16.833 -2.16602 -22.5 -8.49902s-8.5 -13.5 -8.5 -21.5c-1.33301 -7.33301 -0.333008 -13.666 3 -18.999s8 -10 14 -14s12.833 -7.83301 20.5 -11.5
l24.5 -11.5c1.33301 12.667 2 24.334 2 35.001c0 9.33301 -0.833008 18.166 -2.5 26.499s-4.16699 13.833 -7.5 16.5v-2z" />
    <glyph glyph-name="kasratanisolated" unicode="&#xfe74;" horiz-adv-x="408" arabic-form="isolated" 
d="M384 -83l-191.5 -102.498l-191.5 -102.5c3.33301 15.333 6 28.166 8 38.499s4.33301 23.166 7 38.499l191.5 101.5l191.5 102.5zM416 107.002l-191.5 -102.499l-191.5 -102.5l8.5 39.5c2.33301 10.333 4.83301 23.166 7.5 38.499l191 101l191 102z" />
    <glyph glyph-name="fathaisolated" unicode="&#xfe76;" horiz-adv-x="408" arabic-form="isolated" 
d="M396 1583l-191.5 -102.5l-191.5 -102.5l8 39.5l7 37.5l191.5 101.5l191.5 102.5z" />
    <glyph glyph-name="fathamedial" unicode="&#xfe77;" horiz-adv-x="448" arabic-form="medial" 
d="M396 1157l-191.5 -102.5l-191.5 -102.5l8 39.5l7 37.5l191.5 101.5l191.5 102.5z" />
    <glyph glyph-name="dammaisolated" unicode="&#xfe78;" horiz-adv-x="414" arabic-form="isolated" 
d="M366 1664c-7.33301 -15.333 -19.8301 -32.833 -37.4971 -52.5s-38.5 -38 -62.5 -55s-50.167 -31.167 -78.5 -42.5s-56.833 -16.333 -85.5 -15c-19.333 1.33301 -35.166 2.33301 -47.499 3s-21.833 1.33398 -28.5 2.00098s-10.834 1.16699 -12.501 1.5
s-1.83398 0.833008 -0.500977 1.5l105.5 43c29.667 12 56 24 79 36s43.833 25.167 62.5 39.5s37.334 32.5 56.001 54.5c-31.333 7.33301 -54.333 18.666 -69 33.999s-23.167 32.333 -25.5 51s0.666992 37.834 9 57.501s19.666 37.5 33.999 53.5s30.833 28.833 49.5 38.5
s37.334 14.167 56.001 13.5c10.667 -0.666992 19 -4.83398 25 -12.501s10.167 -17.334 12.5 -29.001s3.16602 -24.667 2.49902 -39s-1.83398 -28.166 -3.50098 -41.499s-3.83398 -25.5 -6.50098 -36.5s-5 -19.167 -7 -24.5l44 -13l-19 -80zM341.003 1841
c-3.33301 4 -7.33301 6.66699 -12 8s-8.66699 2 -12 2c-11.333 1.33301 -20.333 -1.5 -27 -8.5s-10.334 -15.167 -11.001 -24.5c-1.33301 -16.667 5.33398 -29 20.001 -37s31.667 -15.667 51 -23c1.33301 13.333 2 26 2 38c0 10 -0.666992 19.5 -2 28.5
s-4.33301 15.167 -9 18.5v-2z" />
    <glyph glyph-name="dammamedial" unicode="&#xfe79;" horiz-adv-x="490" arabic-form="medial" 
d="M360 1221c-7.33301 -15.333 -19.8301 -32.833 -37.4971 -52.5s-38.5 -38 -62.5 -55s-50.167 -31.167 -78.5 -42.5s-56.833 -16.333 -85.5 -15c-19.333 1.33301 -35.166 2.33301 -47.499 3s-21.833 1.33398 -28.5 2.00098s-10.834 1.16699 -12.501 1.5
s-1.83398 0.833008 -0.500977 1.5l105.5 43c29.667 12 56 24 79 36s43.833 25.167 62.5 39.5s37.334 32.5 56.001 54.5c-31.333 7.33301 -54.333 18.666 -69 33.999s-23.167 32.333 -25.5 51s0.666992 37.834 9 57.501s19.666 37.5 33.999 53.5s30.833 29 49.5 39
s37.334 14.333 56.001 13c10.667 -0.666992 19 -4.83398 25 -12.501s10.167 -17.334 12.5 -29.001s3.16602 -24.667 2.49902 -39s-1.83398 -28.166 -3.50098 -41.499s-3.83398 -25.5 -6.50098 -36.5s-5 -19.167 -7 -24.5l44 -13l-19 -80zM335.003 1398
c-3.33301 4 -7.33301 6.66699 -12 8s-8.66699 2 -12 2c-11.333 1.33301 -20.333 -1.5 -27 -8.5s-10.334 -15.167 -11.001 -24.5c-1.33301 -16.667 5.33398 -29 20.001 -37s31.667 -15.667 51 -23c1.33301 13.333 2 26 2 38c0 10 -0.666992 19.5 -2 28.5
s-4.33301 15.167 -9 18.5v-2z" />
    <glyph glyph-name="kasraisolated" unicode="&#xfe7a;" horiz-adv-x="408" arabic-form="isolated" 
d="M392 -363l-191.5 -102.5l-191.5 -102.5c3.33301 15.333 6 28.333 8 39l7 38l191.5 101.5l191.5 102.5z" />
    <glyph glyph-name="kasramedial" unicode="&#xfe7b;" horiz-adv-x="669" arabic-form="medial" 
d="M392 506l-191.5 -102.5l-191.5 -102.5c3.33301 15.333 6 28.333 8 39l7 38l191.5 101.5l191.5 102.5z" />
    <glyph glyph-name="shaddaisolated" unicode="&#xfe7c;" horiz-adv-x="425" arabic-form="isolated" 
d="M398 1823c7.33301 -11.333 13.1699 -23.3242 17.5029 -35.9912s8.16602 -25.334 11.499 -38.001c4 -22 5 -44.333 3 -67s-7 -43.334 -15 -62.001s-19 -33.834 -33 -45.501s-31 -17.5 -51 -17.5c-16.667 0 -29.167 3 -37.5 9s-17.5 13.667 -27.5 23
c-4 -6.66699 -9 -14.334 -15 -23.001s-13.333 -17 -22 -25s-19 -15 -31 -21s-25.333 -9.66699 -40 -11c-23.333 -2 -42 1.33301 -56 10s-24.333 20.334 -31 35.001s-10.5 31.167 -11.5 49.5s-0.333008 36.166 2 53.499s5.83301 33.166 10.5 47.499
s9.33398 24.833 14.001 31.5c0 -2 1.66699 -1.66699 5 1l11.5 9c4.33301 3.33301 8.16602 6.16602 11.499 8.49902s5 2.5 5 0.5c-5.33301 -13.333 -9.83301 -28.833 -13.5 -46.5s-4.66699 -34.334 -3 -50.001s6.33398 -28.834 14.001 -39.501s20.167 -15.667 37.5 -15
c19.333 0 34.166 5.33301 44.499 16s18.166 23.167 23.499 37.5s9.5 29.166 12.5 44.499s7.16699 28 12.5 38c0.666992 -2 2.33398 -2 5.00098 0s5.66699 4.5 9 7.5s6.5 5.66699 9.5 8s4.83301 2.5 5.5 0.5c-5.33301 -19.333 -6.16602 -37.333 -2.49902 -54
s10.167 -30 19.5 -40s21.166 -16 35.499 -18s29.833 2.66699 46.5 14c4 6 5.83301 13.333 5.5 22s-1.83301 17.5 -4.5 26.5s-6.33398 18 -11.001 27s-9.33398 16.833 -14.001 23.5l24.5 34z" />
    <glyph glyph-name="sheddamedial" unicode="&#xfe7d;" horiz-adv-x="425" arabic-form="medial" 
d="M396 1364c7.33301 -11.333 13.1699 -23.3242 17.5029 -35.9912s8.16602 -25.334 11.499 -38.001c4 -22 5 -44.333 3 -67s-7 -43.334 -15 -62.001s-19 -33.834 -33 -45.501s-31 -17.5 -51 -17.5c-16.667 0 -29.167 3 -37.5 9s-17.5 13.667 -27.5 23
c-4 -6.66699 -9 -14.334 -15 -23.001s-13.333 -17 -22 -25s-19 -15 -31 -21s-25.333 -9.66699 -40 -11c-23.333 -2 -42 1.33301 -56 10s-24.333 20.334 -31 35.001s-10.5 31.167 -11.5 49.5s-0.333008 36.166 2 53.499s5.83301 33.166 10.5 47.499
s9.33398 24.833 14.001 31.5c0 -2 1.66699 -1.66699 5 1l11.5 9c4.33301 3.33301 8.16602 6.16602 11.499 8.49902s5 2.5 5 0.5c-5.33301 -13.333 -9.83301 -28.833 -13.5 -46.5s-4.66699 -34.334 -3 -50.001s6.33398 -28.834 14.001 -39.501s20.167 -15.667 37.5 -15
c19.333 0 34.166 5.33301 44.499 16s18.166 23.167 23.499 37.5s9.5 29.166 12.5 44.499s7.16699 28 12.5 38c0.666992 -2 2.33398 -2 5.00098 0s5.66699 4.5 9 7.5s6.5 5.66699 9.5 8s4.83301 2.5 5.5 0.5c-5.33301 -19.333 -6.16602 -37.333 -2.49902 -54
s10.167 -30 19.5 -40s21.166 -16 35.499 -18s29.833 2.66699 46.5 14c4 6 5.83301 13.333 5.5 22s-1.83301 17.5 -4.5 26.5s-6.33398 18 -11.001 27s-9.33398 16.833 -14.001 23.5l24.5 34z" />
    <glyph glyph-name="sukunisolated" unicode="&#xfe7e;" horiz-adv-x="328" arabic-form="isolated" 
d="M347 1696c3.33301 -22.667 0.000976562 -46.502 -9.99902 -71.502s-23.667 -54.167 -41 -87.5v1c0 0.666992 0.333008 1.33398 1 2.00098l-3 -5c-16 -9.33301 -36.5 -18.166 -61.5 -26.499s-49.667 -13.333 -74 -15s-46 2 -65 11s-30.5 26.167 -34.5 51.5
c-3.33301 22 -2.16602 47.167 3.50098 75.5s14.667 55.5 27 81.5s27.666 48.333 45.999 67s38.166 29.667 59.499 33c18.667 2.66699 36.667 0.5 54 -6.5s32.833 -16.5 46.5 -28.5s25.167 -25.5 34.5 -40.5s15 -28.833 17 -41.5zM283.001 1628
c-2 9.33301 -6.49902 19.332 -13.499 29.999s-15.333 20.5 -25 29.5s-20.167 16.333 -31.5 22s-23 7.5 -35 5.5c-20 -3.33301 -34.667 -12.333 -44 -27s-13 -29.667 -11 -45c2 -14.667 9 -25.5 21 -32.5s26 -10.667 42 -11s32.667 1.83398 50 6.50098
s32.666 11.667 45.999 21zM296.002 1537c0 -0.666992 -0.333008 -1 -1 -1zM295.002 1536c0 -0.666992 -0.333008 -1 -1 -1z" />
    <glyph glyph-name="combmedial" unicode="&#xfe7f;" horiz-adv-x="328" arabic-form="medial" 
d="M357 1134c3.33301 -22.667 0.000976562 -46.502 -9.99902 -71.502s-23.667 -54.167 -41 -87.5v1c0 0.666992 0.333008 1.33398 1 2.00098l-3 -5c-16 -9.33301 -36.5 -18.166 -61.5 -26.499s-49.667 -13.333 -74 -15s-46 2 -65 11s-30.5 26.167 -34.5 51.5
c-3.33301 22 -2.16602 47.167 3.50098 75.5s14.667 55.5 27 81.5s27.666 48.333 45.999 67s38.166 29.667 59.499 33c18.667 2.66699 36.667 0.5 54 -6.5s32.833 -16.5 46.5 -28.5s25.167 -25.5 34.5 -40.5s15 -28.833 17 -41.5zM293.001 1066
c-2 9.33301 -6.49902 19.332 -13.499 29.999s-15.333 20.5 -25 29.5s-20.167 16.333 -31.5 22s-23 7.5 -35 5.5c-20 -3.33301 -34.667 -12.333 -44 -27s-13 -29.667 -11 -45c2 -14.667 9 -25.5 21 -32.5s26 -10.667 42 -11s32.667 1.83398 50 6.50098
s32.666 11.667 45.999 21zM306.002 974.997c0 -0.666992 -0.333008 -1 -1 -1zM305.002 973.997c0 -0.666992 -0.333008 -1 -1 -1z" />
    <glyph glyph-name="hamzaisolated" unicode="&#x621;" horiz-adv-x="704" arabic-form="isolated" 
d="M142 289c-32 40 -54.835 82 -68.502 126s-19.834 87.5 -18.501 130.5s9 84 23 123s32.833 72.833 56.5 101.5s50.834 51 81.501 67s63.334 22.667 98.001 20s70.167 -16 106.5 -40s71.833 -61.667 106.5 -113c-58.667 -12.667 -106.167 -26 -142.5 -40
s-63.666 -28 -81.999 -42s-28.5 -27.667 -30.5 -41s1.83301 -25.833 11.5 -37.5s24 -22.167 43 -31.5s40.833 -17 65.5 -23l260 72v-368l-533 -144l-70 179z" />
    <glyph glyph-name="alefwithmaddaaboveisolated" unicode="&#x622;" horiz-adv-x="495" arabic-form="isolated" 
d="M70 1100l357.001 209.001v-654c0 -76.667 -3.83301 -144.834 -11.5 -204.501s-24 -112.5 -49 -158.5s-60.833 -86.167 -107.5 -120.5s-109.334 -64.5 -188.001 -90.5zM0.000976562 1314c-0.666992 76.667 19.5 143 60.5 199s117.667 58.5 230 7.5
s198.5 -32.833 258.5 54.5c-28.667 -198.667 -111 -267 -247 -205s-236.667 43.333 -302 -56z" />
    <glyph glyph-name="alefwithmaddaabovefinal" unicode="&#x622;" horiz-adv-x="604" arabic-form="final" 
d="M64 1100l357 209v-820h195v-356h-551zM0 1314c-0.666992 76.667 19.5 143 60.5 199s117.667 58.5 230 7.5s198.5 -32.833 258.5 54.5c-28.667 -198.667 -111 -267 -247 -205s-236.667 43.333 -302 -56z" />
    <glyph glyph-name="alefwithhamzaaboveisolated" unicode="&#x623;" horiz-adv-x="495" arabic-form="isolated" 
d="M70 1100l357.001 209.001v-654c0 -76.667 -3.83301 -144.834 -11.5 -204.501s-24 -112.5 -49 -158.5s-60.833 -86.167 -107.5 -120.5s-109.334 -64.5 -188.001 -90.5zM103.001 1411c-20 24 -32.332 49.835 -36.999 77.502s-4 53.667 2 78s16.333 45.666 31 63.999
s31.667 30.5 51 36.5s40.166 4.16699 62.499 -5.5s43.833 -30.167 64.5 -61.5c-40 -8.66699 -68.667 -17.834 -86 -27.501s-27 -19 -29 -28s2.33301 -17.167 13 -24.5s24.667 -13 42 -17l118 32v-167l-244 -65l-31 82z" />
    <glyph glyph-name="alefwithhamzaabovefinal" unicode="&#x623;" horiz-adv-x="604" arabic-form="final" 
d="M64 1100l357 209v-820h195v-356h-551zM103 1411c-20 24 -32.332 49.835 -36.999 77.502s-4 53.667 2 78s16.333 45.666 31 63.999s31.667 30.5 51 36.5s40.166 4.16699 62.499 -5.5s43.833 -30.167 64.5 -61.5c-40 -8.66699 -68.667 -17.834 -86 -27.501s-27 -19 -29 -28
s2.33301 -17.167 13 -24.5s24.667 -13 42 -17l118 32v-167l-244 -65l-31 82z" />
    <glyph glyph-name="wawwithhamzaaboveisolated" unicode="&#x624;" horiz-adv-x="829" arabic-form="isolated" 
d="M469 -242c-34.667 -12.667 -70.334 -19.5049 -107.001 -20.5049s-73.5 4.5 -110.5 16.5s-74 30.833 -111 56.5s-73.167 58.834 -108.5 99.501c160.667 35.333 298.667 109.666 414 222.999c-73.333 -2 -135.833 6 -187.5 24s-93.167 43 -124.5 75
s-53.166 69.333 -65.499 112s-15.833 87.834 -10.5 135.501s19.166 96.334 41.499 146.001s51.833 97.5 88.5 143.5c20.667 26 43.334 49.167 68.001 69.5s50.5 37 77.5 50s54.5 21.5 82.5 25.5s56 2.33301 84 -5s55.333 -20.5 82 -39.5s52 -45.5 76 -79.5
c34.667 -48.667 63 -104.667 85 -168s36.833 -129.333 44.5 -198s7.5 -137.667 -0.5 -207s-24.833 -134.166 -50.5 -194.499s-60.5 -113.666 -104.5 -159.999s-98.333 -81.166 -163 -104.499zM254 1133c-28 34.667 -45.333 71.668 -52 111.001s-5.66699 76.5 3 111.5
s23.667 65.667 45 92s46 43.833 74 52.5s58 6.16699 90 -7.5s63 -42.834 93 -87.501c-58 -12.667 -99.833 -26.167 -125.5 -40.5s-39.667 -28 -42 -41s4.16699 -24.833 19.5 -35.5s35 -19 59 -25l171 47v-241l-350 -94l-46 117zM498 497.996
c0.666992 9.33301 0.165039 19.832 -1.50195 31.499s-4.66699 23.5 -9 35.5s-9.66602 23.5 -15.999 34.5s-13.5 20.5 -21.5 28.5c-12 12 -24.167 18.333 -36.5 19s-23.666 -2.33301 -33.999 -9s-19 -15.834 -26 -27.501s-11.5 -24.167 -13.5 -37.5s-1 -26.166 3 -38.499
s12 -22.666 24 -30.999s28.667 -13.5 50 -15.5s48.333 1.33301 81 10z" />
    <glyph glyph-name="wawwithhamzaabovefinal" unicode="&#x624;" horiz-adv-x="924" arabic-form="final" 
d="M779 489l159.997 -0.000976562v-356h-172c-20 -62.667 -45.333 -119.334 -76 -170.001s-65.5 -93.334 -104.5 -128.001s-81 -60.5 -126 -77.5s-91.5 -23.333 -139.5 -19s-96.667 20.333 -146 48s-97.666 68.834 -144.999 123.501
c160.667 35.333 298.667 109.666 414 222.999c-73.333 -2 -135.833 6 -187.5 24s-93.167 43 -124.5 75s-53.166 69.333 -65.499 112s-15.666 87.834 -9.99902 135.501s19.5 96.334 41.5 146.001s51.667 97.5 89 143.5c28 34.667 59 64.334 93 89.001s69.5 41.667 106.5 51
s74.333 9.5 112 0.5s73.667 -29.5 108 -61.5s66.333 -77.333 96 -136s55.167 -133 76.5 -223zM253.997 1133c-28 34.667 -45.333 71.668 -52 111.001s-5.66699 76.5 3 111.5s23.667 65.667 45 92s46 43.833 74 52.5s58 6.16699 90 -7.5s63 -42.834 93 -87.501
c-58 -12.667 -99.833 -26.167 -125.5 -40.5s-39.667 -28 -42 -41s4.16699 -24.833 19.5 -35.5s35 -19 59 -25l171 47v-241l-350 -94l-46 117zM495.997 498c0.666992 9.33301 0.166992 19.835 -1.5 31.502s-4.66699 23.5 -9 35.5s-9.66602 23.5 -15.999 34.5
s-13.5 20.5 -21.5 28.5c-16 15.333 -32 21.333 -48 18s-29.333 -11.666 -40 -24.999s-17.834 -29.333 -21.501 -48s-1 -35.334 8 -50.001s25.333 -25.334 49 -32.001s57.167 -4.33398 100.5 6.99902z" />
    <glyph glyph-name="alefwithhamzabelowisolated" unicode="&#x625;" horiz-adv-x="495" arabic-form="isolated" 
d="M70 1100l357.001 209.001v-654c0 -76.667 -3.83301 -144.834 -11.5 -204.501s-24 -112.5 -49 -158.5s-60.833 -86.167 -107.5 -120.5s-109.334 -64.5 -188.001 -90.5zM148.001 -231.999c-20 24 -32.332 49.835 -36.999 77.502s-4 53.667 2 78s16.333 45.666 31 63.999
s31.667 30.5 51 36.5s40.166 4.16699 62.499 -5.5s43.833 -30.167 64.5 -61.5c-40 -8.66699 -68.667 -17.834 -86 -27.501s-27 -19 -29 -28s2.33301 -17.167 13 -24.5s24.667 -13 42 -17l118 32v-167l-244 -65l-31 82z" />
    <glyph glyph-name="alefwithhamzabelowfinal" unicode="&#x625;" horiz-adv-x="604" arabic-form="final" 
d="M64 1100l357 209v-820h195v-356h-551zM93 -222c-20 24 -32.332 49.835 -36.999 77.502s-4 53.667 2 78s16.333 45.666 31 63.999s31.667 30.5 51 36.5s40.166 4.16699 62.499 -5.5s43.833 -30.167 64.5 -61.5c-40 -8.66699 -68.667 -17.834 -86 -27.501s-27 -19 -29 -28
s2.33301 -17.167 13 -24.5s24.667 -13 42 -17l118 32v-167l-244 -65l-31 82z" />
    <glyph glyph-name="yehwithhamzaaboveisolated" unicode="&#x626;" horiz-adv-x="1159" arabic-form="isolated" 
d="M809 -205c-66 -33.333 -135.505 -55.1641 -208.505 -65.4971s-143.5 -8.83301 -211.5 4.5c-45.333 8.66699 -88.333 22.334 -129 41.001s-76.667 42.667 -108 72s-57.166 63.666 -77.499 102.999s-33 84 -38 134s-1.5 105.167 10.5 165.5s34.667 125.833 68 196.5
l302 140c-29.333 -50.667 -51.166 -102.334 -65.499 -155.001s-20.333 -102.167 -18 -148.5s13.333 -87.5 33 -123.5s49 -62.333 88 -79s88 -22 147 -16s128.833 28 209.5 66c-12 8.66699 -28.667 16.5 -50 23.5s-44.166 15.333 -68.499 25s-48.5 21.167 -72.5 34.5
s-44.333 30.666 -61 51.999s-28 47.166 -34 77.499s-3.66699 67.5 7 111.5c19.333 76.667 48.333 145.5 87 206.5s84.667 111.5 138 151.5c26.667 20 54.334 37 83.001 51s59 24.667 91 32c13.333 3.33301 29.333 5.16602 48 5.49902s37 -1 55 -4s34.5 -8 49.5 -15
s25.5 -16.167 31.5 -27.5l-67 -261c-16 2.66699 -33 6 -51 10s-35.667 6.33301 -53 7s-33.5 -2.16602 -48.5 -8.49902s-27.167 -18.5 -36.5 -36.5c-4 -8.66699 -4.33301 -17 -1 -25s8.83301 -15.667 16.5 -23s16.834 -14.5 27.501 -21.5s21.334 -13.167 32.001 -18.5l30 -15
c9.33301 -4.66699 16.333 -8.33398 21 -11.001c47.333 -30.667 81.166 -65.5 101.499 -104.5s30 -79.667 29 -122s-10.667 -85 -29 -128s-41.833 -83.667 -70.5 -122s-61.167 -73.166 -97.5 -104.499s-72.833 -56.333 -109.5 -75zM94.9951 778.002
c-28 34.667 -45.333 71.668 -52 111.001s-5.66699 76.5 3 111.5s23.667 65.667 45 92s46 43.833 74 52.5s58 6.16699 90 -7.5s63 -42.834 93 -87.501c-58 -12.667 -99.833 -26.167 -125.5 -40.5s-39.667 -28 -42 -41s4.16699 -24.833 19.5 -35.5s35 -19 59 -25l171 47v-241
l-350 -94l-46 117z" />
    <glyph glyph-name="yehwithhamzaabovefinal" unicode="&#x626;" horiz-adv-x="1239" arabic-form="final" 
d="M1261 489l-0.00390625 -355.998h-179c-13.333 -64 -36.666 -120.5 -69.999 -169.5s-73.166 -90.667 -119.499 -125s-97.5 -61.166 -153.5 -80.499s-113 -31.166 -171 -35.499s-115.167 -1.33301 -171.5 9s-108.166 28.166 -155.499 53.499s-88.333 58.166 -123 98.499
s-59.5 88.166 -74.5 143.499s-18 118 -9 188s33.5 147.667 73.5 233l302 140c-29.333 -50.667 -51.166 -102.334 -65.499 -155.001s-20.333 -102.167 -18 -148.5s13.333 -87.5 33 -123.5s49 -62.333 88 -79s88 -22 147 -16s128.833 28 209.5 66
c-28 25.333 -59.833 45.833 -95.5 61.5s-69.5 27.5 -101.5 35.5l115 260h539zM94.9961 793.002c-28 34.667 -45.333 71.668 -52 111.001s-5.66699 76.5 3 111.5s23.667 65.667 45 92s46 43.833 74 52.5s58 6.16699 90 -7.5s63 -42.834 93 -87.501
c-58 -12.667 -99.833 -26.167 -125.5 -40.5s-39.667 -28 -42 -41s4.16699 -24.833 19.5 -35.5s35 -19 59 -25l171 47v-241l-350 -94l-46 117z" />
    <glyph glyph-name="yehwithhamzaaboveinitial" unicode="&#x626;" horiz-adv-x="779" arabic-form="initial" 
d="M-15 489h374.998c-12.667 40 -27.667 78.167 -45 114.5s-37.666 71.166 -60.999 104.499l304 204c44 -64 77.833 -127.167 101.5 -189.5s40.334 -125.166 50.001 -188.499s14 -128 13 -194s-4.16699 -135 -9.5 -207h-728v356zM223.998 1088
c-28 34.667 -45.333 71.668 -52 111.001s-5.66699 76.5 3 111.5s23.667 65.667 45 92s46 43.833 74 52.5s58 6.16699 90 -7.5s63 -42.834 93 -87.501c-58 -12.667 -99.833 -26.167 -125.5 -40.5s-39.667 -28 -42 -41s4.16699 -24.833 19.5 -35.5s35 -19 59 -25l171 47v-241
l-350 -94l-46 117z" />
    <glyph glyph-name="yehwithhamzaabovemedial" unicode="&#x626;" horiz-adv-x="734" arabic-form="medial" 
d="M616 489h128v-356h-389l-30 113l-61 -113h-278v356h274l-60 221l302 206zM158 1088c-28 34.667 -45.333 71.668 -52 111.001s-5.66699 76.5 3 111.5s23.667 65.667 45 92s46 43.833 74 52.5s58 6.16699 90 -7.5s63 -42.834 93 -87.501
c-58 -12.667 -99.833 -26.167 -125.5 -40.5s-39.667 -28 -42 -41s4.16699 -24.833 19.5 -35.5s35 -19 59 -25l171 47v-241l-350 -94l-46 117z" />
    <glyph glyph-name="alefisolated" unicode="&#x627;" horiz-adv-x="495" arabic-form="isolated" 
d="M70 1100l357.001 209.001v-654c0 -76.667 -3.83301 -144.834 -11.5 -204.501s-24 -112.5 -49 -158.5s-60.833 -86.167 -107.5 -120.5s-109.334 -64.5 -188.001 -90.5z" />
    <glyph glyph-name="aleffinal" unicode="&#x627;" horiz-adv-x="604" arabic-form="final" 
d="M64 1100l357 209v-820h195v-356h-551z" />
    <glyph glyph-name="behisolated" unicode="&#x628;" horiz-adv-x="1424" arabic-form="isolated" 
d="M395 133c-59.333 2 -109.834 9.83301 -151.501 23.5s-76.834 32.167 -105.501 55.5c-28.667 24 -51.334 53.333 -68.001 88s-27.667 71.334 -33 110.001s-5.16602 77.5 0.500977 116.5s16.834 74.5 33.501 106.5l183 117c-10.667 -40 -12.5 -75.5 -5.5 -106.5
s21.333 -57.5 43 -79.5s50 -39.333 85 -52s75.5 -20.334 121.5 -23.001h523c-13.333 40 -28.5 78.167 -45.5 114.5s-37.167 71.166 -60.5 104.499l303 204c44 -64 77.833 -127.167 101.5 -189.5s40.334 -125.166 50.001 -188.499s14.167 -128 13.5 -194
s-3.66699 -135 -9 -207h-979zM706.999 -28l212 -212l-212 -211l-211 211z" />
    <glyph glyph-name="behfinal" unicode="&#x628;" horiz-adv-x="1518" arabic-form="final" 
d="M402 133c-59.333 2 -109.831 9.83301 -151.498 23.5s-76.834 32.167 -105.501 55.5c-28.667 24 -51.5 53.333 -68.5 88s-28.167 71.334 -33.5 110.001s-5 77.5 1 116.5s17.333 74.5 34 106.5l183 117c-10.667 -40 -12.5 -75.5 -5.5 -106.5s21.167 -57.5 42.5 -79.5
s49.666 -39.333 84.999 -52s76 -20.334 122 -23.001h516l-59 221l302 206l114 -427h156v-356h-417l-30 113l-61 -113h-624zM662.002 -28l212 -212l-212 -211l-211 211z" />
    <glyph glyph-name="behinitial" unicode="&#x628;" horiz-adv-x="779" arabic-form="initial" 
d="M-15 489h374.998c-12.667 40 -27.667 78.167 -45 114.5s-37.666 71.166 -60.999 104.499l304 204c44 -64 77.833 -127.167 101.5 -189.5s40.334 -125.166 50.001 -188.499s14 -128 13 -194s-4.16699 -135 -9.5 -207h-728v356zM356.998 -28l212 -212l-212 -211l-211 211z
" />
    <glyph glyph-name="behmedial" unicode="&#x628;" horiz-adv-x="769" arabic-form="medial" 
d="M616 489h169v-356h-430l-30 113l-61 -113h-278v356h274l-60 221l302 206zM357 -28l212 -212l-212 -211l-211 211z" />
    <glyph glyph-name="tehmarbutaisolated" unicode="&#x629;" horiz-adv-x="780" arabic-form="isolated" 
d="M430 133c-73.333 -2 -135.836 5.99805 -187.503 23.998s-93.167 43 -124.5 75s-53.166 69.333 -65.499 112s-15.666 87.834 -9.99902 135.501s19.5 96.334 41.5 146.001s51.667 97.5 89 143.5c20.667 26 43.334 49.167 68.001 69.5s50.334 37 77.001 50s54 21.5 82 25.5
s56 2.33301 84 -5c45.333 -11.333 85 -29.833 119 -55.5s62 -56 84 -91s38.167 -73.167 48.5 -114.5s14.666 -83.333 12.999 -126s-9.5 -84.667 -23.5 -126s-34.333 -79.5 -61 -114.5s-59.5 -65.5 -98.5 -91.5s-84.167 -45 -135.5 -57zM220.997 1416l140 -139l140 139
l188 -188l-188 -188l-140 140l-140 -140l-188 188zM481.997 497.998c0.666992 9.33301 0.165039 19.832 -1.50195 31.499s-4.66699 23.5 -9 35.5s-9.66602 23.5 -15.999 34.5s-13.5 20.5 -21.5 28.5c-12 12 -24.167 18.333 -36.5 19s-23.666 -2.33301 -33.999 -9
s-19 -15.834 -26 -27.501s-11.5 -24.167 -13.5 -37.5s-1 -26.166 3 -38.499s12 -22.666 24 -30.999s28.667 -13.5 50 -15.5s48.333 1.33301 81 10z" />
    <glyph glyph-name="tehmarbutafinal" unicode="&#x629;" horiz-adv-x="989" arabic-form="final" 
d="M1004 489l0.000976562 -355.998h-281l-56 164l-86 -236l-496 253c8.66699 64 21.667 125.667 39 185s42 113.666 74 162.999s72.667 92.666 122 129.999s110.666 66.333 183.999 87l230 125l150 -515h120zM461.001 1491l140 -139l140 139l188 -188l-188 -188l-140 140
l-140 -140l-188 188zM623.001 446.002l-69 198l-139 -90z" />
    <glyph glyph-name="tehisolated" unicode="&#x62a;" horiz-adv-x="1424" arabic-form="isolated" 
d="M395 133c-59.333 2 -109.834 9.83301 -151.501 23.5s-76.834 32.167 -105.501 55.5c-28.667 24 -51.334 53.333 -68.001 88s-27.667 71.334 -33 110.001s-5.16602 77.5 0.500977 116.5s16.834 74.5 33.501 106.5l183 117c-10.667 -40 -12.5 -75.5 -5.5 -106.5
s21.333 -57.5 43 -79.5s50 -39.333 85 -52s75.5 -20.334 121.5 -23.001h523c-13.333 40 -28.5 78.167 -45.5 114.5s-37.167 71.166 -60.5 104.499l303 204c44 -64 77.833 -127.167 101.5 -189.5s40.334 -125.166 50.001 -188.499s14.167 -128 13.5 -194
s-3.66699 -135 -9 -207h-979zM505.999 1242l140 -139l140 139l188 -188l-188 -188l-140 140l-140 -140l-188 188z" />
    <glyph glyph-name="tehfinal" unicode="&#x62a;" horiz-adv-x="1518" arabic-form="final" 
d="M402 133c-59.333 2 -109.831 9.83301 -151.498 23.5s-76.834 32.167 -105.501 55.5c-28.667 24 -51.5 53.333 -68.5 88s-28.167 71.334 -33.5 110.001s-5 77.5 1 116.5s17.333 74.5 34 106.5l183 117c-10.667 -40 -12.5 -75.5 -5.5 -106.5s21.167 -57.5 42.5 -79.5
s49.666 -39.333 84.999 -52s76 -20.334 122 -23.001h516l-59 221l302 206l114 -427h156v-356h-417l-30 113l-61 -113h-624zM531.002 1237l140 -139l140 139l188 -188l-188 -188l-140 140l-140 -140l-188 188z" />
    <glyph glyph-name="tehinitial" unicode="&#x62a;" horiz-adv-x="779" arabic-form="initial" 
d="M-15 489h374.998c-12.667 40 -27.667 78.167 -45 114.5s-37.666 71.166 -60.999 104.499l304 204c44 -64 77.833 -127.167 101.5 -189.5s40.334 -125.166 50.001 -188.499s14 -128 13 -194s-4.16699 -135 -9.5 -207h-728v356zM230.998 1406l140 -139l140 139l188 -188
l-188 -188l-140 140l-140 -140l-188 188z" />
    <glyph glyph-name="tehmedial" unicode="&#x62a;" horiz-adv-x="769" arabic-form="medial" 
d="M616 489h169v-356h-430l-30 113l-61 -113h-278v356h274l-60 221l302 206zM231 1406l140 -139l140 139l188 -188l-188 -188l-140 140l-140 -140l-188 188z" />
    <glyph glyph-name="thehisolated" unicode="&#x62b;" horiz-adv-x="1424" arabic-form="isolated" 
d="M395 133c-59.333 2 -109.834 9.83301 -151.501 23.5s-76.834 32.167 -105.501 55.5c-28.667 24 -51.334 53.333 -68.001 88s-27.667 71.334 -33 110.001s-5.16602 77.5 0.500977 116.5s16.834 74.5 33.501 106.5l183 117c-10.667 -40 -12.5 -75.5 -5.5 -106.5
s21.333 -57.5 43 -79.5s50 -39.333 85 -52s75.5 -20.334 121.5 -23.001h523c-13.333 40 -28.5 78.167 -45.5 114.5s-37.167 71.166 -60.5 104.499l303 204c44 -64 77.833 -127.167 101.5 -189.5s40.334 -125.166 50.001 -188.499s14.167 -128 13.5 -194
s-3.66699 -135 -9 -207h-979zM525.999 1247l140 -139l140 139l188 -188l-188 -188l-140 140l-140 -140l-188 188zM669.999 1592l169 -188l-169 -188l-188 188z" />
    <glyph glyph-name="thehfinal" unicode="&#x62b;" horiz-adv-x="1518" arabic-form="final" 
d="M402 133c-59.333 2 -109.831 9.83301 -151.498 23.5s-76.834 32.167 -105.501 55.5c-28.667 24 -51.5 53.333 -68.5 88s-28.167 71.334 -33.5 110.001s-5 77.5 1 116.5s17.333 74.5 34 106.5l183 117c-10.667 -40 -12.5 -75.5 -5.5 -106.5s21.167 -57.5 42.5 -79.5
s49.666 -39.333 84.999 -52s76 -20.334 122 -23.001h516l-59 221l302 206l114 -427h156v-356h-417l-30 113l-61 -113h-624zM546.002 1247l140 -139l140 139l188 -188l-188 -188l-140 140l-140 -140l-188 188zM690.002 1592l169 -188l-169 -188l-188 188z" />
    <glyph glyph-name="thehinitial" unicode="&#x62b;" horiz-adv-x="779" arabic-form="initial" 
d="M-15 489h374.998c-12.667 40 -27.667 78.167 -45 114.5s-37.666 71.166 -60.999 104.499l304 204c44 -64 77.833 -127.167 101.5 -189.5s40.334 -125.166 50.001 -188.499s14 -128 13 -194s-4.16699 -135 -9.5 -207h-728v356zM245.998 1366l140 -139l140 139l188 -188
l-188 -188l-140 140l-140 -140l-188 188zM389.998 1711l169 -188l-169 -188l-188 188z" />
    <glyph glyph-name="thehmedial" unicode="&#x62b;" horiz-adv-x="769" arabic-form="medial" 
d="M616 489h169v-356h-430l-30 113l-61 -113h-278v356h274l-60 221l302 206zM231 1371l140 -139l140 139l188 -188l-188 -188l-140 140l-140 -140l-188 188zM375 1716l169 -188l-169 -188l-188 188z" />
    <glyph glyph-name="jeemisolated" unicode="&#x62c;" horiz-adv-x="879" arabic-form="isolated" 
d="M836 364c-122 -24 -216.668 -56.667 -284.001 -98s-106.333 -87 -117 -137s7 -102.5 53 -157.5s121 -108.167 225 -159.5c-34.667 -18 -72.334 -36.333 -113.001 -55l-114 -51l-88.5 -38l-35.5 -15c-77.333 38.667 -140.333 84 -189 136s-84.167 107 -106.5 165
s-31.5 117 -27.5 177s20 117 48 171s67.833 103.333 119.5 148s114.167 80.334 187.5 107.001c-26.667 23.333 -51.834 42.5 -75.501 57.5s-48.667 24.333 -75 28s-55.166 0.666992 -86.499 -9s-68 -27.167 -110 -52.5c10 74.667 24.167 136.5 42.5 185.5
s39.5 87.667 63.5 116s50.333 47.166 79 56.499s59 11.666 91 6.99902c34 -5.33301 65.833 -15.166 95.5 -29.499s58.167 -31 85.5 -50s54 -39.167 80 -60.5s52.833 -41.5 80.5 -60.5s56.334 -36 86.001 -51s61.834 -25.167 96.501 -30.5zM681.999 237l157 -157l-157 -156
l-156 156z" />
    <glyph glyph-name="jeemfinal" unicode="&#x62c;" horiz-adv-x="979" arabic-form="final" 
d="M841 489l152.998 0.00390625v-356h-235l-93 185c-81.333 -28.667 -141.5 -62.834 -180.5 -102.501s-56.667 -81.834 -53 -126.501s28.834 -90.834 75.501 -138.501s115 -93.834 205 -138.501c-34.667 -18 -72.334 -36.333 -113.001 -55l-114 -51l-88.5 -38l-35.5 -15
c-77.333 38.667 -140.333 84 -189 136s-84.167 107 -106.5 165s-31.5 117 -27.5 177s20 117 48 171s67.833 103.333 119.5 148s114.167 80.334 187.5 107.001c-26.667 23.333 -51.834 42.5 -75.501 57.5s-48.667 24.333 -75 28s-55.166 0.666992 -86.499 -9
s-68 -27.167 -110 -52.5c10 74.667 24.167 136.5 42.5 185.5s39.5 87.667 63.5 116s50.333 47.166 79 56.499s59 11.666 91 6.99902c34 -5.33301 65.833 -15.166 95.5 -29.499s58.167 -31 85.5 -50s54 -39.167 80 -60.5s52.833 -41.5 80.5 -60.5s56.334 -36 86.001 -51
s61.834 -25.167 96.501 -30.5zM611.998 212.004l127 -127l-127 -126l-126 126z" />
    <glyph glyph-name="jeeminitial" unicode="&#x62c;" horiz-adv-x="1152" arabic-form="initial" 
d="M1050 133l-1055 -0.00292969v356h573l-71.5 64.5c-21.667 19.667 -42.334 36.334 -62.001 50.001s-39.5 24 -59.5 31s-41.167 10 -63.5 9s-47 -6.5 -74 -16.5s-57.5 -25.333 -91.5 -46c13.333 98.667 33.666 175.5 60.999 230.5s59 93 95 114s75.333 28 118 21
s86.334 -23 131.001 -48s89.334 -56.167 134.001 -93.5s87 -75.666 127 -114.999s76.5 -77.166 109.5 -113.499l81.5 -87.5h104zM512 6.99707l212 -212l-212 -211l-211 211z" />
    <glyph glyph-name="jeemmedial" unicode="&#x62c;" horiz-adv-x="1184" arabic-form="medial" 
d="M1194 133l-1204 -0.00292969v356h573l-71.5 64.5c-21.667 19.667 -42.334 36.334 -62.001 50.001s-39.5 24 -59.5 31s-41.167 10 -63.5 9s-47 -6.5 -74 -16.5s-57.5 -25.333 -91.5 -46c13.333 98.667 33.666 175.5 60.999 230.5s59 93 95 114s75.333 28 118 21
s86.334 -23 131.001 -48s89.334 -56.167 134.001 -93.5s87 -75.666 127 -114.999s76.5 -77.166 109.5 -113.499l81.5 -87.5h196v-356zM512 6.99707l212 -212l-212 -211l-211 211z" />
    <glyph glyph-name="hahisolated" unicode="&#x62d;" horiz-adv-x="879" arabic-form="isolated" 
d="M836 364c-122 -24 -216.668 -56.667 -284.001 -98s-106.333 -87 -117 -137s7 -102.5 53 -157.5s121 -108.167 225 -159.5c-34.667 -18 -72.334 -36.333 -113.001 -55l-114 -51l-88.5 -38l-35.5 -15c-77.333 38.667 -140.333 84 -189 136s-84.167 107 -106.5 165
s-31.5 117 -27.5 177s20 117 48 171s67.833 103.333 119.5 148s114.167 80.334 187.5 107.001c-26.667 23.333 -51.834 42.5 -75.501 57.5s-48.667 24.333 -75 28s-55.166 0.666992 -86.499 -9s-68 -27.167 -110 -52.5c10 74.667 24.167 136.5 42.5 185.5
s39.5 87.667 63.5 116s50.333 47.166 79 56.499s59 11.666 91 6.99902c34 -5.33301 65.833 -15.166 95.5 -29.499s58.167 -31 85.5 -50s54 -39.167 80 -60.5s52.833 -41.5 80.5 -60.5s56.334 -36 86.001 -51s61.834 -25.167 96.501 -30.5z" />
    <glyph glyph-name="hahfinal" unicode="&#x62d;" horiz-adv-x="979" arabic-form="final" 
d="M841 489l152.998 0.00390625v-356h-235l-93 185c-81.333 -28.667 -141.5 -62.834 -180.5 -102.501s-56.667 -81.834 -53 -126.501s28.834 -90.834 75.501 -138.501s115 -93.834 205 -138.501c-34.667 -18 -72.334 -36.333 -113.001 -55l-114 -51l-88.5 -38l-35.5 -15
c-77.333 38.667 -140.333 84 -189 136s-84.167 107 -106.5 165s-31.5 117 -27.5 177s20 117 48 171s67.833 103.333 119.5 148s114.167 80.334 187.5 107.001c-26.667 23.333 -51.834 42.5 -75.501 57.5s-48.667 24.333 -75 28s-55.166 0.666992 -86.499 -9
s-68 -27.167 -110 -52.5c10 74.667 24.167 136.5 42.5 185.5s39.5 87.667 63.5 116s50.333 47.166 79 56.499s59 11.666 91 6.99902c34 -5.33301 65.833 -15.166 95.5 -29.499s58.167 -31 85.5 -50s54 -39.167 80 -60.5s52.833 -41.5 80.5 -60.5s56.334 -36 86.001 -51
s61.834 -25.167 96.501 -30.5z" />
    <glyph glyph-name="hahinitial" unicode="&#x62d;" horiz-adv-x="1152" arabic-form="initial" 
d="M1050 133l-1055 -0.00292969v356h573l-71.5 64.5c-21.667 19.667 -42.334 36.334 -62.001 50.001s-39.5 24 -59.5 31s-41.167 10 -63.5 9s-47 -6.5 -74 -16.5s-57.5 -25.333 -91.5 -46c13.333 98.667 33.666 175.5 60.999 230.5s59 93 95 114s75.333 28 118 21
s86.334 -23 131.001 -48s89.334 -56.167 134.001 -93.5s87 -75.666 127 -114.999s76.5 -77.166 109.5 -113.499l81.5 -87.5h104z" />
    <glyph glyph-name="hahmedial" unicode="&#x62d;" horiz-adv-x="1184" arabic-form="medial" 
d="M1194 133l-1204 -0.00292969v356h573l-71.5 64.5c-21.667 19.667 -42.334 36.334 -62.001 50.001s-39.5 24 -59.5 31s-41.167 10 -63.5 9s-47 -6.5 -74 -16.5s-57.5 -25.333 -91.5 -46c13.333 98.667 33.666 175.5 60.999 230.5s59 93 95 114s75.333 28 118 21
s86.334 -23 131.001 -48s89.334 -56.167 134.001 -93.5s87 -75.666 127 -114.999s76.5 -77.166 109.5 -113.499l81.5 -87.5h196v-356z" />
    <glyph glyph-name="khahisolated" unicode="&#x62e;" horiz-adv-x="879" arabic-form="isolated" 
d="M836 364c-122 -24 -216.668 -56.667 -284.001 -98s-106.333 -87 -117 -137s7 -102.5 53 -157.5s121 -108.167 225 -159.5c-34.667 -18 -72.334 -36.333 -113.001 -55l-114 -51l-88.5 -38l-35.5 -15c-77.333 38.667 -140.333 84 -189 136s-84.167 107 -106.5 165
s-31.5 117 -27.5 177s20 117 48 171s67.833 103.333 119.5 148s114.167 80.334 187.5 107.001c-26.667 23.333 -51.834 42.5 -75.501 57.5s-48.667 24.333 -75 28s-55.166 0.666992 -86.499 -9s-68 -27.167 -110 -52.5c10 74.667 24.167 136.5 42.5 185.5
s39.5 87.667 63.5 116s50.333 47.166 79 56.499s59 11.666 91 6.99902c34 -5.33301 65.833 -15.166 95.5 -29.499s58.167 -31 85.5 -50s54 -39.167 80 -60.5s52.833 -41.5 80.5 -60.5s56.334 -36 86.001 -51s61.834 -25.167 96.501 -30.5zM411.999 1470l212 -212l-212 -211
l-211 211z" />
    <glyph glyph-name="khahfinal" unicode="&#x62e;" horiz-adv-x="979" arabic-form="final" 
d="M841 489l152.998 0.00390625v-356h-235l-93 185c-81.333 -28.667 -141.5 -62.834 -180.5 -102.501s-56.667 -81.834 -53 -126.501s28.834 -90.834 75.501 -138.501s115 -93.834 205 -138.501c-34.667 -18 -72.334 -36.333 -113.001 -55l-114 -51l-88.5 -38l-35.5 -15
c-77.333 38.667 -140.333 84 -189 136s-84.167 107 -106.5 165s-31.5 117 -27.5 177s20 117 48 171s67.833 103.333 119.5 148s114.167 80.334 187.5 107.001c-26.667 23.333 -51.834 42.5 -75.501 57.5s-48.667 24.333 -75 28s-55.166 0.666992 -86.499 -9
s-68 -27.167 -110 -52.5c10 74.667 24.167 136.5 42.5 185.5s39.5 87.667 63.5 116s50.333 47.166 79 56.499s59 11.666 91 6.99902c34 -5.33301 65.833 -15.166 95.5 -29.499s58.167 -31 85.5 -50s54 -39.167 80 -60.5s52.833 -41.5 80.5 -60.5s56.334 -36 86.001 -51
s61.834 -25.167 96.501 -30.5zM431.998 1470l212 -212l-212 -211l-211 211z" />
    <glyph glyph-name="khahinitial" unicode="&#x62e;" horiz-adv-x="1152" arabic-form="initial" 
d="M1050 133l-1055 -0.00292969v356h573l-71.5 64.5c-21.667 19.667 -42.334 36.334 -62.001 50.001s-39.5 24 -59.5 31s-41.167 10 -63.5 9s-47 -6.5 -74 -16.5s-57.5 -25.333 -91.5 -46c13.333 98.667 33.666 175.5 60.999 230.5s59 93 95 114s75.333 28 118 21
s86.334 -23 131.001 -48s89.334 -56.167 134.001 -93.5s87 -75.666 127 -114.999s76.5 -77.166 109.5 -113.499l81.5 -87.5h104zM447 1500l212 -212l-212 -211l-211 211z" />
    <glyph glyph-name="khahmedial" unicode="&#x62e;" horiz-adv-x="1184" arabic-form="medial" 
d="M1194 133l-1204 -0.00292969v356h573l-71.5 64.5c-21.667 19.667 -42.334 36.334 -62.001 50.001s-39.5 24 -59.5 31s-41.167 10 -63.5 9s-47 -6.5 -74 -16.5s-57.5 -25.333 -91.5 -46c13.333 98.667 33.666 175.5 60.999 230.5s59 93 95 114s75.333 28 118 21
s86.334 -23 131.001 -48s89.334 -56.167 134.001 -93.5s87 -75.666 127 -114.999s76.5 -77.166 109.5 -113.499l81.5 -87.5h196v-356zM447 1500l212 -212l-212 -211l-211 211z" />
    <glyph glyph-name="dalisolated" unicode="&#x62f;" horiz-adv-x="784" arabic-form="isolated" 
d="M37 489h428.999c-6 31.333 -15.833 58.5 -29.5 81.5s-31 44.5 -52 64.5s-45.833 39.833 -74.5 59.5l-99 66.5l198 257c80.667 -38 146.834 -88.667 198.501 -152s89 -134.5 112 -213.5s32.5 -163 28.5 -252s-21 -178.167 -51 -267.5h-660v356z" />
    <glyph glyph-name="dalfinal" unicode="&#x62f;" horiz-adv-x="1054" arabic-form="final" 
d="M898 489h169.001v-356h-430l-30 113l-61 -113h-511v356l124 149c1.33301 -28.667 9.16602 -55.667 23.499 -81s39.833 -48 76.5 -68h282l-102 370l298 222z" />
    <glyph glyph-name="thalisolated" unicode="&#x630;" horiz-adv-x="784" arabic-form="isolated" 
d="M37 489h428.999c-6 31.333 -15.833 58.5 -29.5 81.5s-31 44.5 -52 64.5s-45.833 39.833 -74.5 59.5l-99 66.5l198 257c80.667 -38 146.834 -88.667 198.501 -152s89 -134.5 112 -213.5s32.5 -163 28.5 -252s-21 -178.167 -51 -267.5h-660v356zM411.999 1545l212 -212
l-212 -211l-211 211z" />
    <glyph glyph-name="thalfinal" unicode="&#x630;" horiz-adv-x="1054" arabic-form="final" 
d="M898 489h169.001v-356h-430l-30 113l-61 -113h-511v356l124 149c1.33301 -28.667 9.16602 -55.667 23.499 -81s39.833 -48 76.5 -68h282l-102 370l298 222zM447.001 1500l212 -212l-212 -211l-211 211z" />
    <glyph glyph-name="rehisolated" unicode="&#x631;" horiz-adv-x="829" arabic-form="isolated" 
d="M758 139c-20 -62.667 -45.665 -119.334 -76.998 -170.001s-66.666 -93.667 -105.999 -129s-81.833 -61.666 -127.5 -78.999s-92.834 -24.166 -141.501 -20.499s-97.834 19.167 -147.501 46.5s-97.834 68.333 -144.501 123c121.333 26 226.5 73.667 315.5 143
s161.5 158 217.5 266l-185 296l216 267c48.667 -61.333 88.334 -122.5 119.001 -183.5s53 -122.333 67 -184s20.167 -123.834 18.5 -186.501s-9.83398 -125.667 -24.501 -189z" />
    <glyph glyph-name="rehfinal" unicode="&#x631;" horiz-adv-x="964" arabic-form="final" 
d="M820 489l160.999 0.000976562v-356h-223c-20 -62.667 -45.333 -119.334 -76 -170.001s-65.5 -93.334 -104.5 -128.001s-81 -60.5 -126 -77.5s-91.5 -23.333 -139.5 -19s-96.667 20.333 -146 48s-97.666 68.834 -144.999 123.501c122 26 227.5 73.667 316.5 143
s161.5 158 217.5 266l-185 296l216 267z" />
    <glyph glyph-name="zainisolated" unicode="&#x632;" horiz-adv-x="829" arabic-form="isolated" 
d="M758 139c-20 -62.667 -45.665 -119.334 -76.998 -170.001s-66.666 -93.667 -105.999 -129s-81.833 -61.666 -127.5 -78.999s-92.834 -24.166 -141.501 -20.499s-97.834 19.167 -147.501 46.5s-97.834 68.333 -144.501 123c121.333 26 226.5 73.667 315.5 143
s161.5 158 217.5 266l-185 296l216 267c48.667 -61.333 88.334 -122.5 119.001 -183.5s53 -122.333 67 -184s20.167 -123.834 18.5 -186.501s-9.83398 -125.667 -24.501 -189zM427.002 1360l212 -212l-212 -211l-211 211z" />
    <glyph glyph-name="zainfinal" unicode="&#x632;" horiz-adv-x="964" arabic-form="final" 
d="M820 489l160.999 0.000976562v-356h-223c-20 -62.667 -45.333 -119.334 -76 -170.001s-65.5 -93.334 -104.5 -128.001s-81 -60.5 -126 -77.5s-91.5 -23.333 -139.5 -19s-96.667 20.333 -146 48s-97.666 68.834 -144.999 123.501c122 26 227.5 73.667 316.5 143
s161.5 158 217.5 266l-185 296l216 267zM426.999 1345l212 -212l-212 -211l-211 211z" />
    <glyph glyph-name="seenisolated" unicode="&#x633;" horiz-adv-x="2408" arabic-form="isolated" 
d="M479 -264c-95.333 0 -174.331 16.1641 -236.998 48.4971s-111.334 74.833 -146.001 127.5s-56.5 112.834 -65.5 180.501s-7.33301 137.167 5 208.5s34.333 141.166 66 209.499s70.834 129.833 117.501 184.5l101 14c-26 -74.667 -40.333 -145.834 -43 -213.501
s4.16602 -128 20.499 -181s41.666 -96.667 75.999 -131s75.666 -55.166 123.999 -62.499s103.166 0.833984 164.499 24.501s127 66.834 197 129.501l-77 244l287 243c17.333 -45.333 31.333 -90.666 42 -135.999s18 -91 22 -137h259l-21 78l303 200l75 -278h256
c-13.333 40 -28.666 78.167 -45.999 114.5s-37.666 71.166 -60.999 104.499l304 204c44 -64 77.833 -127.167 101.5 -189.5s40.334 -125.166 50.001 -188.499s14.167 -128 13.5 -194s-3.66699 -135 -9 -207h-870l-31 113l-60 -113h-306
c-21.333 -57.333 -49.833 -110.333 -85.5 -159s-78.834 -90.667 -129.501 -126s-109 -62.833 -175 -82.5s-140 -29.5 -222 -29.5z" />
    <glyph glyph-name="seenfinal" unicode="&#x633;" horiz-adv-x="2562" arabic-form="final" 
d="M490 -264c-95.333 0 -174.329 16.1641 -236.996 48.4971s-111.334 74.833 -146.001 127.5s-56.5 112.834 -65.5 180.501s-7.33301 137.167 5 208.5s34.333 141.166 66 209.499s70.834 129.833 117.501 184.5l101 14c-26 -74.667 -40.333 -145.834 -43 -213.501
s4.16602 -128 20.499 -181s41.666 -96.667 75.999 -131s75.666 -55.166 123.999 -62.499s103 0.833984 164 24.501s126.5 66.834 196.5 129.501l-76 244l287 243c17.333 -45.333 31.333 -90.666 42 -135.999s18 -91 22 -137h285l-21 78l303 200l74 -278h263l-59 221l301 206
l115 -427h169v-356h-430l-31 113l-61 -113h-528l-30 113l-61 -113h-331c-21.333 -57.333 -49.833 -110.333 -85.5 -159s-78.834 -90.667 -129.501 -126s-109 -62.833 -175 -82.5s-140 -29.5 -222 -29.5z" />
    <glyph glyph-name="seeninitial" unicode="&#x633;" horiz-adv-x="1788" arabic-form="initial" 
d="M870 133l-31.0029 113l-60 -113h-503l-30 113l-61 -113h-201v356h196l-20 78l303 200l74 -278h237l-21 78l303 200l75 -278h256c-13.333 40 -28.666 78.167 -45.999 114.5s-37.666 71.166 -60.999 104.499l304 204c44 -64 77.833 -127.167 101.5 -189.5
s40.334 -125.166 50.001 -188.499s14.167 -128 13.5 -194s-3.66699 -135 -9 -207h-870z" />
    <glyph glyph-name="seenmedial" unicode="&#x633;" horiz-adv-x="1893" arabic-form="medial" 
d="M1753 489h156v-356h-418l-30 113l-61 -113h-528l-30 113l-61 -113h-502l-30 113l-61 -113h-201v356h196l-21 78l303 200l75 -278h236l-20 78l303 200l74 -278h263l-59 221l301 206z" />
    <glyph glyph-name="sheenisolated" unicode="&#x634;" horiz-adv-x="2408" arabic-form="isolated" 
d="M479 -264c-95.333 0 -174.331 16.1641 -236.998 48.4971s-111.334 74.833 -146.001 127.5s-56.5 112.834 -65.5 180.501s-7.33301 137.167 5 208.5s34.333 141.166 66 209.499s70.834 129.833 117.501 184.5l101 14c-26 -74.667 -40.333 -145.834 -43 -213.501
s4.16602 -128 20.499 -181s41.666 -96.667 75.999 -131s75.666 -55.166 123.999 -62.499s103.166 0.833984 164.499 24.501s127 66.834 197 129.501l-77 244l287 243c17.333 -45.333 31.333 -90.666 42 -135.999s18 -91 22 -137h259l-21 78l303 200l75 -278h256
c-13.333 40 -28.666 78.167 -45.999 114.5s-37.666 71.166 -60.999 104.499l304 204c44 -64 77.833 -127.167 101.5 -189.5s40.334 -125.166 50.001 -188.499s14.167 -128 13.5 -194s-3.66699 -135 -9 -207h-870l-31 113l-60 -113h-306
c-21.333 -57.333 -49.833 -110.333 -85.5 -159s-78.834 -90.667 -129.501 -126s-109 -62.833 -175 -82.5s-140 -29.5 -222 -29.5zM1418 1311l140 -139l140 139l188 -188l-188 -188l-140 140l-140 -140l-188 188zM1562 1656l169 -188l-169 -188l-188 188z" />
    <glyph glyph-name="sheenfinal" unicode="&#x634;" horiz-adv-x="2562" arabic-form="final" 
d="M490 -264c-95.333 0 -174.329 16.1641 -236.996 48.4971s-111.334 74.833 -146.001 127.5s-56.5 112.834 -65.5 180.501s-7.33301 137.167 5 208.5s34.333 141.166 66 209.499s70.834 129.833 117.501 184.5l101 14c-26 -74.667 -40.333 -145.834 -43 -213.501
s4.16602 -128 20.499 -181s41.666 -96.667 75.999 -131s75.666 -55.166 123.999 -62.499s103 0.833984 164 24.501s126.5 66.834 196.5 129.501l-76 244l287 243c17.333 -45.333 31.333 -90.666 42 -135.999s18 -91 22 -137h285l-21 78l303 200l74 -278h263l-59 221l301 206
l115 -427h169v-356h-430l-31 113l-61 -113h-528l-30 113l-61 -113h-331c-21.333 -57.333 -49.833 -110.333 -85.5 -159s-78.834 -90.667 -129.501 -126s-109 -62.833 -175 -82.5s-140 -29.5 -222 -29.5zM1501 1311l140 -139l140 139l188 -188l-188 -188l-140 140l-140 -140
l-188 188zM1645 1656l169 -188l-169 -188l-188 188z" />
    <glyph glyph-name="sheeninitial" unicode="&#x634;" horiz-adv-x="1788" arabic-form="initial" 
d="M870 133l-31.0029 113l-60 -113h-503l-30 113l-61 -113h-201v356h196l-20 78l303 200l74 -278h237l-21 78l303 200l75 -278h256c-13.333 40 -28.666 78.167 -45.999 114.5s-37.666 71.166 -60.999 104.499l304 204c44 -64 77.833 -127.167 101.5 -189.5
s40.334 -125.166 50.001 -188.499s14.167 -128 13.5 -194s-3.66699 -135 -9 -207h-870zM805.997 1311l140 -139l140 139l188 -188l-188 -188l-140 140l-140 -140l-188 188zM949.997 1656l169 -188l-169 -188l-188 188z" />
    <glyph glyph-name="sheenmedial" unicode="&#x634;" horiz-adv-x="1893" arabic-form="medial" 
d="M1753 489h156v-356h-418l-30 113l-61 -113h-528l-30 113l-61 -113h-502l-30 113l-61 -113h-201v356h196l-21 78l303 200l75 -278h236l-20 78l303 200l74 -278h263l-59 221l301 206zM806 1311l140 -139l140 139l188 -188l-188 -188l-140 140l-140 -140l-188 188zM950 1656
l169 -188l-169 -188l-188 188z" />
    <glyph glyph-name="sadisolated" unicode="&#x635;" horiz-adv-x="2308" arabic-form="isolated" 
d="M482 -264c-95.333 0 -174.33 16.1621 -236.997 48.4951s-111.334 74.833 -146.001 127.5s-56.5 112.834 -65.5 180.501s-7.33301 137.167 5 208.5s34.333 141.166 66 209.499s70.834 129.833 117.501 184.5l101 14c-26 -74.667 -40.333 -145.834 -43 -213.501
s4.16602 -128 20.499 -181s41.5 -96.667 75.5 -131s75.333 -55.166 124 -62.499s103.5 0.833984 164.5 24.501s126.833 66.834 197.5 129.501l-77 244l287 243c17.333 -45.333 31.333 -90.666 42 -135.999s18 -91 22 -137h64c18.667 19.333 40.5 44 65.5 74
s53.333 61.833 85 95.5s66.834 67.334 105.501 101.001s81.167 64 127.5 91s96.666 49.167 150.999 66.5s113.166 26 176.499 26c78.667 0 141.834 -13 189.501 -39s84.167 -60.833 109.5 -104.5s41.666 -93.667 48.999 -150s9.5 -114.5 6.5 -174.5s-9 -119.667 -18 -179
s-16.5 -113.666 -22.5 -162.999h-1131c-21.333 -57.333 -49.833 -110.333 -85.5 -159s-78.834 -90.667 -129.501 -126s-109 -62.833 -175 -82.5s-140 -29.5 -222 -29.5zM1941 488.995c-17.333 38.667 -36.5 68.166 -57.5 88.499s-43.333 33.833 -67 40.5
s-48.167 7.33398 -73.5 2.00098s-50.666 -14.333 -75.999 -27s-50.333 -28.167 -75 -46.5s-48.334 -37.5 -71.001 -57.5h420z" />
    <glyph glyph-name="sadfinal" unicode="&#x635;" horiz-adv-x="2443" arabic-form="final" 
d="M487 -264c-71.333 0 -133.498 9.32715 -186.498 27.9941s-97.667 44 -134 76s-64.833 69.667 -85.5 113s-34.667 89.833 -42 139.5s-8.16602 101.334 -2.49902 155.001s16.834 106.834 33.501 159.501s38.334 103.667 65.001 153s57.334 94.333 92.001 135l102 14
c-26 -74.667 -40.5 -145.834 -43.5 -213.501s3.66699 -128 20 -181s41.666 -96.667 75.999 -131s75.666 -55.166 123.999 -62.499s103.166 0.833984 164.499 24.501s127 66.834 197 129.501l-76 244l287 243c17.333 -45.333 31.166 -90.666 41.499 -135.999
s17.833 -91 22.5 -137h63c19.333 19.333 41.5 44 66.5 74s53.333 61.833 85 95.5s66.834 67.334 105.501 101.001s81.167 64 127.5 91s96.666 49.167 150.999 66.5s113.166 26 176.499 26c77.333 0 139.666 -12.333 186.999 -37s83.833 -58 109.5 -100
s42.667 -90.5 51 -145.5s12.5 -112.167 12.5 -171.5h185v-356h-1362c-21.333 -57.333 -49.833 -110.333 -85.5 -159s-79 -90.667 -130 -126s-109.5 -62.833 -175.5 -82.5s-140 -29.5 -222 -29.5zM1946 488.994c-17.333 38.667 -36.501 68.166 -57.501 88.499
s-43.167 33.833 -66.5 40.5s-47.666 7.33398 -72.999 2.00098s-50.666 -14.333 -75.999 -27s-50.333 -28.167 -75 -46.5s-48.334 -37.5 -71.001 -57.5h419z" />
    <glyph glyph-name="sadinitial" unicode="&#x635;" horiz-adv-x="1698" arabic-form="initial" 
d="M1304 943c78 0 140.835 -12.6689 188.502 -38.002s84.167 -59.5 109.5 -102.5s42.166 -92.167 50.499 -147.5s12.166 -113.166 11.499 -173.499s-3.33398 -120.5 -8.00098 -180.5s-7 -116 -7 -168h-1360l-30 113l-61 -113h-201v356h197l-21 78l303 200l75 -278h41
c18.667 19.333 40.5 44 65.5 74s53.333 61.833 85 95.5s66.834 67.334 105.501 101.001s81.167 64 127.5 91s96.833 49.167 151.5 66.5s113.667 26 177 26zM1333 488.998c-17.333 38.667 -36.502 68.166 -57.502 88.499s-43.333 33.833 -67 40.5
s-48.167 7.33398 -73.5 2.00098s-50.666 -14.333 -75.999 -27s-50.166 -28.167 -74.499 -46.5s-47.833 -37.5 -70.5 -57.5h419z" />
    <glyph glyph-name="sadmedial" unicode="&#x635;" horiz-adv-x="1823" arabic-form="medial" 
d="M1294 943c77.333 0 139.668 -12.334 187.001 -37.001s83.833 -58 109.5 -100s42.667 -90.5 51 -145.5s12.5 -112.167 12.5 -171.5h185v-356h-1560l-30 113l-61 -113h-201v356h197l-21 78l303 200l75 -278h41c19.333 19.333 41.5 44 66.5 74s53.333 61.833 85 95.5
s66.834 67.334 105.501 101.001s81.167 64 127.5 91s96.666 49.167 150.999 66.5s113.166 26 176.499 26zM1323 488.999c-17.333 38.667 -36.501 68.166 -57.501 88.499s-43.167 33.833 -66.5 40.5s-47.666 7.33398 -72.999 2.00098s-50.666 -14.333 -75.999 -27
s-50.333 -28.167 -75 -46.5s-48.334 -37.5 -71.001 -57.5h419z" />
    <glyph glyph-name="dadisolated" unicode="&#x636;" horiz-adv-x="2308" arabic-form="isolated" 
d="M482 -264c-95.333 0 -174.33 16.1621 -236.997 48.4951s-111.334 74.833 -146.001 127.5s-56.5 112.834 -65.5 180.501s-7.33301 137.167 5 208.5s34.333 141.166 66 209.499s70.834 129.833 117.501 184.5l101 14c-26 -74.667 -40.333 -145.834 -43 -213.501
s4.16602 -128 20.499 -181s41.5 -96.667 75.5 -131s75.333 -55.166 124 -62.499s103.5 0.833984 164.5 24.501s126.833 66.834 197.5 129.501l-77 244l287 243c17.333 -45.333 31.333 -90.666 42 -135.999s18 -91 22 -137h64c18.667 19.333 40.5 44 65.5 74
s53.333 61.833 85 95.5s66.834 67.334 105.501 101.001s81.167 64 127.5 91s96.666 49.167 150.999 66.5s113.166 26 176.499 26c78.667 0 141.834 -13 189.501 -39s84.167 -60.833 109.5 -104.5s41.666 -93.667 48.999 -150s9.5 -114.5 6.5 -174.5s-9 -119.667 -18 -179
s-16.5 -113.666 -22.5 -162.999h-1131c-21.333 -57.333 -49.833 -110.333 -85.5 -159s-78.834 -90.667 -129.501 -126s-109 -62.833 -175 -82.5s-140 -29.5 -222 -29.5zM1291 1315l212 -212l-212 -211l-211 211zM1941 488.995c-17.333 38.667 -36.5 68.166 -57.5 88.499
s-43.333 33.833 -67 40.5s-48.167 7.33398 -73.5 2.00098s-50.666 -14.333 -75.999 -27s-50.333 -28.167 -75 -46.5s-48.334 -37.5 -71.001 -57.5h420z" />
    <glyph glyph-name="dadfinal" unicode="&#x636;" horiz-adv-x="2443" arabic-form="final" 
d="M487 -264c-71.333 0 -133.498 9.32715 -186.498 27.9941s-97.667 44 -134 76s-64.833 69.667 -85.5 113s-34.667 89.833 -42 139.5s-8.16602 101.334 -2.49902 155.001s16.834 106.834 33.501 159.501s38.334 103.667 65.001 153s57.334 94.333 92.001 135l102 14
c-26 -74.667 -40.5 -145.834 -43.5 -213.501s3.66699 -128 20 -181s41.666 -96.667 75.999 -131s75.666 -55.166 123.999 -62.499s103.166 0.833984 164.499 24.501s127 66.834 197 129.501l-76 244l287 243c17.333 -45.333 31.166 -90.666 41.499 -135.999
s17.833 -91 22.5 -137h63c19.333 19.333 41.5 44 66.5 74s53.333 61.833 85 95.5s66.834 67.334 105.501 101.001s81.167 64 127.5 91s96.666 49.167 150.999 66.5s113.166 26 176.499 26c77.333 0 139.666 -12.333 186.999 -37s83.833 -58 109.5 -100
s42.667 -90.5 51 -145.5s12.5 -112.167 12.5 -171.5h185v-356h-1362c-21.333 -57.333 -49.833 -110.333 -85.5 -159s-79 -90.667 -130 -126s-109.5 -62.833 -175.5 -82.5s-140 -29.5 -222 -29.5zM1311 1339.99l212 -212l-212 -211l-211 211zM1946 488.994
c-17.333 38.667 -36.501 68.166 -57.501 88.499s-43.167 33.833 -66.5 40.5s-47.666 7.33398 -72.999 2.00098s-50.666 -14.333 -75.999 -27s-50.333 -28.167 -75 -46.5s-48.334 -37.5 -71.001 -57.5h419z" />
    <glyph glyph-name="dadinitial" unicode="&#x636;" horiz-adv-x="1698" arabic-form="initial" 
d="M1304 943c78 0 140.835 -12.6689 188.502 -38.002s84.167 -59.5 109.5 -102.5s42.166 -92.167 50.499 -147.5s12.166 -113.166 11.499 -173.499s-3.33398 -120.5 -8.00098 -180.5s-7 -116 -7 -168h-1360l-30 113l-61 -113h-201v356h197l-21 78l303 200l75 -278h41
c18.667 19.333 40.5 44 65.5 74s53.333 61.833 85 95.5s66.834 67.334 105.501 101.001s81.167 64 127.5 91s96.833 49.167 151.5 66.5s113.667 26 177 26zM692.002 1330l212 -212l-212 -211l-211 211zM1333 488.998c-17.333 38.667 -36.502 68.166 -57.502 88.499
s-43.333 33.833 -67 40.5s-48.167 7.33398 -73.5 2.00098s-50.666 -14.333 -75.999 -27s-50.166 -28.167 -74.499 -46.5s-47.833 -37.5 -70.5 -57.5h419z" />
    <glyph glyph-name="dadmedial" unicode="&#x636;" horiz-adv-x="1823" arabic-form="medial" 
d="M1294 943c77.333 0 139.668 -12.334 187.001 -37.001s83.833 -58 109.5 -100s42.667 -90.5 51 -145.5s12.5 -112.167 12.5 -171.5h185v-356h-1560l-30 113l-61 -113h-201v356h197l-21 78l303 200l75 -278h41c19.333 19.333 41.5 44 66.5 74s53.333 61.833 85 95.5
s66.834 67.334 105.501 101.001s81.167 64 127.5 91s96.666 49.167 150.999 66.5s113.166 26 176.499 26zM692.002 1330l212 -212l-212 -211l-211 211zM1323 488.999c-17.333 38.667 -36.501 68.166 -57.501 88.499s-43.167 33.833 -66.5 40.5
s-47.666 7.33398 -72.999 2.00098s-50.666 -14.333 -75.999 -27s-50.333 -28.167 -75 -46.5s-48.334 -37.5 -71.001 -57.5h419z" />
    <glyph glyph-name="tahisolated" unicode="&#x637;" horiz-adv-x="1483" arabic-form="isolated" 
d="M272 1100l356.004 209.002v-635c28.667 31.333 60.167 63 94.5 95s70.666 60.833 108.999 86.5s78.833 46.667 121.5 63s86.667 24.5 132 24.5c78 0 140.833 -12.833 188.5 -38.5s84.167 -59.834 109.5 -102.501s42.166 -91.834 50.499 -147.501
s12.166 -113.5 11.499 -173.5s-3.33398 -120 -8.00098 -180s-7 -116 -7 -168h-1283l-119 356h244v611zM1115 489.002c-17.333 38.667 -36.5 68.166 -57.5 88.499s-43.333 33.833 -67 40.5s-48.167 7.33398 -73.5 2.00098s-50.666 -14.333 -75.999 -27
s-50.333 -28.167 -75 -46.5s-48.334 -37.5 -71.001 -57.5h420z" />
    <glyph glyph-name="tahfinal" unicode="&#x637;" horiz-adv-x="1633" arabic-form="final" 
d="M283 1100l356.002 209v-635c28.667 31.333 60.167 63 94.5 95s70.666 60.833 108.999 86.5s78.833 46.667 121.5 63s86.667 24.5 132 24.5c77.333 0 139.666 -12.5 186.999 -37.5s83.833 -58.5 109.5 -100.5s42.667 -90.333 51 -145s12.5 -111.667 12.5 -171h186v-356
h-1484l-118 356h243v611zM1126 489c-17.333 38.667 -36.501 68.166 -57.501 88.499s-43.333 33.833 -67 40.5s-48.167 7.33398 -73.5 2.00098s-50.666 -14.333 -75.999 -27s-50.333 -28.167 -75 -46.5s-48 -37.5 -70 -57.5h419z" />
    <glyph glyph-name="tahinitial" unicode="&#x637;" horiz-adv-x="1394" arabic-form="initial" 
d="M188 1100l356.004 209.002v-635c28.667 31.333 60.167 63 94.5 95s70.666 60.833 108.999 86.5s78.833 46.667 121.5 63s86.667 24.5 132 24.5c78 0 140.833 -12.833 188.5 -38.5s84.167 -59.834 109.5 -102.501s42.166 -91.834 50.499 -147.501
s12.166 -113.5 11.499 -173.5s-3.33398 -120 -8.00098 -180s-7 -116 -7 -168h-1354v356h196v611zM1031 489.002c-17.333 38.667 -36.5 68.166 -57.5 88.499s-43.333 33.833 -67 40.5s-48.167 7.33398 -73.5 2.00098s-50.666 -14.333 -75.999 -27s-50.333 -28.167 -75 -46.5
s-48.334 -37.5 -71.001 -57.5h420z" />
    <glyph glyph-name="tahmedial" unicode="&#x637;" horiz-adv-x="1533" arabic-form="medial" 
d="M192 1100l357.001 209v-635c28.667 31.333 60 63 94 95s70.167 60.833 108.5 86.5s78.833 46.667 121.5 63s86.667 24.5 132 24.5c77.333 0 139.666 -12.5 186.999 -37.5s83.833 -58.5 109.5 -100.5s42.667 -90.333 51 -145s12.5 -111.667 12.5 -171h186v-356h-1564v356
h205v611zM1035 489c-17.333 38.667 -36.502 68.166 -57.502 88.499s-43.333 33.833 -67 40.5s-48.167 7.33398 -73.5 2.00098s-50.666 -14.333 -75.999 -27s-50.166 -28.167 -74.499 -46.5s-47.833 -37.5 -70.5 -57.5h419z" />
    <glyph glyph-name="zahisolated" unicode="&#x638;" horiz-adv-x="1483" arabic-form="isolated" 
d="M272 1100l356.004 209.002v-635c28.667 31.333 60.167 63 94.5 95s70.666 60.833 108.999 86.5s78.833 46.667 121.5 63s86.667 24.5 132 24.5c78 0 140.833 -12.833 188.5 -38.5s84.167 -59.834 109.5 -102.501s42.166 -91.834 50.499 -147.501
s12.166 -113.5 11.499 -173.5s-3.33398 -120 -8.00098 -180s-7 -116 -7 -168h-1283l-119 356h244v611zM917.004 1420l212 -212l-212 -211l-211 211zM1115 489.002c-17.333 38.667 -36.5 68.166 -57.5 88.499s-43.333 33.833 -67 40.5s-48.167 7.33398 -73.5 2.00098
s-50.666 -14.333 -75.999 -27s-50.333 -28.167 -75 -46.5s-48.334 -37.5 -71.001 -57.5h420z" />
    <glyph glyph-name="zahfinal" unicode="&#x638;" horiz-adv-x="1633" arabic-form="final" 
d="M283 1100l356.002 209v-635c28.667 31.333 60.167 63 94.5 95s70.666 60.833 108.999 86.5s78.833 46.667 121.5 63s86.667 24.5 132 24.5c77.333 0 139.666 -12.5 186.999 -37.5s83.833 -58.5 109.5 -100.5s42.667 -90.333 51 -145s12.5 -111.667 12.5 -171h186v-356
h-1484l-118 356h243v611zM937.002 1420l212 -212l-212 -211l-211 211zM1126 489c-17.333 38.667 -36.501 68.166 -57.501 88.499s-43.333 33.833 -67 40.5s-48.167 7.33398 -73.5 2.00098s-50.666 -14.333 -75.999 -27s-50.333 -28.167 -75 -46.5s-48 -37.5 -70 -57.5h419z
" />
    <glyph glyph-name="zahinitial" unicode="&#x638;" horiz-adv-x="1394" arabic-form="initial" 
d="M188 1100l356.004 209.002v-635c28.667 31.333 60.167 63 94.5 95s70.666 60.833 108.999 86.5s78.833 46.667 121.5 63s86.667 24.5 132 24.5c78 0 140.833 -12.833 188.5 -38.5s84.167 -59.834 109.5 -102.501s42.166 -91.834 50.499 -147.501
s12.166 -113.5 11.499 -173.5s-3.33398 -120 -8.00098 -180s-7 -116 -7 -168h-1354v356h196v611zM852.004 1420l212 -212l-212 -211l-211 211zM1031 489.002c-17.333 38.667 -36.5 68.166 -57.5 88.499s-43.333 33.833 -67 40.5s-48.167 7.33398 -73.5 2.00098
s-50.666 -14.333 -75.999 -27s-50.333 -28.167 -75 -46.5s-48.334 -37.5 -71.001 -57.5h420z" />
    <glyph glyph-name="zahmedial" unicode="&#x638;" horiz-adv-x="1533" arabic-form="medial" 
d="M192 1100l357.001 209v-635c28.667 31.333 60 63 94 95s70.167 60.833 108.5 86.5s78.833 46.667 121.5 63s86.667 24.5 132 24.5c77.333 0 139.666 -12.5 186.999 -37.5s83.833 -58.5 109.5 -100.5s42.667 -90.333 51 -145s12.5 -111.667 12.5 -171h186v-356h-1564v356
h205v611zM852.001 1420l212 -212l-212 -211l-211 211zM1035 489c-17.333 38.667 -36.502 68.166 -57.502 88.499s-43.333 33.833 -67 40.5s-48.167 7.33398 -73.5 2.00098s-50.666 -14.333 -75.999 -27s-50.166 -28.167 -74.499 -46.5s-47.833 -37.5 -70.5 -57.5h419z" />
    <glyph glyph-name="ainisolated" unicode="&#x639;" horiz-adv-x="879" arabic-form="isolated" 
d="M375 1106c38 14.667 77.3291 21.3359 117.996 20.0029s79.834 -11.666 117.501 -30.999s72.834 -48.166 105.501 -86.499s60.334 -87.5 83.001 -147.5c-38 3.33301 -75.5 5.83301 -112.5 7.5s-73 1.66699 -108 0s-69 -5.83398 -102 -12.501
s-64.167 -16.334 -93.5 -29.001c13.333 -40.667 35.833 -74.334 67.5 -101.001s69.5 -49.334 113.5 -68.001l280 52l-14 -346c-122 -24 -216.667 -56.667 -284 -98s-106.5 -87 -117.5 -137s6.5 -102.5 52.5 -157.5s121 -108.167 225 -159.5
c-34.667 -18 -72.334 -36.333 -113.001 -55l-114 -51l-88.5 -38l-35.5 -15c-72 36 -130.833 76 -176.5 120s-80.334 89.5 -104.001 136.5s-37.5 94.833 -41.5 143.5s-0.333008 96.167 11 142.5s29.5 90.5 54.5 132.5s54.167 80 87.5 114
c-25.333 34 -43.666 71.833 -54.999 113.5s-16.666 84.5 -15.999 128.5s7.16699 87.833 19.5 131.5s29.833 84.5 52.5 122.5s49.834 71.667 81.501 101s67.167 51.666 106.5 66.999z" />
    <glyph glyph-name="ainfinal" unicode="&#x639;" horiz-adv-x="884" arabic-form="final" 
d="M155 595c-2 2 -5.16406 5.8291 -9.49707 11.4961l-13.5 18.5c-4.66699 6.66699 -8.5 12.667 -11.5 18s-4.16699 9 -3.5 11l53.5 128c17 40.667 37.667 76.167 62 106.5s54.833 54.166 91.5 71.499s84.667 25.333 144 24c52.667 -1.33301 99.334 -10.166 140.001 -26.499
s74.5 -37.833 101.5 -64.5s46.667 -57 59 -91s16.666 -69.167 12.999 -105.5s-15.834 -72.5 -36.501 -108.5s-51 -69 -91 -99h245v-356h-290l-130 181c-42.667 -41.333 -71.167 -80.166 -85.5 -116.499s-18.5 -70.5 -12.5 -102.5s20.167 -61.667 42.5 -89
s48.833 -52.666 79.5 -75.999s63.834 -44.833 99.501 -64.5s69.5 -37.5 101.5 -53.5c-34.667 -18 -72.334 -36.333 -113.001 -55l-114 -51l-88.5 -38l-35.5 -15c-84.667 42.667 -151.334 90.334 -200.001 143.001s-82.667 107.167 -102 163.5s-26 112.833 -20 169.5
s21.167 110.5 45.5 161.5s56.166 97.333 95.499 139s82.333 75.834 129 102.501c-10 12 -20 22.833 -30 32.5s-20.667 17.5 -32 23.5s-23.833 9.83301 -37.5 11.5s-29.167 0.166992 -46.5 -4.5z" />
    <glyph glyph-name="aininitial" unicode="&#x639;" horiz-adv-x="1019" arabic-form="initial" 
d="M-14 489l192.001 0.000976562c-6 64.667 -3.33301 124.667 8 180s28.833 104.5 52.5 147.5s52.167 79.5 85.5 109.5s69.166 52.333 107.499 67s77.666 21.5 117.999 20.5s79.5 -11.167 117.5 -30.5s73.167 -48.333 105.5 -87s59.833 -88 82.5 -148
c-38 3.33301 -75.5 6 -112.5 8s-73 2.16699 -108 0.5s-69 -5.83398 -102 -12.501s-64.167 -16.334 -93.5 -29.001c20.667 -107.333 74.334 -182.666 161.001 -225.999h383l-74 -356h-923v356z" />
    <glyph glyph-name="ainmedial" unicode="&#x639;" horiz-adv-x="1004" arabic-form="medial" 
d="M-14 489l389.997 0.00195312c-35.333 40.667 -69.666 70.5 -102.999 89.5s-65.666 24.5 -96.999 16.5c-2 2 -5.16699 5.83301 -9.5 11.5l-13.5 18.5c-4.66699 6.66699 -8.5 12.667 -11.5 18s-4.16699 9 -3.5 11l84 197c17.333 40.667 45.333 71.667 84 93
s81.834 34.166 129.501 38.499s97.167 1.16602 148.5 -9.50098s98 -28 140 -52s76.5 -53.667 103.5 -89s40.5 -75 40.5 -119l-146 -224h298v-356h-389l-50 145l-96 -145h-499v356z" />
    <glyph glyph-name="ghainisolated" unicode="&#x63a;" horiz-adv-x="879" arabic-form="isolated" 
d="M375 1106c38 14.667 77.3291 21.3359 117.996 20.0029s79.834 -11.666 117.501 -30.999s72.834 -48.166 105.501 -86.499s60.334 -87.5 83.001 -147.5c-38 3.33301 -75.5 5.83301 -112.5 7.5s-73 1.66699 -108 0s-69 -5.83398 -102 -12.501
s-64.167 -16.334 -93.5 -29.001c13.333 -40.667 35.833 -74.334 67.5 -101.001s69.5 -49.334 113.5 -68.001l280 52l-14 -346c-122 -24 -216.667 -56.667 -284 -98s-106.5 -87 -117.5 -137s6.5 -102.5 52.5 -157.5s121 -108.167 225 -159.5
c-34.667 -18 -72.334 -36.333 -113.001 -55l-114 -51l-88.5 -38l-35.5 -15c-72 36 -130.833 76 -176.5 120s-80.334 89.5 -104.001 136.5s-37.5 94.833 -41.5 143.5s-0.333008 96.167 11 142.5s29.5 90.5 54.5 132.5s54.167 80 87.5 114
c-25.333 34 -43.666 71.833 -54.999 113.5s-16.666 84.5 -15.999 128.5s7.16699 87.833 19.5 131.5s29.833 84.5 52.5 122.5s49.834 71.667 81.501 101s67.167 51.666 106.5 66.999zM436.996 1650l212 -212l-212 -211l-211 211z" />
    <glyph glyph-name="ghainfinal" unicode="&#x63a;" horiz-adv-x="884" arabic-form="final" 
d="M155 595c-2 2 -5.16406 5.8291 -9.49707 11.4961l-13.5 18.5c-4.66699 6.66699 -8.5 12.667 -11.5 18s-4.16699 9 -3.5 11l53.5 128c17 40.667 37.667 76.167 62 106.5s54.833 54.166 91.5 71.499s84.667 25.333 144 24c52.667 -1.33301 99.334 -10.166 140.001 -26.499
s74.5 -37.833 101.5 -64.5s46.667 -57 59 -91s16.666 -69.167 12.999 -105.5s-15.834 -72.5 -36.501 -108.5s-51 -69 -91 -99h245v-356h-290l-130 181c-42.667 -41.333 -71.167 -80.166 -85.5 -116.499s-18.5 -70.5 -12.5 -102.5s20.167 -61.667 42.5 -89
s48.833 -52.666 79.5 -75.999s63.834 -44.833 99.501 -64.5s69.5 -37.5 101.5 -53.5c-34.667 -18 -72.334 -36.333 -113.001 -55l-114 -51l-88.5 -38l-35.5 -15c-84.667 42.667 -151.334 90.334 -200.001 143.001s-82.667 107.167 -102 163.5s-26 112.833 -20 169.5
s21.167 110.5 45.5 161.5s56.166 97.333 95.499 139s82.333 75.834 129 102.501c-10 12 -20 22.833 -30 32.5s-20.667 17.5 -32 23.5s-23.833 9.83301 -37.5 11.5s-29.167 0.166992 -46.5 -4.5zM442.003 1530l212 -212l-212 -211l-211 211z" />
    <glyph glyph-name="ghaininitial" unicode="&#x63a;" horiz-adv-x="1019" arabic-form="initial" 
d="M-14 489l192.001 0.000976562c-6 64.667 -3.33301 124.667 8 180s28.833 104.5 52.5 147.5s52.167 79.5 85.5 109.5s69.166 52.333 107.499 67s77.666 21.5 117.999 20.5s79.5 -11.167 117.5 -30.5s73.167 -48.333 105.5 -87s59.833 -88 82.5 -148
c-38 3.33301 -75.5 6 -112.5 8s-73 2.16699 -108 0.5s-69 -5.83398 -102 -12.501s-64.167 -16.334 -93.5 -29.001c20.667 -107.333 74.334 -182.666 161.001 -225.999h383l-74 -356h-923v356zM527.001 1540l212 -212l-212 -211l-211 211z" />
    <glyph glyph-name="ghainmedial" unicode="&#x63a;" horiz-adv-x="1004" arabic-form="medial" 
d="M-14 489l389.997 0.00195312c-35.333 40.667 -69.666 70.5 -102.999 89.5s-65.666 24.5 -96.999 16.5c-2 2 -5.16699 5.83301 -9.5 11.5l-13.5 18.5c-4.66699 6.66699 -8.5 12.667 -11.5 18s-4.16699 9 -3.5 11l84 197c17.333 40.667 45.333 71.667 84 93
s81.834 34.166 129.501 38.499s97.167 1.16602 148.5 -9.50098s98 -28 140 -52s76.5 -53.667 103.5 -89s40.5 -75 40.5 -119l-146 -224h298v-356h-389l-50 145l-96 -145h-499v356zM526.997 1540l212 -212l-212 -211l-211 211z" />
    <glyph glyph-name="fehisolated" unicode="&#x641;" horiz-adv-x="1423" arabic-form="isolated" 
d="M673 489c-10.667 33.333 -13.667 70.166 -9 110.499s15.5 80.833 32.5 121.5s39 79.5 66 116.5s57.167 68.5 90.5 94.5s69.166 45 107.499 57s77.166 13 116.499 3c46 -11.333 86.667 -31.666 122 -60.999s65.333 -65.333 90 -108s44.334 -90.667 59.001 -144
s24.5 -110 29.5 -170s5.66699 -121.833 2 -185.5s-11.5 -127.167 -23.5 -190.5h-962c-58.667 2 -109 9.83301 -151 23.5s-77 32.167 -105 55.5c-29.333 24 -52.333 53.333 -69 88s-27.667 71.334 -33 110.001s-5 77.5 1 116.5s17.333 74.5 34 106.5l183 117
c-10.667 -40 -12.667 -75.5 -6 -106.5s20.834 -57.5 42.501 -79.5s50 -39.333 85 -52s75.5 -20.334 121.5 -23.001h176zM737 1460l212 -212l-212 -211l-211 211zM1127 484c0.666992 9.33301 0.00488281 20.667 -1.99512 34s-5.33301 26.833 -10 40.5
s-10.334 26.667 -17.001 39s-14 22.5 -22 30.5c-26.667 26.667 -49.5 44.667 -68.5 54s-34.333 12.333 -46 9s-19.834 -11.333 -24.501 -24s-5.83398 -27.334 -3.50098 -44.001s8.16602 -34.167 17.499 -52.5s22.166 -34.666 38.499 -48.999s36 -25.333 59 -33
s49.167 -9.16699 78.5 -4.5z" />
    <glyph glyph-name="fehfinal" unicode="&#x641;" horiz-adv-x="1553" arabic-form="final" 
d="M679 489c-10.667 33.333 -13.668 70.168 -9.00098 110.501s15.5 80.833 32.5 121.5s39 79.5 66 116.5s57.167 68.5 90.5 94.5s69.166 45 107.499 57s77.166 13 116.499 3c47.333 -12 88.833 -33.167 124.5 -63.5s66 -67.833 91 -112.5s44.5 -94.834 58.5 -150.501
s23.333 -114.5 28 -176.5h180v-356h-1165c-58.667 2 -109 9.83301 -151 23.5s-77 32.167 -105 55.5c-29.333 24 -52.333 53.333 -69 88s-27.667 71.334 -33 110.001s-5.16602 77.5 0.500977 116.5s16.834 74.5 33.501 106.5l184 117c-10.667 -40 -12.667 -75.5 -6 -106.5
s20.834 -57.5 42.501 -79.5s50 -39.333 85 -52s75.5 -20.334 121.5 -23.001h176zM996.999 1515l212 -212l-212 -211l-211 211zM1133 484.002c0.666992 9.33301 0.00488281 20.667 -1.99512 34s-5.33301 26.833 -10 40.5s-10.334 26.667 -17.001 39s-14 22.5 -22 30.5
c-26.667 26.667 -49.5 44.667 -68.5 54s-34.333 12.333 -46 9s-19.834 -11.333 -24.501 -24s-5.83398 -27.334 -3.50098 -44.001s8.16602 -34.167 17.499 -52.5s22.166 -34.666 38.499 -48.999s36 -25.333 59 -33s49.167 -9.16699 78.5 -4.5z" />
    <glyph glyph-name="fehinitial" unicode="&#x641;" horiz-adv-x="949" arabic-form="initial" 
d="M195 489c-10.667 33.333 -13.5 70.166 -8.5 110.499s15.833 80.833 32.5 121.5s38.5 79.5 65.5 116.5s57.333 68.5 91 94.5s69.5 45 107.5 57s76.667 13 116 3c46 -11.333 86.667 -31.666 122 -60.999s65.333 -65.333 90 -108s44.334 -90.667 59.001 -144
s24.667 -110 30 -170s6.16602 -121.833 2.49902 -185.5s-11.5 -127.167 -23.5 -190.5h-895v356h211zM527 1540l212 -212l-212 -211l-211 211zM650 484c0.666992 9.33301 0.00488281 20.667 -1.99512 34s-5.33301 26.833 -10 40.5s-10.334 26.667 -17.001 39
s-14 22.5 -22 30.5c-26.667 26.667 -49.5 44.667 -68.5 54s-34.333 12.333 -46 9s-19.834 -11.333 -24.501 -24s-5.83398 -27.334 -3.50098 -44.001s8.16602 -34.167 17.499 -52.5s22.166 -34.666 38.499 -48.999s36 -25.333 59 -33s49.167 -9.16699 78.5 -4.5z" />
    <glyph glyph-name="fehmedial" unicode="&#x641;" horiz-adv-x="1069" arabic-form="medial" 
d="M201 489c-10.667 33.333 -13.5 70.168 -8.5 110.501s15.833 80.833 32.5 121.5s38.5 79.5 65.5 116.5s57.333 68.5 91 94.5s69.5 45 107.5 57s76.667 13 116 3c48 -12 89.833 -33.167 125.5 -63.5s66 -67.833 91 -112.5s44.5 -94.834 58.5 -150.501
s23.333 -114.5 28 -176.5h180v-356h-1097v356h210zM527 1540l212 -212l-212 -211l-211 211zM656 484.002c0.666992 9.33301 0.00488281 20.667 -1.99512 34s-5.33301 26.833 -10 40.5s-10.334 26.667 -17.001 39s-14 22.5 -22 30.5c-26.667 26.667 -49.5 44.667 -68.5 54
s-34.333 12.333 -46 9s-19.834 -11.333 -24.501 -24s-5.83398 -27.334 -3.50098 -44.001s8.16602 -34.167 17.499 -52.5s22.166 -34.666 38.499 -48.999s36 -25.333 59 -33s49.167 -9.16699 78.5 -4.5z" />
    <glyph glyph-name="qafisolated" unicode="&#x642;" horiz-adv-x="1279" arabic-form="isolated" 
d="M527 -264c-77.333 0 -144.833 9.32617 -202.5 27.9932s-106.334 44 -146.001 76s-70.834 69.667 -93.501 113s-38 89.833 -46 139.5s-8.83301 101.334 -2.5 155.001s18.5 106.834 36.5 159.501s41.5 103.667 70.5 153s62.5 94.333 100.5 135l110 14
c-24.667 -66 -39.667 -129.5 -45 -190.5s-2 -116.667 10 -167s31.833 -94 59.5 -131s61.834 -64.167 102.501 -81.5s87.5 -23.666 140.5 -18.999s110.5 23.334 172.5 56.001c-46 18.667 -89.167 44.834 -129.5 78.501s-74 72 -101 115s-45.5 89.333 -55.5 139
s-8 100.167 6 151.5c7.33301 27.333 17.833 55.5 31.5 84.5s30 57.167 49 84.5s40.333 52.5 64 75.5s49.167 42.333 76.5 58s56.166 26.334 86.499 32.001s61.5 4.83398 93.5 -2.49902c44.667 -10.667 83.334 -29 116.001 -55s60.834 -56.667 84.501 -92
s43 -73.666 58 -114.999s27.167 -83 36.5 -125c14.667 -68.667 22.667 -137 24 -205s-6 -133.5 -22 -196.5s-41.833 -122.333 -77.5 -178s-83.167 -105.167 -142.5 -148.5c-62.667 -46.667 -133.5 -81.834 -212.5 -105.501s-163.167 -35.5 -252.5 -35.5zM281 1380.99
l140 -139l140 139l188 -188l-188 -188l-140 140l-140 -140l-188 188zM965 483.993c0.666992 9.33301 0.00488281 20.667 -1.99512 34s-5.33301 26.833 -10 40.5s-10.334 26.667 -17.001 39s-14 22.5 -22 30.5c-26.667 26.667 -49.5 44.667 -68.5 54s-34.333 12.333 -46 9
s-19.834 -11.333 -24.501 -24s-5.83398 -27.334 -3.50098 -44.001s8.16602 -34.167 17.499 -52.5s22.166 -34.666 38.499 -48.999s36 -25.333 59 -33s49.167 -9.16699 78.5 -4.5z" />
    <glyph glyph-name="qaffinal" unicode="&#x642;" horiz-adv-x="1359" arabic-form="final" 
d="M527 -264c-77.333 0 -144.833 9.32617 -202.5 27.9932s-106.334 44 -146.001 76s-70.834 69.667 -93.501 113s-38 89.833 -46 139.5s-8.83301 101.334 -2.5 155.001s18.5 106.834 36.5 159.501s41.5 103.667 70.5 153s62.5 94.333 100.5 135l110 14
c-24.667 -66 -39.667 -129.5 -45 -190.5s-2 -116.667 10 -167s31.833 -94 59.5 -131s61.834 -64.167 102.501 -81.5s87.5 -23.666 140.5 -18.999s110.5 23.334 172.5 56.001c-46 18.667 -89.167 44.834 -129.5 78.501s-74 72 -101 115s-45.5 89.333 -55.5 139
s-8 100.167 6 151.5c7.33301 27.333 17.833 55.5 31.5 84.5s30 57.167 49 84.5s40.333 52.5 64 75.5s49.167 42.333 76.5 58s56.166 26.334 86.499 32.001s61.5 4.83398 93.5 -2.49902c44.667 -10.667 83.334 -29 116.001 -55s60.834 -56.667 84.501 -92
s43 -73.666 58 -114.999s27.167 -83 36.5 -125c8 -38 14 -76.667 18 -116h146v-356h-185c-19.333 -49.333 -45 -95.5 -77 -138.5s-72 -82.167 -120 -117.5c-62.667 -46.667 -133.5 -81.834 -212.5 -105.501s-163.167 -35.5 -252.5 -35.5zM281 1380.99l140 -139l140 139
l188 -188l-188 -188l-140 140l-140 -140l-188 188zM965 483.993c0.666992 9.33301 0.00488281 20.667 -1.99512 34s-5.33301 26.833 -10 40.5s-10.334 26.667 -17.001 39s-14 22.5 -22 30.5c-26.667 26.667 -49.5 44.667 -68.5 54s-34.333 12.333 -46 9
s-19.834 -11.333 -24.501 -24s-5.83398 -27.334 -3.50098 -44.001s8.16602 -34.167 17.499 -52.5s22.166 -34.666 38.499 -48.999s36 -25.333 59 -33s49.167 -9.16699 78.5 -4.5z" />
    <glyph glyph-name="qafinitial" unicode="&#x642;" horiz-adv-x="949" arabic-form="initial" 
d="M-9 489h203.002c-10.667 33.333 -13.5 70.166 -8.5 110.499s15.833 80.833 32.5 121.5s38.5 79.5 65.5 116.5s57.167 68.5 90.5 94.5s69.166 45 107.499 57s77.166 13 116.499 3c46 -11.333 86.667 -31.666 122 -60.999s65.333 -65.333 90 -108
s44.334 -90.667 59.001 -144s24.667 -110 30 -170s6.16602 -121.833 2.49902 -185.5s-11.5 -127.167 -23.5 -190.5h-887v356zM351.002 1506l140 -139l140 139l188 -188l-188 -188l-140 140l-140 -140l-188 188zM648.002 484c0.666992 9.33301 0.00488281 20.667 -1.99512 34
s-5.33301 26.833 -10 40.5s-10.334 26.667 -17.001 39s-14 22.5 -22 30.5c-26.667 26.667 -49.5 44.667 -68.5 54s-34.333 12.333 -46 9s-19.834 -11.333 -24.501 -24s-5.83398 -27.334 -3.50098 -44.001s8.16602 -34.167 17.499 -52.5s22.166 -34.666 38.499 -48.999
s36 -25.333 59 -33s49.167 -9.16699 78.5 -4.5z" />
    <glyph glyph-name="qafmedial" unicode="&#x642;" horiz-adv-x="1069" arabic-form="medial" 
d="M-9 489l203.002 0.00195312c-10.667 33.333 -13.5 70.166 -8.5 110.499s15.833 80.833 32.5 121.5s38.5 79.5 65.5 116.5s57.167 68.5 90.5 94.5s69.166 45 107.499 57s77.166 13 116.499 3c47.333 -12 89 -33.167 125 -63.5s66.333 -67.833 91 -112.5
s44.167 -94.834 58.5 -150.501s23.833 -114.5 28.5 -176.5h180v-356h-1090v356zM351.002 1506l140 -139l140 139l188 -188l-188 -188l-140 140l-140 -140l-188 188zM648.002 484.002c0.666992 9.33301 0.000976562 20.667 -1.99902 34s-5.33301 26.833 -10 40.5
s-10.334 26.667 -17.001 39s-13.667 22.5 -21 30.5c-26.667 26.667 -49.5 44.667 -68.5 54s-34.5 12.333 -46.5 9s-20.333 -11.333 -25 -24s-5.66699 -27.334 -3 -44.001s8.66699 -34.167 18 -52.5s22 -34.666 38 -48.999s35.5 -25.333 58.5 -33s49.167 -9.16699 78.5 -4.5z
" />
    <glyph glyph-name="kafisolated" unicode="&#x643;" horiz-adv-x="1373" arabic-form="isolated" 
d="M948 1100l356.001 209v-820l-75 -356h-836c-59.333 2 -109.833 9.83301 -151.5 23.5s-76.834 32.167 -105.501 55.5c-28.667 24 -51.334 53.333 -68.001 88s-27.667 71.334 -33 110.001s-5.16602 77.5 0.500977 116.5s16.834 74.5 33.501 106.5l183 117
c-10.667 -40 -12.5 -75.5 -5.5 -106.5s21.167 -57.5 42.5 -79.5s49.666 -39.333 84.999 -52s76 -20.334 122 -23.001h452v611zM842.001 905c-1.33301 -17.333 -5.83301 -36.166 -13.5 -56.499s-18.334 -40.833 -32.001 -61.5s-29.667 -40.5 -48 -59.5
s-39.333 -35.333 -63 -49s-49.334 -24.167 -77.001 -31.5s-57.167 -9.66602 -88.5 -6.99902c-21.333 1.33301 -42 5.5 -62 12.5s-40 16.5 -60 28.5l9 46c20 4 39.333 8.5 58 13.5s37.5 10.833 56.5 17.5s38.333 14.167 58 22.5s40.834 18.166 63.501 29.499
c-52 -5.33301 -92.667 -4 -122 4s-49.5 20.667 -60.5 38s-14.167 37.833 -9.5 61.5s15.334 48.667 32.001 75s38.167 52.5 64.5 78.5s55.333 50 87 72s65 40.5 100 55.5s69.5 24.5 103.5 28.5l-76 -169c-16.667 -1.33301 -36 -5.33301 -58 -12s-46 -20.334 -72 -41.001
c3.33301 -12 11.166 -19.667 23.499 -23s26.5 -5 42.5 -5c16.667 0 33.834 0.5 51.501 1.5s33.667 0 48 -3s25.833 -9.5 34.5 -19.5s12 -25.667 10 -47z" />
    <glyph glyph-name="arabickaffinal" unicode="&#x643;" horiz-adv-x="1473" arabic-form="final" 
d="M951 1100l356.999 209v-820h176v-356h-1088c-58.667 2 -109 9.83301 -151 23.5s-77 32.167 -105 55.5c-29.333 24 -52.333 53.333 -69 88s-27.667 71.334 -33 110.001s-5 77.5 1 116.5s17.333 74.5 34 106.5l183 117c-10.667 -40 -12.667 -75.5 -6 -106.5
s20.834 -57.5 42.501 -79.5s50 -39.333 85 -52s75.5 -20.334 121.5 -23.001h452v611zM844.999 905c-1.33301 -17.333 -5.83496 -36.166 -13.502 -56.499s-18.167 -40.833 -31.5 -61.5s-29.333 -40.5 -48 -59.5s-39.667 -35.333 -63 -49s-48.833 -24.167 -76.5 -31.5
s-57.167 -9.66602 -88.5 -6.99902c-22 1.33301 -43 5.5 -63 12.5s-40 16.5 -60 28.5l9 46c20 4 39.333 8.5 58 13.5s37.5 10.833 56.5 17.5s38.333 14.167 58 22.5s40.834 18.166 63.501 29.499c-52 -5.33301 -92.667 -4 -122 4s-49.5 20.667 -60.5 38
s-14.167 37.833 -9.5 61.5s15.334 48.667 32.001 75s38.167 52.5 64.5 78.5s55.333 50 87 72s65 40.5 100 55.5s69.5 24.5 103.5 28.5l-76 -169c-16.667 -1.33301 -36 -5.33301 -58 -12s-45.667 -20.334 -71 -41.001c3.33301 -12 11.166 -19.667 23.499 -23s26.5 -5 42.5 -5
c16.667 0 33.834 0.5 51.501 1.5s33.5 0 47.5 -3s25.333 -9.5 34 -19.5s12 -25.667 10 -47z" />
    <glyph glyph-name="kafinitial" unicode="&#x643;" horiz-adv-x="989" arabic-form="initial" 
d="M-9 489h590.001l-486 250l115 429l759 150v-324l-494 -70c78.667 -39.333 145.5 -74.333 200.5 -105s100.333 -59.167 136 -85.5s62.667 -51.5 81 -75.5s30.333 -48.5 36 -73.5s6.16699 -51.667 1.5 -80s-12.334 -60.333 -23.001 -96l-37.5 -121
c-14.333 -45 -28.5 -96.5 -42.5 -154.5h-836v356z" />
    <glyph glyph-name="kafmedial" unicode="&#x643;" horiz-adv-x="1089" arabic-form="medial" 
d="M-15 489h415l-305 252l130 427l774 165v-314l-544 -120l483 -410h159v-356h-318l-143 133l-92 -133h-559v356z" />
    <glyph glyph-name="lamisolated" unicode="&#x644;" horiz-adv-x="1239" arabic-form="isolated" 
d="M492 -264c-95.333 0 -174.333 16.167 -237 48.5s-111.334 74.833 -146.001 127.5s-56.5 112.834 -65.5 180.501s-7.33301 137.167 5 208.5s34.333 141.166 66 209.499s70.834 129.833 117.501 184.5l101 14c-24.667 -70 -39 -137 -43 -201s0.833008 -122 14.5 -174
s35.167 -95.833 64.5 -131.5s65.333 -60.167 108 -73.5s91.167 -13.5 145.5 -0.5s113.166 42.167 176.499 87.5l-1 884l356 209v-820c-3.33301 -69.333 -10.666 -136 -21.999 -200s-28 -123.833 -50 -179.5s-50 -106.5 -84 -152.5s-75 -85.333 -123 -118
s-103.667 -58 -167 -76s-135.333 -27 -216 -27z" />
    <glyph glyph-name="lamfinal" unicode="&#x644;" horiz-adv-x="1368" arabic-form="final" 
d="M492 -264c-95.333 0 -174.332 16.167 -236.999 48.5s-111.334 74.833 -146.001 127.5s-56.5 112.834 -65.5 180.501s-7.33301 137.167 5 208.5s34.333 141.166 66 209.499s70.834 129.833 117.501 184.5l101 14c-24.667 -70 -39 -137 -43 -201s0.833008 -122 14.5 -174
s35.167 -95.833 64.5 -131.5s65.333 -60.167 108 -73.5s91.167 -13.5 145.5 -0.5s113.166 42.167 176.499 87.5l-1 884l356 209v-820h228v-356h-291c-21.333 -59.333 -49 -113.333 -83 -162s-75.167 -90.5 -123.5 -125.5s-105 -62 -170 -81s-139.167 -28.5 -222.5 -28.5z
" />
    <glyph glyph-name="laminitial" unicode="&#x644;" horiz-adv-x="644" arabic-form="initial" 
d="M202 1100l357 209v-820l-76 -356h-498v356h217v611z" />
    <glyph glyph-name="lammedial" unicode="&#x644;" horiz-adv-x="744" arabic-form="medial" 
d="M207 1100l356 209v-820h196v-356h-770v356h218v611z" />
    <glyph glyph-name="meemisolated" unicode="&#x645;" horiz-adv-x="1169" arabic-form="isolated" 
d="M334 559c51.333 103.333 105.166 182.831 161.499 238.498s112.166 91.834 167.499 108.501s109 16.334 161 -0.999023s98.833 -47.333 140.5 -90s77.167 -95.667 106.5 -159s49 -132.166 59 -206.499s9.16699 -152 -2.5 -233s-37.5 -160.833 -77.5 -239.5l-580 156
c-40.667 13.333 -75.667 20.833 -105 22.5s-48.666 -5.83301 -57.999 -22.5c14.667 -46 28.334 -92.333 41.001 -139s21.334 -94 26.001 -142c5.33301 -60.667 2.5 -119.667 -8.5 -177s-24.5 -115 -40.5 -173h-27c-12 36.667 -27.833 78.167 -47.5 124.5l-63 146l-66.5 158
c-22 54.333 -40.833 107.666 -56.5 159.999s-27 102.833 -34 151.5s-6.5 93.334 1.5 134.001c8 44.667 24 80.5 48 107.5s50.833 47.167 80.5 60.5s60.167 20.666 91.5 21.999s58.666 -1 81.999 -7zM846 405.998c0 52 -9.33301 93.667 -28 125s-40.834 51 -66.501 59
s-52.167 3.5 -79.5 -13.5s-49.666 -47.833 -66.999 -92.5z" />
    <glyph glyph-name="meemfinal" unicode="&#x645;" horiz-adv-x="1323" arabic-form="final" 
d="M345 559c49.333 100.667 101.333 178.503 156 233.503s109 91.667 163 110s106.333 20.333 157 6s97 -40.833 139 -79.5s78.167 -87.334 108.5 -146.001s52.166 -123.334 65.499 -194.001h203v-356h-217c-7.33301 -26.667 -15.666 -53 -24.999 -79
s-20.666 -51.667 -33.999 -77l-580 156c-41.333 13.333 -76.5 21 -105.5 23s-48.5 -5.66699 -58.5 -23c15.333 -46 29.333 -92.333 42 -139s21.334 -94 26.001 -142c2.66699 -30 3.16699 -59.667 1.5 -89s-5 -58.5 -10 -87.5s-11 -58 -18 -87s-14.5 -57.833 -22.5 -86.5h-27
c-12 36.667 -27.833 78.167 -47.5 124.5l-63.5 146c-22.667 51 -44.834 103.667 -66.501 158s-40.5 107.666 -56.5 159.999s-27.333 102.833 -34 151.5s-6.33398 93.334 0.999023 134.001c8.66699 44.667 24.834 80.5 48.501 107.5s50.5 47.167 80.5 60.5
s60.667 20.666 92 21.999s58.666 -1 81.999 -7zM857 406.003c0 52 -9.33301 93.667 -28 125s-40.834 51 -66.501 59s-52.167 3.5 -79.5 -13.5s-49.666 -47.833 -66.999 -92.5z" />
    <glyph glyph-name="meeminitial" unicode="&#x645;" horiz-adv-x="1059" arabic-form="initial" 
d="M-16 489h198.001c58 118.667 117.5 211 178.5 277s120.833 110.5 179.5 133.5s115 27.333 169 13s102.333 -42.5 145 -84.5s78.667 -95.167 108 -159.5s49.166 -134.5 59.499 -210.5s9.5 -155.333 -2.5 -238s-38 -163.667 -78 -243l-580 156h-377v356zM737.001 406
c0 52 -9.33301 93.667 -28 125s-40.834 51 -66.501 59s-52.167 3.5 -79.5 -13.5s-49.666 -47.833 -66.999 -92.5z" />
    <glyph glyph-name="meemmedial" unicode="&#x645;" horiz-adv-x="1199" arabic-form="medial" 
d="M-15 489h197.999c56.667 116 114.834 206.833 174.501 272.5s118.334 110.667 176.001 135s113 30.5 166 18.5s101 -37.333 144 -76s79.667 -88.5 110 -149.5s51.833 -127.833 64.5 -200.5h200v-356h-217c-7.33301 -26.667 -15.833 -53 -25.5 -79
s-20.834 -51.667 -33.501 -77l-580 156h-377v356zM737.999 406c0 52 -9.33301 93.667 -28 125s-40.834 51 -66.501 59s-52.167 3.5 -79.5 -13.5s-49.666 -47.833 -66.999 -92.5z" />
    <glyph glyph-name="noonisolated" unicode="&#x646;" horiz-adv-x="1184" arabic-form="isolated" 
d="M486 -264c-95.333 0 -174.327 16.167 -236.994 48.5s-111.334 74.833 -146.001 127.5s-56.5 112.834 -65.5 180.501s-7.33301 137.167 5 208.5s34.333 141.166 66 209.499s70.834 129.833 117.501 184.5l101 14c-26 -74.667 -40.333 -145.834 -43 -213.501
s4.16602 -128 20.499 -181s41.666 -96.667 75.999 -131s75.666 -55.166 123.999 -62.499s103.166 0.833984 164.499 24.501s127 66.834 197 129.501l-130 416l265 230c48.667 -84.667 85 -172.834 109 -264.501s35.333 -181.334 34 -269.001s-15.833 -171 -43.5 -250
s-68.834 -148.167 -123.501 -207.5s-122.834 -106.5 -204.501 -141.5s-177.167 -52.5 -286.5 -52.5zM557.006 1236l212 -212l-212 -211l-211 211z" />
    <glyph glyph-name="noonfinal" unicode="&#x646;" horiz-adv-x="1313" arabic-form="final" 
d="M487 -264c-95.333 0 -174.33 16.165 -236.997 48.498s-111.334 74.833 -146.001 127.5s-56.5 112.834 -65.5 180.501s-7.33301 137.167 5 208.5s34.333 141.166 66 209.499s70.834 129.833 117.501 184.5l101 14c-26 -74.667 -40.333 -145.834 -43 -213.501
s4.16602 -128 20.499 -181s41.5 -96.667 75.5 -131s75.167 -55.166 123.5 -62.499s103.166 0.833984 164.499 24.501s127 66.834 197 129.501l-129 416l264 230c40 -68.667 71.667 -139.667 95 -213s38.333 -146.333 45 -219h185v-356h-227
c-21.333 -57.333 -49.833 -110.333 -85.5 -159s-78.834 -90.667 -129.501 -126s-109 -62.833 -175 -82.5s-140 -29.5 -222 -29.5zM557.003 1236l212 -212l-212 -211l-211 211z" />
    <glyph glyph-name="nooninitial" unicode="&#x646;" horiz-adv-x="779" arabic-form="initial" 
d="M-15 489h374.998c-12.667 40 -27.667 78.167 -45 114.5s-37.666 71.166 -60.999 104.499l304 204c44 -64 77.833 -127.167 101.5 -189.5s40.334 -125.166 50.001 -188.499s14 -128 13 -194s-4.16699 -135 -9.5 -207h-728v356zM291.998 1365l212 -212l-212 -211l-211 211z
" />
    <glyph glyph-name="noonmedial" unicode="&#x646;" horiz-adv-x="739" arabic-form="medial" 
d="M616 489h138v-356h-399l-30 113l-61 -113h-278v356h274l-60 221l302 206zM292 1365l212 -212l-212 -211l-211 211z" />
    <glyph glyph-name="hehisolated" unicode="&#x647;" horiz-adv-x="780" arabic-form="isolated" 
d="M430 133c-73.333 -2 -135.836 5.99805 -187.503 23.998s-93.167 43 -124.5 75s-53.166 69.333 -65.499 112s-15.666 87.834 -9.99902 135.501s19.5 96.334 41.5 146.001s51.667 97.5 89 143.5c20.667 26 43.334 49.167 68.001 69.5s50.334 37 77.001 50s54 21.5 82 25.5
s56 2.33301 84 -5c45.333 -11.333 85 -29.833 119 -55.5s62 -56 84 -91s38.167 -73.167 48.5 -114.5s14.666 -83.333 12.999 -126s-9.5 -84.667 -23.5 -126s-34.333 -79.5 -61 -114.5s-59.5 -65.5 -98.5 -91.5s-84.167 -45 -135.5 -57zM481.997 497.998
c0.666992 9.33301 0.165039 19.832 -1.50195 31.499s-4.66699 23.5 -9 35.5s-9.66602 23.5 -15.999 34.5s-13.5 20.5 -21.5 28.5c-12 12 -24.167 18.333 -36.5 19s-23.666 -2.33301 -33.999 -9s-19 -15.834 -26 -27.501s-11.5 -24.167 -13.5 -37.5s-1 -26.166 3 -38.499
s12 -22.666 24 -30.999s28.667 -13.5 50 -15.5s48.333 1.33301 81 10z" />
    <glyph glyph-name="hehfinal" unicode="&#x647;" horiz-adv-x="989" arabic-form="final" 
d="M1004 489l0.000976562 -355.998h-281l-56 164l-86 -236l-496 253c8.66699 64 21.667 125.667 39 185s42 113.666 74 162.999s72.667 92.666 122 129.999s110.666 66.333 183.999 87l230 125l150 -515h120zM623.001 446.002l-69 198l-139 -90z" />
    <glyph glyph-name="hehinitial" unicode="&#x647;" horiz-adv-x="1443" arabic-form="initial" 
d="M509 1098c127.333 -2.66699 239.832 -17.4971 337.499 -44.4971s182 -63.5 253 -109.5s129.333 -99.833 175 -161.5s80 -127.834 103 -198.501s35.5 -144.334 37.5 -221.001s-5 -153.334 -21 -230.001h-1403v356h150c0 33.333 6.16699 68.5 18.5 105.5
s28.333 74.333 48 112s42.334 75.167 68.001 112.5s52.167 73 79.5 107s54.333 65.667 81 95s51 55 73 77zM425.999 599.003c0 -15.333 3 -30 9 -44s14.167 -26.167 24.5 -36.5s22.5 -18.5 36.5 -24.5s28.667 -9 44 -9c16 0 30.833 3 44.5 9s25.667 14.167 36 24.5
s18.5 22.5 24.5 36.5s9 28.667 9 44c0 16 -3 30.833 -9 44.5s-14.167 25.667 -24.5 36s-22.333 18.5 -36 24.5s-28.5 9 -44.5 9c-15.333 0 -30 -3 -44 -9s-26.167 -14.167 -36.5 -24.5s-18.5 -22.333 -24.5 -36s-9 -28.5 -9 -44.5zM1089 489.003
c-6 20 -14 37.6689 -24 53.002s-21.333 29.166 -34 41.499s-26 23.666 -40 33.999l-42 31.5l-70 -160h210z" />
    <glyph glyph-name="hehmedial" unicode="&#x647;" horiz-adv-x="1139" arabic-form="medial" 
d="M-14 489l149.999 -0.00390625c36 84 77.667 158.667 125 224s97 121 149 167s104.167 81.5 156.5 106.5s101.833 39 148.5 42s88.667 -5.33301 126 -25s66.333 -51.667 87 -96s31.334 -101.166 32.001 -170.499s-12 -152 -38 -248h227v-356h-135
c13.333 -84.667 13.833 -157.167 1.5 -217.5s-33.333 -109.666 -63 -147.999s-66 -66.166 -109 -83.499s-88.667 -25.166 -137 -23.499s-97.5 12 -147.5 31s-96.667 46 -140 81s-81.5 77.167 -114.5 126.5s-56.833 105 -71.5 167l-116 -29v96h-131v356zM508.999 128.996
c31.333 -48.667 61 -84 89 -106s53.167 -35 75.5 -39s40.833 -1 55.5 9s24.667 23.167 30 39.5s5 33.5 -1 51.5s-18.833 33.167 -38.5 45.5s-46.667 19.333 -81 21s-77.5 -5.5 -129.5 -21.5zM429.999 488.996c44 0 82.501 6 115.501 18s60.333 26.667 82 44
s38.167 35.833 49.5 55.5s17.666 37.5 18.999 53.5s-2 28.333 -10 37s-20.667 10.667 -38 6c-22.667 -6 -47.167 -17.833 -73.5 -35.5s-50.5 -37.5 -72.5 -59.5s-40 -43.833 -54 -65.5s-20 -39.5 -18 -53.5z" />
    <glyph glyph-name="wawisolated" unicode="&#x648;" horiz-adv-x="829" arabic-form="isolated" 
d="M469 -242c-34.667 -12.667 -70.334 -19.5049 -107.001 -20.5049s-73.5 4.5 -110.5 16.5s-74 30.833 -111 56.5s-73.167 58.834 -108.5 99.501c160.667 35.333 298.667 109.666 414 222.999c-73.333 -2 -135.833 6 -187.5 24s-93.167 43 -124.5 75
s-53.166 69.333 -65.499 112s-15.833 87.834 -10.5 135.501s19.166 96.334 41.499 146.001s51.833 97.5 88.5 143.5c20.667 26 43.334 49.167 68.001 69.5s50.5 37 77.5 50s54.5 21.5 82.5 25.5s56 2.33301 84 -5s55.333 -20.5 82 -39.5s52 -45.5 76 -79.5
c34.667 -48.667 63 -104.667 85 -168s36.833 -129.333 44.5 -198s7.5 -137.667 -0.5 -207s-24.833 -134.166 -50.5 -194.499s-60.5 -113.666 -104.5 -159.999s-98.333 -81.166 -163 -104.499zM498 497.995c0.666992 9.33301 0.165039 19.832 -1.50195 31.499
s-4.66699 23.5 -9 35.5s-9.66602 23.5 -15.999 34.5s-13.5 20.5 -21.5 28.5c-12 12 -24.167 18.333 -36.5 19s-23.666 -2.33301 -33.999 -9s-19 -15.834 -26 -27.501s-11.5 -24.167 -13.5 -37.5s-1 -26.166 3 -38.499s12 -22.666 24 -30.999s28.667 -13.5 50 -15.5
s48.333 1.33301 81 10z" />
    <glyph glyph-name="wawfinal" unicode="&#x648;" horiz-adv-x="924" arabic-form="final" 
d="M779 489l159.997 -0.000976562v-356h-172c-20 -62.667 -45.333 -119.334 -76 -170.001s-65.5 -93.334 -104.5 -128.001s-81 -60.5 -126 -77.5s-91.5 -23.333 -139.5 -19s-96.667 20.333 -146 48s-97.666 68.834 -144.999 123.501
c160.667 35.333 298.667 109.666 414 222.999c-73.333 -2 -135.833 6 -187.5 24s-93.167 43 -124.5 75s-53.166 69.333 -65.499 112s-15.666 87.834 -9.99902 135.501s19.5 96.334 41.5 146.001s51.667 97.5 89 143.5c28 34.667 59 64.334 93 89.001s69.5 41.667 106.5 51
s74.333 9.5 112 0.5s73.667 -29.5 108 -61.5s66.333 -77.333 96 -136s55.167 -133 76.5 -223zM495.997 497.999c0.666992 9.33301 0.166992 19.835 -1.5 31.502s-4.66699 23.5 -9 35.5s-9.66602 23.5 -15.999 34.5s-13.5 20.5 -21.5 28.5c-16 15.333 -32 21.333 -48 18
s-29.333 -11.666 -40 -24.999s-17.834 -29.333 -21.501 -48s-1 -35.334 8 -50.001s25.333 -25.334 49 -32.001s57.167 -4.33398 100.5 6.99902z" />
    <glyph glyph-name="alefmaksuraisolated" unicode="&#x649;" horiz-adv-x="1159" arabic-form="isolated" 
d="M809 -205c-66 -33.333 -135.505 -55.1641 -208.505 -65.4971s-143.5 -8.83301 -211.5 4.5c-45.333 8.66699 -88.333 22.334 -129 41.001s-76.667 42.667 -108 72s-57.166 63.666 -77.499 102.999s-33 84 -38 134s-1.5 105.167 10.5 165.5s34.667 125.833 68 196.5
l302 140c-29.333 -50.667 -51.166 -102.334 -65.499 -155.001s-20.333 -102.167 -18 -148.5s13.333 -87.5 33 -123.5s49 -62.333 88 -79s88 -22 147 -16s128.833 28 209.5 66c-12 8.66699 -28.667 16.5 -50 23.5s-44.166 15.333 -68.499 25s-48.5 21.167 -72.5 34.5
s-44.333 30.666 -61 51.999s-28 47.166 -34 77.499s-3.66699 67.5 7 111.5c19.333 76.667 48.333 145.5 87 206.5s84.667 111.5 138 151.5c26.667 20 54.334 37 83.001 51s59 24.667 91 32c13.333 3.33301 29.333 5.16602 48 5.49902s37 -1 55 -4s34.5 -8 49.5 -15
s25.5 -16.167 31.5 -27.5l-67 -261c-16 2.66699 -33 6 -51 10s-35.667 6.33301 -53 7s-33.5 -2.16602 -48.5 -8.49902s-27.167 -18.5 -36.5 -36.5c-4 -8.66699 -4.33301 -17 -1 -25s8.83301 -15.667 16.5 -23s16.834 -14.5 27.501 -21.5s21.334 -13.167 32.001 -18.5l30 -15
c9.33301 -4.66699 16.333 -8.33398 21 -11.001c47.333 -30.667 81.166 -65.5 101.499 -104.5s30 -79.667 29 -122s-10.667 -85 -29 -128s-41.833 -83.667 -70.5 -122s-61.167 -73.166 -97.5 -104.499s-72.833 -56.333 -109.5 -75z" />
    <glyph glyph-name="alefmaksurafinal" unicode="&#x649;" horiz-adv-x="1239" arabic-form="final" 
d="M1261 489l-0.00390625 -355.998h-179c-13.333 -64 -36.666 -120.5 -69.999 -169.5s-73.166 -90.667 -119.499 -125s-97.5 -61.166 -153.5 -80.499s-113 -31.166 -171 -35.499s-115.167 -1.33301 -171.5 9s-108.166 28.166 -155.499 53.499s-88.333 58.166 -123 98.499
s-59.5 88.166 -74.5 143.499s-18 118 -9 188s33.5 147.667 73.5 233l302 140c-29.333 -50.667 -51.166 -102.334 -65.499 -155.001s-20.333 -102.167 -18 -148.5s13.333 -87.5 33 -123.5s49 -62.333 88 -79s88 -22 147 -16s128.833 28 209.5 66
c-28 25.333 -59.833 45.833 -95.5 61.5s-69.5 27.5 -101.5 35.5l115 260h539z" />
    <glyph glyph-name="yehisolated" unicode="&#x64a;" horiz-adv-x="1159" arabic-form="isolated" 
d="M809 -205c-66 -33.333 -135.505 -55.1641 -208.505 -65.4971s-143.5 -8.83301 -211.5 4.5c-45.333 8.66699 -88.333 22.334 -129 41.001s-76.667 42.667 -108 72s-57.166 63.666 -77.499 102.999s-33 84 -38 134s-1.5 105.167 10.5 165.5s34.667 125.833 68 196.5
l302 140c-29.333 -50.667 -51.166 -102.334 -65.499 -155.001s-20.333 -102.167 -18 -148.5s13.333 -87.5 33 -123.5s49 -62.333 88 -79s88 -22 147 -16s128.833 28 209.5 66c-12 8.66699 -28.667 16.5 -50 23.5s-44.166 15.333 -68.499 25s-48.5 21.167 -72.5 34.5
s-44.333 30.666 -61 51.999s-28 47.166 -34 77.499s-3.66699 67.5 7 111.5c19.333 76.667 48.333 145.5 87 206.5s84.667 111.5 138 151.5c26.667 20 54.334 37 83.001 51s59 24.667 91 32c13.333 3.33301 29.333 5.16602 48 5.49902s37 -1 55 -4s34.5 -8 49.5 -15
s25.5 -16.167 31.5 -27.5l-67 -261c-16 2.66699 -33 6 -51 10s-35.667 6.33301 -53 7s-33.5 -2.16602 -48.5 -8.49902s-27.167 -18.5 -36.5 -36.5c-4 -8.66699 -4.33301 -17 -1 -25s8.83301 -15.667 16.5 -23s16.834 -14.5 27.501 -21.5s21.334 -13.167 32.001 -18.5l30 -15
c9.33301 -4.66699 16.333 -8.33398 21 -11.001c47.333 -30.667 81.166 -65.5 101.499 -104.5s30 -79.667 29 -122s-10.667 -85 -29 -128s-41.833 -83.667 -70.5 -122s-61.167 -73.166 -97.5 -104.499s-72.833 -56.333 -109.5 -75zM370.995 -376.998l140 -139l140 139
l188 -188l-188 -188l-140 140l-140 -140l-188 188z" />
    <glyph glyph-name="yehfinal" unicode="&#x64a;" horiz-adv-x="1239" arabic-form="final" 
d="M1261 489l-0.00390625 -355.998h-179c-13.333 -64 -36.666 -120.5 -69.999 -169.5s-73.166 -90.667 -119.499 -125s-97.5 -61.166 -153.5 -80.499s-113 -31.166 -171 -35.499s-115.167 -1.33301 -171.5 9s-108.166 28.166 -155.499 53.499s-88.333 58.166 -123 98.499
s-59.5 88.166 -74.5 143.499s-18 118 -9 188s33.5 147.667 73.5 233l302 140c-29.333 -50.667 -51.166 -102.334 -65.499 -155.001s-20.333 -102.167 -18 -148.5s13.333 -87.5 33 -123.5s49 -62.333 88 -79s88 -22 147 -16s128.833 28 209.5 66
c-28 25.333 -59.833 45.833 -95.5 61.5s-69.5 27.5 -101.5 35.5l115 260h539zM370.996 -376.998l140 -139l140 139l188 -188l-188 -188l-140 140l-140 -140l-188 188z" />
    <glyph glyph-name="yehinitial" unicode="&#x64a;" horiz-adv-x="779" arabic-form="initial" 
d="M-15 489h374.998c-12.667 40 -27.667 78.167 -45 114.5s-37.666 71.166 -60.999 104.499l304 204c44 -64 77.833 -127.167 101.5 -189.5s40.334 -125.166 50.001 -188.499s14 -128 13 -194s-4.16699 -135 -9.5 -207h-728v356zM248.998 -10l140 -139l140 139l188 -188
l-188 -188l-140 140l-140 -140l-188 188z" />
    <glyph glyph-name="yehmedial" unicode="&#x64a;" horiz-adv-x="769" arabic-form="medial" 
d="M616 489h169v-356h-430l-30 113l-61 -113h-278v356h274l-60 221l302 206zM249 -10l140 -139l140 139l188 -188l-188 -188l-140 140l-140 -140l-188 188z" />
    <glyph glyph-name=".notdef" horiz-adv-x="582" 
d="M5 1257h485v-1107h-485v1107zM76 1186v-966h343v966h-343z" />
    <glyph glyph-name="space" unicode=" " horiz-adv-x="500" 
 />
    <glyph glyph-name="exclam" unicode="!" horiz-adv-x="513" 
d="M82 1149c-0.666992 4 3.66895 9.83301 13.002 17.5s21.666 16.5 36.999 26.5l51.5 32.5l57.5 34.5l55 32c17.333 10 31.666 19 42.999 27c16 -101.333 29 -187.5 39 -258.5s16.5 -131.5 19.5 -181.5s2.33301 -91 -2 -123s-12 -59.667 -23 -83s-26 -44 -45 -62
s-41.5 -37.333 -67.5 -58zM258.003 500l199 -200l-199 -198l-199 198z" />
    <glyph glyph-name="quotedbl" unicode="&#x22;" horiz-adv-x="618" 
d="M524 1313c-4 -55.333 -7.83203 -112.001 -11.499 -170.001s-7.66699 -113.167 -12 -165.5s-8.83301 -99.666 -13.5 -141.999s-9.33398 -75.5 -14.001 -99.5h-101l-26 471zM283.001 1313l-11.999 -170.001c-4 -58 -8.16699 -113.167 -12.5 -165.5
s-8.83301 -99.666 -13.5 -141.999s-9.33398 -75.5 -14.001 -99.5h-100l-26 471z" />
    <glyph glyph-name="numbersign" unicode="#" 
d="M514 1346l-51 -360h179l51 360h175l-51 -360h174l-24 -169h-174l-33 -225h176l-23 -169h-176l-52 -365h-176l53 365h-180l-52 -365h-175l52 365h-174l24 169h173l33 225h-175l24 169h175l51 360h176zM438 817l-32 -225h180l31 225h-179z" />
    <glyph glyph-name="dollar" unicode="$" 
d="M546 1493l0.00195312 -127.001c119.333 -6 212.666 -38.667 279.999 -98c74.667 -66 112 -159.667 112 -281h-236c0 68 -14.667 116.667 -44 146c-23.333 23.333 -60.666 37 -111.999 41v-348l23 -7c144 -41.333 246 -92.333 306 -153c60 -60 90 -142 90 -246
c0 -121.333 -41.333 -217.666 -124 -288.999c-74.667 -65.333 -173 -100.666 -295 -105.999v-179h-83v178c-130.667 8 -231.334 45 -302.001 111s-106 161.333 -106 286l1 32h250c-3.33301 -78.667 11.667 -136.667 45 -174c26.667 -29.333 64 -47.333 112 -54v385
c-131.333 41.333 -226.333 88.666 -285 141.999c-63.333 58 -95 135 -95 231c0 118 38.333 211.333 115 280c67.333 60 155.666 93.333 264.999 100v130h83zM463.002 1172c-38.667 -5.33301 -70.333 -18.332 -95 -38.999c-34 -28.667 -51 -69 -51 -121
c0 -43.333 19.333 -80 58 -110c22 -16.667 51.333 -32.334 88 -47.001v317zM546.003 224c47.333 4.66699 86 20.333 116 47c36.667 31.333 55 75.333 55 132c0 47.333 -16.333 86.333 -49 117c-25.333 24.667 -66 46 -122 64v-360z" />
    <glyph glyph-name="percent" unicode="%" horiz-adv-x="1137" 
d="M578 1190c-0.666992 4 3.83301 11.001 13.5 21.001s22.5 21.5 38.5 34.5l53.5 43c19.667 15.667 39.5 30.667 59.5 45l56.5 40.5l43.5 31c-26.667 -166 -52.167 -314 -76.5 -444s-48.5 -245 -72.5 -345s-48.167 -186.333 -72.5 -259s-49.5 -134.334 -75.5 -185.001
s-53.167 -92 -81.5 -124s-58.833 -57.667 -91.5 -77zM260 1175l199 -200l-199 -198l-199 198zM872 456.001l199 -200l-199 -198l-199 198z" />
    <glyph glyph-name="ampersand" unicode="&#x26;" horiz-adv-x="1331" 
d="M266 1063c0 97.333 31.3311 174.834 93.998 232.501s147.334 86.5 254.001 86.5c98 0 176 -28 234 -84s87 -131.667 87 -227c0 -71.333 -24.333 -135.333 -73 -192c-34 -40.667 -83 -80.667 -147 -120l195 -237l18 35c30 62.667 48 125.667 54 189h228
c-8.66699 -88.667 -35 -178.667 -79 -270c-22 -47.333 -47 -91.333 -75 -132l236 -284h-306l-90 108c-49.333 -44 -95.333 -75.667 -138 -95c-61.333 -28.667 -141 -43 -239 -43c-128 0 -229.833 33.5 -305.5 100.5s-113.5 157.5 -113.5 271.5
c0 97.333 29 179.666 87 246.999c40.667 48.667 105.334 99.667 194.001 153l-8 8c-32.667 39.333 -58.667 81.833 -78 127.5s-29 87.5 -29 125.5zM554.998 242.001c41.333 0 82 11.334 122 34.001c24.667 14.667 52 34.667 82 60l-81 97l-166 205
c-32.667 -23.333 -60.667 -46.333 -84 -69c-46 -47.333 -69 -98.333 -69 -153s17.333 -97.334 52 -128.001s82.667 -46 144 -46zM500.998 1082c0 -18.667 3.83301 -38 11.5 -58s18.167 -38 31.5 -54l53 -65c24.667 17.333 46 35 64 53c38 38.667 57 76.667 57 114
c0 36 -9.5 64.167 -28.5 84.5s-45.5 30.5 -79.5 30.5s-60.667 -9.33301 -80 -28c-19.333 -18 -29 -43.667 -29 -77z" />
    <glyph glyph-name="quotesingle" unicode="'" horiz-adv-x="366" 
d="M272 1313c-4 -55.333 -7.83203 -112.001 -11.499 -170.001s-7.66699 -113.167 -12 -165.5s-8.83301 -99.666 -13.5 -141.999s-9.33398 -75.5 -14.001 -99.5h-101l-26 471z" />
    <glyph glyph-name="parenleft" unicode="(" horiz-adv-x="534" 
d="M480 1579c-48.667 -122 -85.166 -248.832 -109.499 -380.499s-36.5 -267.834 -36.5 -408.501c0 -282.667 48.667 -546.334 146 -791.001l-230 -41c-54 140.667 -94 281.5 -120 422.5s-39 277.5 -39 409.5c0 64.667 3.16699 132.334 9.5 203.001
s16.166 142.5 29.499 215.5s30 146 50 219s43.667 144.5 71 214.5z" />
    <glyph glyph-name="parenright" unicode=")" horiz-adv-x="534" 
d="M276 1642c27.333 -70 51.001 -141.501 71.001 -214.501s36.667 -146 50 -219s23.166 -144.833 29.499 -215.5s9.5 -138.334 9.5 -203.001c0 -132 -13 -268.5 -39 -409.5s-66 -281.833 -120 -422.5l-230 41c97.333 244.667 146 508.334 146 791.001
c0 140.667 -12.167 276.834 -36.5 408.501s-60.833 258.5 -109.5 380.5z" />
    <glyph glyph-name="asterisk" unicode="*" horiz-adv-x="815" 
d="M374 1445h68l17 -213l163 139l49 -49l-140 -162l214 -18v-68l-214 -17l140 -163l-49 -48l-163 139l-17 -214h-68l-17 214l-164 -139l-47 48l139 163l-214 17v68l214 18l-139 162l47 49l164 -139z" />
    <glyph glyph-name="plus" unicode="+" horiz-adv-x="1076" 
d="M432 421h-358v212h358v358h212v-358h359v-212h-359v-358h-212v358z" />
    <glyph glyph-name="comma" unicode="," horiz-adv-x="512" 
d="M118 194l0.000976562 134h138h138v-231c0 -95.333 -22.5 -171.333 -67.5 -228s-114.5 -96.667 -208.5 -120v99c62 21.333 103.667 52 125 92c15.333 28 24.666 68 27.999 120h-70h-83v134z" />
    <glyph glyph-name="hyphenminus" unicode="-" horiz-adv-x="872" 
d="M718 378h-650l76 276h652z" />
    <glyph glyph-name="period" unicode="." horiz-adv-x="565" 
d="M290 500l199 -200l-199 -198l-199 198z" />
    <glyph glyph-name="slash" unicode="/" horiz-adv-x="512" 
d="M572 1419l-420 -1395h-212l420 1395h212z" />
    <glyph glyph-name="zero" unicode="0" horiz-adv-x="1019" 
d="M363 725c0 -139.333 11.999 -242 35.999 -308s60.667 -99 110 -99c50 0 87 33.333 111 100s36 169 36 307c0 137.333 -12.167 239.833 -36.5 307.5s-61.166 101.5 -110.499 101.5s-86 -33.333 -110 -100s-36 -169.667 -36 -309zM51.999 725
c-0.666992 52.667 2.33398 105.503 9.00098 158.503s17.334 103.833 32.001 152.5s34 94.167 58 136.5s53 79.166 87 110.499s73.5 56 118.5 74s95.833 27 152.5 27s107.5 -9 152.5 -27s84.333 -42.667 118 -74s62.334 -68 86.001 -110s43 -87.5 58 -136.5
s25.833 -100 32.5 -153s10 -105.833 10 -158.5c0 -52 -3.33301 -104.333 -10 -157s-17.5 -103.5 -32.5 -152.5s-34.333 -94.833 -58 -137.5s-52.334 -79.834 -86.001 -111.501s-72.834 -56.5 -117.501 -74.5s-95.667 -27 -153 -27c-56.667 0 -107.5 9 -152.5 27
s-84.5 42.667 -118.5 74s-63 68.166 -87 110.499s-43.333 88 -58 137s-25.334 100 -32.001 153s-9.66699 105.833 -9 158.5z" />
    <glyph glyph-name="one" unicode="1" horiz-adv-x="1019" 
d="M437 89v941l-206 -142l-93 221l304 254h295v-1274h-300z" />
    <glyph glyph-name="two" unicode="2" horiz-adv-x="1019" 
d="M943 89l-819.997 -0.00195312l-31 232l93 93l103.5 101.5l102.5 107.5c33.333 36.667 63.666 73.334 90.999 110.001s50.333 73.167 69 109.5s30.667 71.5 36 105.5c-2 30 -8.16699 55.5 -18.5 76.5s-23.333 38.333 -39 52s-33.5 23.667 -53.5 30s-41.333 9.5 -64 9.5
c-38 0 -78.333 -8.83301 -121 -26.5s-83 -42.167 -121 -73.5l-103 235c72 46.667 141.5 80.834 208.5 102.501s135.167 32.5 204.5 32.5c64 0 122.167 -11 174.5 -33s97 -51.5 134 -88.5s65.667 -79.833 86 -128.5s30.5 -100 30.5 -154
c0 -41.333 -6.33301 -81.666 -19 -120.999s-29.834 -77.333 -51.501 -114s-46.667 -72.334 -75 -107.001s-58.333 -68.167 -90 -100.5s-63.834 -63.333 -96.501 -93l-94 -84.5h464v-273z" />
    <glyph glyph-name="three" unicode="3" horiz-adv-x="1019" 
d="M133 1319c40 21.333 86.0039 37.834 138.004 49.501s105.333 17.5 160 17.5c54 0 106.667 -6.16699 158 -18.5s97.166 -31.833 137.499 -58.5s72.833 -60.667 97.5 -102s37 -91.333 37 -150c0 -54 -15 -105.833 -45 -155.5s-75.333 -93.5 -136 -131.5
c143.333 -75.333 215 -184.666 215 -327.999c0 -68 -14 -126.167 -42 -174.5s-64.833 -87.833 -110.5 -118.5s-97.667 -52.834 -156 -66.501s-117.833 -19.667 -178.5 -18s-119.834 10.334 -177.501 26.001s-108.834 37.834 -153.501 66.501l69 217
c32.667 -16.667 66.5 -30 101.5 -40s69.333 -17 103 -21s65.5 -4.33301 95.5 -1s56.5 10.166 79.5 20.499s41.167 24.666 54.5 42.999s20 40.5 20 66.5c0 20.667 -7.16699 41.667 -21.5 63s-35.833 40.666 -64.5 57.999s-64.834 31.5 -108.501 42.5
s-94.5 16.833 -152.5 17.5l-12 219c30 4 63.333 10.667 100 20s71.334 21.666 104.001 36.999s60.5 33.5 83.5 54.5s35.833 44.833 38.5 71.5c-2.66699 21.333 -9.33398 39.833 -20.001 55.5s-23.834 28.667 -39.501 39s-33.5 18 -53.5 23s-40.333 7.5 -61 7.5
c-30.667 0 -62.667 -4.66699 -96 -14s-64.666 -22.666 -93.999 -39.999z" />
    <glyph glyph-name="four" unicode="4" horiz-adv-x="1019" 
d="M544 649c0 26.667 0.166992 50.668 0.5 72.001s0.833008 42.166 1.5 62.499s1.16699 41.333 1.5 63s0.5 46.167 0.5 73.5l-55.5 -68l-53 -65.5l-54.5 -66.5l-59 -71h218zM543 89.001v280h-517v256l606 754h197v-730h119v-280h-119v-280h-286z" />
    <glyph glyph-name="five" unicode="5" horiz-adv-x="1019" 
d="M209 336c29.333 -11.333 57 -19.334 83 -24.001s50.333 -7 73 -7c36.667 0 71.5 4.66699 104.5 14s62 22.333 87 39s44.667 36.5 59 59.5s21.5 48.167 21.5 75.5c0 40.667 -10.167 72.5 -30.5 95.5s-47.833 40.333 -82.5 52s-74.834 18.834 -120.501 21.501
s-94.5 4 -146.5 4h-85l-2 697h694v-264h-429v-160c78.667 -3.33301 149.334 -15.5 212.001 -36.5s115.667 -50.333 159 -88s76.166 -83.5 98.499 -137.5s32.833 -115.333 31.5 -184c0.666992 -74 -14.166 -138.167 -44.499 -192.5s-70.5 -99 -120.5 -134
s-106.833 -61 -170.5 -78s-128.5 -25.5 -194.5 -25.5c-47.333 0 -95 4.83301 -143 14.5s-94.667 23.5 -140 41.5z" />
    <glyph glyph-name="six" unicode="6" horiz-adv-x="1019" 
d="M537 336c22.667 0 42.999 5.00098 60.999 15.001s33.167 22.667 45.5 38s21.666 32 27.999 50s9.83301 34.667 10.5 50c-4 34 -17.167 64 -39.5 90s-49 45.833 -80 59.5s-64 20.167 -99 19.5s-66.833 -10.334 -95.5 -29.001
c-7.33301 -30.667 -9.16602 -63.5 -5.49902 -98.5s12.5 -67 26.5 -96s33.333 -53 58 -72s54.334 -27.833 89.001 -26.5h1zM78.999 538.001c0 74.667 12.665 151.335 37.998 230.002s61.5 155.334 108.5 230.001s103.5 145.5 169.5 212.5s139.667 126.167 221 177.5
c9.33301 -10.667 20.833 -24.667 34.5 -42l42 -54l41.5 -53.5c13.333 -17 24.666 -30.5 33.999 -40.5c-68.667 -45.333 -127.667 -90.5 -177 -135.5s-88.666 -91.5 -117.999 -139.5c56.667 7.33301 113.334 3.66602 170.001 -11.001s107.5 -39.834 152.5 -75.501
s81.667 -81.5 110 -137.5s42.5 -121.333 42.5 -196c0 -64 -10.667 -122.667 -32 -176s-51.166 -99.333 -89.499 -138s-84 -68.667 -137 -90s-111.5 -32 -175.5 -32c-70 0 -132 11.667 -186 35s-99.5 55.666 -136.5 96.999s-65 90.833 -84 148.5s-28.5 121.167 -28.5 190.5z
" />
    <glyph glyph-name="seven" unicode="7" horiz-adv-x="1019" 
d="M218 147l361 957h-505v259h831l-9 -230l-414 -1085z" />
    <glyph glyph-name="eight" unicode="8" horiz-adv-x="1019" 
d="M376 1012c0 -18 5.16504 -35.6699 15.498 -53.0029s22.5 -32.666 36.5 -45.999s28.5 -23.666 43.5 -30.999s27.167 -9.33301 36.5 -6h-1c12.667 4.66699 25.834 10.834 39.501 18.501s26.167 17 37.5 28s20.833 23.5 28.5 37.5s11.5 29.667 11.5 47
c0 18 -3.66699 34.167 -11 48.5s-17.166 26.5 -29.499 36.5s-26.5 17.833 -42.5 23.5s-32.667 8.5 -50 8.5c-14.667 0 -29 -2.33301 -43 -7s-26.333 -11.5 -37 -20.5s-19.167 -20.667 -25.5 -35s-9.5 -30.833 -9.5 -49.5zM501.998 601.997
c-24.667 0 -46.333 -4.49902 -65 -13.499s-34.167 -20.5 -46.5 -34.5s-21.5 -29.833 -27.5 -47.5s-9 -35.834 -9 -54.501c0 -17.333 2.83301 -34.333 8.5 -51s14 -31.5 25 -44.5s24.833 -23.667 41.5 -32s36 -12.833 58 -13.5c25.333 0 48.333 2.33301 69 7
s38.5 12.834 53.5 24.501s26.5 27.5 34.5 47.5s12 45 12 75c0 6 -1.66699 16.667 -5 32s-10.5 30.666 -21.5 45.999s-26.5 29 -46.5 41s-47 18 -81 18zM508.999 1384c58.667 0 111.836 -10.832 159.503 -32.499s88.5 -49.667 122.5 -84s60.167 -73.5 78.5 -117.5
s27.5 -88.667 27.5 -134c0 -47.333 -10.5 -92.833 -31.5 -136.5s-54.5 -81.834 -100.5 -114.501c68 -38 117.167 -83 147.5 -135s45.5 -111.333 45.5 -178c0 -63.333 -12 -119.166 -36 -167.499s-56.333 -88.666 -97 -120.999s-88.334 -56.833 -143.001 -73.5
s-112.334 -25 -173.001 -25c-62.667 0 -121.334 8.16699 -176.001 24.5s-102.167 40.666 -142.5 72.999s-72.166 72.666 -95.499 120.999s-35 104.5 -35 168.5c0 31.333 4.33301 61.5 13 90.5s20.667 56.167 36 81.5s33.5 48.833 54.5 70.5s44.167 40.834 69.5 57.501
c-44 36.667 -76.667 78.834 -98 126.501s-32 96.167 -32 145.5c0 46 8.83301 90.667 26.5 134s43.667 81.666 78 114.999s76.666 60.166 126.999 80.499s108.5 30.5 174.5 30.5z" />
    <glyph glyph-name="nine" unicode="9" horiz-adv-x="1019" 
d="M475 1108c-23.333 0 -43.835 -5.16699 -61.502 -15.5s-32.5 -23 -44.5 -38s-21.333 -31.5 -28 -49.5s-10 -34.333 -10 -49c4 -34 17 -64 39 -90s48.333 -46 79 -60s63.334 -20.667 98.001 -20s66.334 10.334 95.001 29.001c8 31.333 10.333 64.5 7 99.5
s-12.166 67 -26.499 96s-33.833 52.667 -58.5 71s-54.334 27.166 -89.001 26.499zM933.998 906c0 -75.333 -12.834 -152.331 -38.501 -230.998s-62 -155.334 -109 -230.001s-103.833 -145.334 -170.5 -212.001s-140.667 -125.667 -222 -177l-41.5 54.5l-35.5 44.5l-34 42
l-37 48c68.667 45.333 127.334 90.666 176.001 135.999s87.334 91.666 116.001 138.999c-56.667 -7.33301 -113.167 -3.5 -169.5 11.5s-107 40.333 -152 76s-81.5 81.5 -109.5 137.5s-42 121 -42 195c0 64 10.667 122.833 32 176.5s51.166 99.834 89.499 138.501
s84 68.667 137 90s111.167 32 174.5 32c70 0 132.167 -11.667 186.5 -35s100 -55.666 137 -96.999s65 -91 84 -149s28.5 -121.333 28.5 -190z" />
    <glyph glyph-name="colon" unicode=":" horiz-adv-x="629" 
d="M324 500l199 -200l-199 -198l-199 198zM324 994l199 -200l-199 -198l-199 198z" />
    <glyph glyph-name="semicolon" unicode=";" horiz-adv-x="614" 
d="M169 195l-0.000976562 134h139h137v-201c0 -108 -22 -192.333 -66 -253s-112 -100.667 -204 -120v99c58.667 18 98 46.667 118 86c14.667 27.333 23.334 67.333 26.001 120h-67h-83v135zM168.999 1005h276v-268h-276v268z" />
    <glyph glyph-name="less" unicode="&#x3c;" horiz-adv-x="1076" 
d="M70 439v88v88l936 397v-204l-665 -280l665 -282v-204z" />
    <glyph glyph-name="equal" unicode="=" horiz-adv-x="956" 
d="M790 155h-712l59 234h712zM818 487h-712l59 234h712z" />
    <glyph glyph-name="greater" unicode="&#x3e;" horiz-adv-x="1076" 
d="M1006 439l-936 -397v204l665 282l-665 280v204l936 -397v-88v-88z" />
    <glyph glyph-name="question" unicode="?" horiz-adv-x="1126" 
d="M568 1188c-66 0 -115.333 -18.333 -148 -55s-50.334 -93 -53.001 -169h-256c4 138 46.333 246 127 324s190.667 117 330 117c140 0 251 -35 333 -105s123 -164.667 123 -284c0 -64 -19 -124 -57 -180s-101.333 -117.333 -190 -184
c-35.333 -26 -59.666 -54.167 -72.999 -84.5s-19 -70.166 -17 -119.499h-240c-2 84.667 12.167 156 42.5 214s83.5 113.667 159.5 167c36 24.667 61.5 51.167 76.5 79.5s22.5 64.166 22.5 107.499c0 52.667 -16.333 94.667 -49 126c-32 30.667 -75.667 46 -131 46zM432 317
h270v-257h-270v257z" />
    <glyph glyph-name="at" unicode="@" horiz-adv-x="1797" 
d="M1210 476c61.333 0 113.333 34.335 156 103.002s64 152.667 64 252c0 123.333 -48 227.5 -144 312.5s-213.333 127.5 -352 127.5c-150 0 -276.833 -53.333 -380.5 -160s-155.5 -237 -155.5 -391c0 -154.667 50.333 -285.334 151 -392.001s224.334 -160 371.001 -160
c90.667 0 175.167 14.667 253.5 44s135.833 68 172.5 116h163c-52.667 -92 -132.167 -166.333 -238.5 -223s-220.5 -85 -342.5 -85c-199.333 0 -367.5 67.667 -504.5 203s-205.5 301 -205.5 497c0 195.333 68.333 360.666 205 495.999s304 203 502 203
c183.333 0 338 -56.833 464 -170.5s189 -252.834 189 -417.501c0 -138 -47.167 -258.833 -141.5 -362.5s-203.833 -155.5 -328.5 -155.5c-40 0 -69.333 17.667 -88 53c-8 14 -13 28.333 -15 43c-60 -64 -125.333 -96 -196 -96c-86.667 0 -158.334 32 -215.001 96
s-84.667 145 -84 243c-0.666992 120 38.833 223.333 118.5 310s174.5 130 284.5 130c84.667 -0.666992 152.334 -37.667 203.001 -111l19 85h179l-120 -536c-3.33301 -15.333 -3.33301 -28.166 0 -38.499s8.66602 -15.5 15.999 -15.5zM928 910.002
c-58 0 -108.499 -25.1689 -151.499 -75.502s-64.5 -109.166 -64.5 -176.499c0 -51.333 13 -91 39 -119s63 -42 111 -42c48.667 0 92.667 19.333 132 58s65.666 88.334 78.999 149.001s6.5 110.167 -20.5 148.5s-68.5 57.5 -124.5 57.5z" />
    <glyph glyph-name="A" unicode="A" horiz-adv-x="1331" 
d="M37 60l468 1323h160h160l469 -1323h-147h-146l-89 269h-503l-87 -269h-142h-143zM661 1089l-175 -532h352z" />
    <glyph glyph-name="B" unicode="B" horiz-adv-x="1331" 
d="M140 60l0.00195312 1323h133h508c128 0 228 -29.5 300 -88.5s108 -141.167 108 -246.5c0 -110 -40.667 -193.333 -122 -250c-12.667 -9.33301 -27.334 -18 -44.001 -26c31.333 -12 59 -26.333 83 -43c84.667 -58.667 127 -143.667 127 -255
c0 -135.333 -41.833 -238.166 -125.5 -308.499s-205.834 -105.5 -366.501 -105.5h-468h-133zM405.002 1155v-289.999h316c68.667 0 120.167 12.833 154.5 38.5s51.5 64.5 51.5 116.5c0 45.333 -18 79.166 -54 101.499s-90.333 33.5 -163 33.5h-305zM405.002 642v-352.999
h336c72 0 126 15.667 162 47s54 78.666 54 141.999c0 54.667 -18.5 95.667 -55.5 123s-92.5 41 -166.5 41h-330z" />
    <glyph glyph-name="C" unicode="C" horiz-adv-x="1331" 
d="M1261 523c-16.667 -152.667 -76.499 -274 -179.499 -364s-234.167 -135 -393.5 -135c-186 0 -333.667 62.167 -443 186.5s-164 292.166 -164 503.499c0 216 54.667 387.5 164 514.5s257 190.5 443 190.5c157.333 0 287.666 -42.5 390.999 -127.5s164 -200.167 182 -345.5
h-277c-9.33301 72 -40.166 129 -92.499 171s-119.166 63 -200.499 63c-102.667 0 -183 -41 -241 -123s-87 -195.667 -87 -341c0 -141.333 28.833 -252.166 86.5 -332.499s138.167 -120.5 241.5 -120.5c81.333 0 148.166 23.5 200.499 70.5s83.166 110.167 92.499 189.5h277z
" />
    <glyph glyph-name="D" unicode="D" horiz-adv-x="1331" 
d="M140 60l-0.000976562 1323h138h428c182 0 320.333 -53.333 415 -160s142 -263 142 -469c0 -226.667 -49.167 -399 -147.5 -517s-242.166 -177 -431.499 -177h-406h-138zM416.999 288h233c112 0 196 37.833 252 113.5s84 189.5 84 341.5c0 137.333 -26 240.333 -78 309
s-130.667 103 -236 103h-255v-867z" />
    <glyph glyph-name="E" unicode="E" horiz-adv-x="1229" 
d="M140 60v1323h974v-117v-118h-697v-281h647v-113v-114h-647v-345h728v-117v-118h-1005z" />
    <glyph glyph-name="F" unicode="F" horiz-adv-x="1126" 
d="M140 60v1323h942v-117v-118h-665v-301h579v-113v-114h-579v-560h-138h-139z" />
    <glyph glyph-name="G" unicode="G" horiz-adv-x="1434" 
d="M709 24c-192.667 0 -345.498 62.1689 -458.498 186.502s-169.5 292.166 -169.5 503.499c0 216 58.833 387.5 176.5 514.5s276.5 190.5 476.5 190.5c161.333 0 294 -40.167 398 -120.5s164.667 -188.833 182 -325.5h-277c-7.33301 57.333 -39.833 107.666 -97.5 150.999
s-121.167 65 -190.5 65c-120 0 -214 -41.5 -282 -124.5s-102 -198.167 -102 -345.5c0 -150 32.667 -264.167 98 -342.5s160.666 -117.5 285.999 -117.5h-1c106.667 0 190 40.667 250 122c33.333 46.667 57.666 101 72.999 163v3h-311v228h554v-714h-185l-27 171l-16 -22
c-92.667 -124 -218.667 -186 -378 -186h1z" />
    <glyph glyph-name="H" unicode="H" horiz-adv-x="1331" 
d="M130 60v1323h138h139v-496h517v496h138h139v-1323h-138h-139v599h-517v-599h-138h-139z" />
    <glyph glyph-name="I" unicode="I" horiz-adv-x="512" 
d="M118 60v1323h138h138v-1323h-138h-138z" />
    <glyph glyph-name="J" unicode="J" 
d="M616 1383l137.999 0.000976562h139v-951c0 -134.667 -36 -236.334 -108 -305.001s-178.333 -103 -319 -103c-149.333 0 -258.833 37.833 -328.5 113.5s-102.167 192.167 -97.5 349.5v80h263v-80c-2 -80 10 -139.333 36 -178s67.333 -58 124 -58
c54.667 0 93.834 14 117.501 42s35.5 74.333 35.5 139v951z" />
    <glyph glyph-name="K" unicode="K" horiz-adv-x="1331" 
d="M160 60v1323h138h138v-548l507 548h177h176l-528 -541l563 -782h-181h-181l-398 582l-135 -137v-445h-137h-139z" />
    <glyph glyph-name="L" unicode="L" horiz-adv-x="1126" 
d="M140 60v1323h138h139v-1088h658v-117v-118h-935z" />
    <glyph glyph-name="M" unicode="M" horiz-adv-x="1535" 
d="M385 60h-129h-129v1323h202h203l241 -1049l238 1049h199h200v-1323h-128h-130v1112l-248 -1112h-135h-136l-248 1137v-1137z" />
    <glyph glyph-name="N" unicode="N" horiz-adv-x="1331" 
d="M385 60h-129h-129v1323h145h145l531 -928v928h128h130v-1323h-138h-137l-546 953v-953z" />
    <glyph glyph-name="O" unicode="O" horiz-adv-x="1434" 
d="M716 24c-194 0 -348.333 62.167 -463 186.5s-172 292.166 -172 503.499c0 216 57.333 387.5 172 514.5s269 190.5 463 190.5c196 0 351.167 -63.5 465.5 -190.5s171.5 -298.5 171.5 -514.5c0 -211.333 -57.167 -379.166 -171.5 -503.499s-269.5 -186.5 -465.5 -186.5z
M716 259c113.333 0 201.666 40.333 264.999 121s95 192.667 95 336c0 146.667 -31.667 261.334 -95 344.001s-151.666 124 -264.999 124c-112 0 -199.833 -41.333 -263.5 -124s-95.5 -197.334 -95.5 -344.001c0 -143.333 31.667 -255.333 95 -336s151.333 -121 264 -121z
" />
    <glyph glyph-name="P" unicode="P" horiz-adv-x="1229" 
d="M140 60v1323h138h416c150.667 0 265.334 -35.333 344.001 -106s118 -173.334 118 -308.001c0 -142.667 -39.333 -251.167 -118 -325.5s-193.334 -111.5 -344.001 -111.5c-106.667 0.666992 -199 0.333984 -277 -0.999023v-471h-138h-139zM417 760l230 0.000976562
c77.333 0 135.333 17.167 174 51.5s58 85.833 58 154.5c0 63.333 -19.333 110.666 -58 141.999s-96.667 47 -174 47h-230v-395z" />
    <glyph glyph-name="Q" unicode="Q" horiz-adv-x="1434" 
d="M1217 -36l-159 146c-94.667 -57.333 -208.667 -86 -342 -86c-194 0 -348.333 62.167 -463 186.5s-172 292.166 -172 503.499c0 216 57.333 387.5 172 514.5s269 190.5 463 190.5c196 0 351.167 -63.5 465.5 -190.5s171.5 -298.5 171.5 -514.5
c0 -191.333 -46.667 -346.666 -140 -465.999l144 -135zM729 414l138.999 148l145 -132c42 74 63 169.333 63 286c0 146.667 -31.667 261.334 -95 344.001s-151.666 124 -264.999 124c-112 0 -199.833 -41.333 -263.5 -124s-95.5 -197.334 -95.5 -344.001
c0 -143.333 31.667 -255.333 95 -336s151.333 -121 264 -121c55.333 -0.666992 105 9.33301 149 30z" />
    <glyph glyph-name="R" unicode="R" horiz-adv-x="1331" 
d="M140 60l-0.000976562 1323h138h529c126 0 227.667 -33.833 305 -101.5s116 -156.5 116 -266.5c0 -127.333 -43 -220.333 -129 -279c-22.667 -16 -48.667 -29.333 -78 -40c16.667 -6.66699 31.667 -13.667 45 -21c75.333 -45.333 114.333 -121 117 -227l7 -217
c1.33301 -43.333 5.83301 -74 13.5 -92s22.5 -32.333 44.5 -43v-35h-305c-7.33301 14 -13.666 43.5 -18.999 88.5s-8.33301 93.833 -9 146.5l-2 122c-0.666992 59.333 -18 101.666 -52 126.999s-90.333 38 -169 38h-275v-523h-138h-139zM416.999 805.001h320
c71.333 0 124.833 14.5 160.5 43.5s53.5 73.167 53.5 132.5c0 58 -16.833 101.5 -50.5 130.5s-84.5 43.5 -152.5 43.5h-331v-350z" />
    <glyph glyph-name="S" unicode="S" horiz-adv-x="1229" 
d="M858 986c-5.33301 63.333 -33.168 113.334 -83.501 150.001s-115.833 55 -196.5 55c-70.667 0 -125.667 -15.333 -165 -46s-59 -73.667 -59 -129c0 -40 20.667 -70.667 62 -92c40.667 -21.333 127.334 -47 260.001 -77c192.667 -42.667 321.334 -92.334 386.001 -149.001
c64.667 -56 97 -145.667 97 -269c0 -124 -48.833 -222.5 -146.5 -295.5s-229.834 -109.5 -396.501 -109.5c-168 0 -299 38.667 -393 116s-144.333 187.333 -151 330h266c3.33301 -70 29 -123.833 77 -161.5s115 -56.5 201 -56.5c88 0 156.667 14.167 206 42.5
s74 67.833 74 118.5c0 49.333 -17.667 86 -53 110c-34.667 23.333 -109 47.333 -223 72c-210 47.333 -350.333 98.333 -421 153c-70 54 -105 138 -105 252c0 128.667 46.5 230.667 139.5 306s218.5 113 376.5 113c148 0 268.5 -39 361.5 -117s144.833 -183.333 155.5 -316
h-269z" />
    <glyph glyph-name="T" unicode="T" horiz-adv-x="1126" 
d="M426 60v1088h-400v117v118h1076v-117v-118h-400v-1088h-138h-138z" />
    <glyph glyph-name="U" unicode="U" horiz-adv-x="1331" 
d="M1201 559c0 -189.333 -41.834 -325.835 -125.501 -409.502s-219.834 -125.5 -408.501 -125.5c-181.333 0 -315.666 43.667 -402.999 131s-131.333 222 -132 404v824h138h139v-833c0 -95.333 21.333 -166.666 64 -213.999s107.334 -71 194.001 -71
c92 0 157.833 21.833 197.5 65.5s59.5 116.834 59.5 219.501v833h138h139v-824z" />
    <glyph glyph-name="V" unicode="V" horiz-adv-x="1229" 
d="M35 1383h147h146l291 -1011l290 1011h142h143l-448 -1323h-131h-132z" />
    <glyph glyph-name="W" unicode="W" horiz-adv-x="1740" 
d="M398 60l-368 1323h144h144l220 -968l189 968h147h147l192 -960l220 960h139h140l-368 -1323h-132h-131l-213 1041l-207 -1041h-132h-131z" />
    <glyph glyph-name="X" unicode="X" horiz-adv-x="1229" 
d="M26 60l428 670l-399 653h163h164l233 -428l241 428h159h159l-403 -633l432 -690h-164h-166l-259 455l-261 -455h-163h-164z" />
    <glyph glyph-name="Y" unicode="Y" horiz-adv-x="1229" 
d="M490 558l-462 825h164h164l276 -574l258 574h157h156l-437 -820v-503h-138h-138v498z" />
    <glyph glyph-name="Z" unicode="Z" horiz-adv-x="1126" 
d="M46 292l686 856h-664v117v118h1012v-109v-109l-698 -870h696v-117v-118h-1032v116v116z" />
    <glyph glyph-name="bracketleft" unicode="[" horiz-adv-x="614" 
d="M116 -305v1697h454v-177h-224v-1342h224v-178h-454z" />
    <glyph glyph-name="backslash" unicode="\" horiz-adv-x="512" 
d="M356 24l-416 1395h216l416 -1395h-216z" />
    <glyph glyph-name="bracketright" unicode="]" horiz-adv-x="614" 
d="M498 -305h-454v178h223v1342h-223v177h454v-1697z" />
    <glyph glyph-name="underscore" unicode="_" 
d="M0 -170v94h1025v-94h-1025z" />
    <glyph glyph-name="grave" unicode="`" horiz-adv-x="614" 
d="M229 1174l-270 267h282l174 -267h-186z" />
    <glyph glyph-name="a" unicode="a" 
d="M355 35c-90.667 0 -163.668 25.832 -219.001 77.499s-83 119.834 -83 204.501c0 89.333 24.833 161 74.5 215s122.5 87.667 218.5 101l170 24c44 6 80.667 16 110 30c12.667 6 22.5 16.833 29.5 32.5s9.5 31.5 7.5 47.5c-3.33301 28 -17.333 49.667 -42 65
c-29.333 18.667 -71.666 28 -126.999 28c-49.333 0 -87.833 -12 -115.5 -36s-42.167 -58 -43.5 -102h-248c5.33301 114.667 44.333 200.5 117 257.5s179.334 85.5 320.001 85.5c121.333 0 217.333 -25.667 288 -77s106 -121.333 106 -210v-547
c0 -44 3.66699 -74.833 11 -92.5s21.666 -31.5 42.999 -41.5v-1v-35h-140h-139c-11.333 39.333 -19 78 -23 116v2c-81.333 -96 -186.333 -144 -315 -144zM664.999 421.999l-0.000976562 112c-30 -16.667 -69.667 -30 -119 -40l-95 -18
c-45.333 -8.66699 -79.666 -24.167 -102.999 -46.5s-35 -50.833 -35 -85.5c0 -38.667 10.5 -69.167 31.5 -91.5s50.5 -33.5 88.5 -33.5c82.667 0 148.667 29.333 198 88c9.33301 11.333 17.333 28 24 50s10 43.667 10 65z" />
    <glyph glyph-name="b" unicode="b" horiz-adv-x="1126" 
d="M112 1383h129h130v-472l5 8c70 97.333 162 146 276 146c124 0 223.833 -45.833 299.5 -137.5s113.5 -212.5 113.5 -362.5c0 -159.333 -37.833 -287.5 -113.5 -384.5s-175.5 -145.5 -299.5 -145.5c-114 0 -206 45.667 -276 137l-11 14v-126h-253v1323zM578 247
c69.333 0 123.5 26 162.5 78s58.5 124 58.5 216c0 94.667 -19.5 168.5 -58.5 221.5s-92.833 79.5 -161.5 79.5c-69.333 0 -123.5 -27.333 -162.5 -82s-58.5 -130.667 -58.5 -228c0 -89.333 19.667 -159 59 -209c38 -50.667 91.667 -76 161 -76z" />
    <glyph glyph-name="c" unicode="c" 
d="M966 423c-13.333 -122 -58.665 -217.166 -135.998 -285.499s-178.333 -102.5 -303 -102.5c-148 0 -262.333 44 -343 132s-121 213.667 -121 377c0 160 41.833 286.833 125.5 380.5s196.5 140.5 338.5 140.5c126 0 229.333 -34.833 310 -104.5
s123.667 -161.167 129 -274.5h-263c-2.66699 48.667 -20 88 -52 118s-73.333 45 -124 45c-64.667 0 -114 -25.833 -148 -77.5s-51 -127.5 -51 -227.5c0 -97.333 17 -171.333 51 -222s83.333 -76 148 -76c47.333 0 87.166 16.167 119.499 48.5s51.166 75.166 56.499 128.499
h263z" />
    <glyph glyph-name="d" unicode="d" horiz-adv-x="1126" 
d="M480 35c-125.333 0 -226.168 48.5 -302.501 145.5s-114.5 225.167 -114.5 384.5c0 150 38.167 270.833 114.5 362.5s176.5 137.5 300.5 137.5c110.667 0 200 -46.667 268 -140l11 -15v473h129h129v-1323h-125h-125v125l-5 -6c-71.333 -96 -164.666 -144 -279.999 -144z
M548.998 842c-69.333 0 -123.5 -26.499 -162.5 -79.499s-58.5 -126.833 -58.5 -221.5c0 -92 19.5 -164 58.5 -216s92.833 -78 161.5 -78c69.333 0 123.5 27.333 162.5 82s58.5 130.667 58.5 228c0 89.333 -19.5 159.166 -58.5 209.499s-92.833 75.5 -161.5 75.5z" />
    <glyph glyph-name="e" unicode="e" 
d="M508 35c-149.333 0 -264.33 45.8311 -344.997 137.498s-121 222.5 -121 392.5c0 156.667 41.167 279.167 123.5 367.5s196.5 132.5 342.5 132.5c149.333 0 264.333 -45.167 345 -135.5s121 -218.833 121 -385.5c1.33301 -19.333 -0.333984 -38.666 -5.00098 -57.999h-667
c6 -77.333 23.333 -135.333 52 -174c36 -48 96 -72 180 -72c38.667 0 74.667 11.167 108 33.5s53.333 48.833 60 79.5h263c-22.667 -99.333 -74.334 -177.166 -155.001 -233.499s-181.334 -84.5 -302.001 -84.5zM705.003 649.998c-6 59.333 -21.667 105.333 -47 138
c-33.333 44 -84.666 66 -153.999 66c-66.667 0 -117.334 -25.667 -152.001 -77c-22 -32 -37.667 -74.333 -47 -127h400z" />
    <glyph glyph-name="f" unicode="f" horiz-adv-x="614" 
d="M419 858v-798h-128h-130v798h-143v181h143v82c0 94 25 164.167 75 210.5s126 69.5 228 69.5c46 0.666992 86.667 -1.33301 122 -6v-206h-82c-34 0 -56.667 -7 -68 -21s-17 -42.333 -17 -85v-44h167v-181h-167z" />
    <glyph glyph-name="g" unicode="g" horiz-adv-x="1126" 
d="M562 -143c72 0 123.998 17.501 155.998 52.501s48 92.833 48 173.5v121l-21 -32c-56.667 -78 -138.667 -117 -246 -117c-126.667 0 -229.167 45.667 -307.5 137s-117.5 212 -117.5 362c0 153.333 38 276.833 114 370.5s176.333 140.5 301 140.5
c109.333 0 194.333 -39.667 255 -119c11.333 -15.333 22 -32 32 -50v143h243v-927c0 -154.667 -38.333 -268.834 -115 -342.501s-196 -110.5 -358 -110.5c-133.333 0 -239.166 26 -317.499 78s-120.166 124 -125.499 216h280c2.66699 -34 18.167 -58.5 46.5 -73.5
s72.5 -22.5 132.5 -22.5zM552.998 842.001c-66.667 0 -119 -25.668 -157 -77.001s-57 -122.666 -57 -213.999c0 -89.333 19 -159 57 -209s90.333 -75 157 -75c67.333 0 120.166 25.5 158.499 76.5s57.5 121.5 57.5 211.5s-19.167 160.333 -57.5 211s-91.166 76 -158.499 76z
" />
    <glyph glyph-name="h" unicode="h" horiz-adv-x="1126" 
d="M120 60l0.00195312 1323h128h130v-468l21 29c63.333 80.667 155.666 121 276.999 121c103.333 0 184.166 -30.5 242.499 -91.5s87.5 -145.833 87.5 -254.5v-659h-129h-129v612c0 60.667 -13 105.5 -39 134.5s-66 43.5 -120 43.5c-68 0 -120.167 -20.333 -156.5 -61
s-54.5 -99.334 -54.5 -176.001v-553h-129h-129z" />
    <glyph glyph-name="i" unicode="i" horiz-adv-x="512" 
d="M130 60v979h128h130v-979h-129h-129zM127 1393h263v-240h-263v240z" />
    <glyph glyph-name="j" unicode="j" horiz-adv-x="512" 
d="M125 1039h129h129v-1086c0 -106 -22.833 -180.333 -68.5 -223s-125.167 -64 -238.5 -64l-71 1v206l32 -1c34.667 0 58 5.5 70 16.5s18 32.5 18 64.5v1086zM123 1393h263v-240h-263v240z" />
    <glyph glyph-name="k" unicode="k" 
d="M127 60v1323h129h129v-715l322 371h160h159l-354 -371l363 -608h-153h-154l-236 421l-107 -112v-309h-129h-129z" />
    <glyph glyph-name="l" unicode="l" horiz-adv-x="512" 
d="M127 60v1323h129h129v-1323h-129h-129z" />
    <glyph glyph-name="m" unicode="m" horiz-adv-x="1639" 
d="M118 60v979.001h122h124v-157c11.333 27.333 25.666 51.666 42.999 72.999c56.667 73.333 139.334 110 248.001 110c86.667 0 157.667 -29 213 -87c21.333 -22 38.333 -46.667 51 -74l31 51c53.333 73.333 131 110 233 110c106.667 0 190 -31.5 250 -94.5
s90 -150.167 90 -261.5v-649h-129h-130v575c0 73.333 -12 127.5 -36 162.5s-61 52.5 -111 52.5c-54 0 -95.333 -16.667 -124 -50s-43 -81 -43 -143v-597h-128h-130v617c0 59.333 -12.667 103 -38 131s-64 42 -116 42s-92 -16.667 -120 -50s-42 -81 -42 -143v-597h-129h-129z
" />
    <glyph glyph-name="n" unicode="n" horiz-adv-x="1126" 
d="M120 60l0.00195312 979.001h122h123v-145c10.667 17.333 22 34 34 50c63.333 80.667 155.666 121 276.999 121c103.333 0 184.166 -30.5 242.499 -91.5s87.5 -145.833 87.5 -254.5v-659h-129h-129v612c0 60.667 -13 105.5 -39 134.5s-66 43.5 -120 43.5
c-68 0 -120.167 -20.333 -156.5 -61s-54.5 -99.334 -54.5 -176.001v-553h-129h-129z" />
    <glyph glyph-name="o" unicode="o" horiz-adv-x="1126" 
d="M563 35c-152.667 0 -274.167 45.833 -364.5 137.5s-135.5 215.5 -135.5 371.5c0 160 45.167 286.833 135.5 380.5s211.833 140.5 364.5 140.5c154.667 0 277 -46.833 367 -140.5s135 -220.5 135 -380.5c0 -156 -45 -279.833 -135 -371.5s-212.333 -137.5 -367 -137.5z
M563 251c77.333 0 136 25.167 176 75.5s60 123.833 60 220.5c0 98.667 -20 173.667 -60 225s-98.667 77 -176 77c-76.667 0 -135 -25.667 -175 -77s-60 -126.333 -60 -225c0 -96.667 20 -170.167 60 -220.5s98.333 -75.5 175 -75.5z" />
    <glyph glyph-name="p" unicode="p" horiz-adv-x="1126" 
d="M114 1039h122.999h123v-145l17 25c69.333 97.333 161 146 275 146c124.667 0 224.667 -45.833 300 -137.5s113 -212.5 113 -362.5c0 -159.333 -37.667 -287.5 -113 -384.5s-175.333 -145.5 -300 -145.5c-113.333 0 -204.666 45.667 -273.999 137l-5 7v-502h-129h-130
v1362zM578.999 247c68.667 0 122.5 25.999 161.5 77.999s58.5 124 58.5 216c0 94.667 -19.333 168.5 -58 221.5s-92.334 79.5 -161.001 79.5c-69.333 0 -123.333 -27.333 -162 -82s-58 -130.667 -58 -228c0 -89.333 19.333 -159.166 58 -209.499s92.334 -75.5 161.001 -75.5
z" />
    <glyph glyph-name="q" unicode="q" horiz-adv-x="1126" 
d="M481 35c-125.333 0 -226.33 45.667 -302.997 137s-115 212 -115 362c0 160 39.667 288.5 119 385.5s183.666 145.5 312.999 145.5c106 0 191.333 -46.667 256 -140c11.333 -15.333 20.666 -31 27.999 -47v161h238v-1362h-129h-129v498
c-70.667 -94 -163.334 -140.667 -278.001 -140zM550.003 842c-70 0 -124.499 -26.499 -163.499 -79.499s-58.5 -126.833 -58.5 -221.5c0 -92 19.5 -164 58.5 -216s93.167 -78 162.5 -78s123.666 27.333 162.999 82s59 130.667 59 228c0 89.333 -19.5 159.166 -58.5 209.499
s-93.167 75.5 -162.5 75.5z" />
    <glyph glyph-name="r" unicode="r" horiz-adv-x="717" 
d="M118 60l0.000976562 979h122h124v-175c8.66699 18.667 18.667 37 30 55c60.667 97.333 139 146 235 146l59 -1v-263c-23.333 2 -49.333 3 -78 3c-78.667 0 -137.334 -19.5 -176.001 -58.5s-58 -98.167 -58 -177.5v-508h-129h-129z" />
    <glyph glyph-name="s" unicode="s" 
d="M674 746c0 37.333 -15.667 67.502 -47 90.502s-72.666 34.5 -123.999 34.5c-50 0 -88.833 -8.5 -116.5 -25.5s-41.5 -40.833 -41.5 -71.5c0 -22 15.667 -40.667 47 -56s87 -32 167 -50c158 -35.333 264 -74 318 -116c53.333 -42 80 -108 80 -198
c0 -96 -38.833 -173.167 -116.5 -231.5s-180.167 -87.5 -307.5 -87.5c-150.667 0 -266.667 28.833 -348 86.5s-124.666 141.5 -129.999 251.5h263c1.33301 -44.667 21.166 -79.834 59.499 -105.501s90.166 -38.5 155.499 -38.5c51.333 0 91.5 8.83301 120.5 26.5
s43.5 42.5 43.5 74.5c0 22 -14 41 -42 57c-28 14.667 -77.333 30 -148 46c-166 36.667 -276.667 75.667 -332 117c-56 41.333 -84 104.666 -84 189.999c0 97.333 36.167 175.833 108.5 235.5s167.5 89.5 285.5 89.5c133.333 0 240.833 -29.167 322.5 -87.5
s122.5 -135.5 122.5 -231.5h-256z" />
    <glyph glyph-name="t" unicode="t" horiz-adv-x="614" 
d="M570 55c-43.333 -4 -96.668 -6.00098 -160.001 -6.00098c-90.667 0 -156 16.333 -196 49s-60 86.334 -60 161.001v599h-136v181h136v264h258v-264h158v-181h-158v-556c0 -22.667 6.83301 -37.667 20.5 -45s41.834 -11 84.501 -11h53v-191z" />
    <glyph glyph-name="u" unicode="u" horiz-adv-x="1126" 
d="M380 1039v-613.001c0 -60 12.833 -104.333 38.5 -133s65.167 -43 118.5 -43c67.333 0 119 20.333 155 61s54 99.334 54 176.001v552h129h129v-979h-122h-123v147c-9.33301 -18 -20.333 -35 -33 -51c-63.333 -80.667 -155.333 -121 -276 -121
c-103.333 0 -184 30.333 -242 91s-87 145 -87 253v660h129h130z" />
    <glyph glyph-name="v" unicode="v" 
d="M24 1039h142h144l208 -730l211 730h136h136l-354 -979h-134h-135z" />
    <glyph glyph-name="w" unicode="w" horiz-adv-x="1434" 
d="M302 60l-284 979h137h137l156 -719l147 719h129h129l145 -721l159 721h130h130l-283 -979h-131h-133l-150 729l-154 -729h-131h-133z" />
    <glyph glyph-name="x" unicode="x" 
d="M28 60l333 500l-320 479h156h156l164 -289l165 289h150h152l-319 -483l332 -496h-158h-160l-170 299l-170 -299h-155h-156z" />
    <glyph glyph-name="y" unicode="y" 
d="M994 1039l-351 -1000c-56.667 -164.667 -105.167 -268 -145.5 -310s-111.833 -63 -214.5 -63l-124 2v207c6 -2 22.667 -3 50 -3c68.667 0 113.667 14 135 42c13.333 18 26.333 55.333 39 112l-365 1013h142h143l214 -726l207 726h135h135z" />
    <glyph glyph-name="z" unicode="z" horiz-adv-x="922" 
d="M37 261l496 567l6 7h-465v102v102h788v-105v-106l-489 -557h512v-105v-106h-848v100v101z" />
    <glyph glyph-name="braceleft" unicode="{" horiz-adv-x="717" 
d="M673 -304c-142.667 -8.66699 -247 10.499 -313 57.499s-99 126.167 -99 237.5v239c0 96.667 -9 157 -27 181s-66.667 41 -146 51v164c79.333 10 128 27 146 51s27 84.333 27 181v240c0 110.667 33 189.5 99 236.5s170.333 66.167 313 57.5v-166
c-83.333 5.33301 -134.666 -1.83398 -153.999 -21.501s-29 -73.167 -29 -160.5v-240c0 -96 -29 -165.667 -87 -209c-26 -19.333 -62.333 -36.666 -109 -51.999c46.667 -13.333 83 -30 109 -50c58 -43.333 87 -113 87 -209v-239c0 -88 9.66699 -141.667 29 -161
s70.666 -26.666 153.999 -21.999v-166z" />
    <glyph glyph-name="bar" unicode="|" horiz-adv-x="516" 
d="M155 -401v1843h206v-1843h-206z" />
    <glyph glyph-name="braceright" unicode="}" horiz-adv-x="717" 
d="M44 -304v166c83.333 -4.66699 134.833 2.66602 154.5 21.999s29.5 73 29.5 161v239c0 96 28.667 165.667 86 209c26.667 20 63 36.667 109 50c-46 15.333 -82.333 32.666 -109 51.999c-57.333 43.333 -86 113 -86 209v240c0 87.333 -9.83301 140.833 -29.5 160.5
s-71.167 26.834 -154.5 21.501v166c142.667 8.66699 247 -10.5 313 -57.5s99 -125.833 99 -236.5v-240c0 -96.667 9 -157 27 -181s66.667 -41 146 -51v-164c-79.333 -10 -128 -27 -146 -51s-27 -84.333 -27 -181v-239c0 -111.333 -33 -190.666 -99 -237.999
c-66 -46.667 -170.333 -65.667 -313 -57z" />
    <glyph glyph-name="asciitilde" unicode="~" horiz-adv-x="1076" 
d="M112 523c21.333 49.333 52.667 88.667 94 118s86.666 44 135.999 44c31.333 0 64.666 -5.33301 99.999 -16s80.333 -29 135 -55c37.333 -17.333 70.333 -31.166 99 -41.499s48.667 -15.5 60 -15.5c28.667 0 55.834 10.833 81.501 32.5s51.834 56.167 78.501 103.5
l68 -164c-27.333 -49.333 -61.666 -88.5 -102.999 -117.5s-83.666 -43.5 -126.999 -43.5c-32.667 0 -66.5 6.16699 -101.5 18.5s-79.5 33.833 -133.5 64.5c-24 13.333 -51 24.166 -81 32.499s-58 12.5 -84 12.5c-28.667 0 -57.834 -13.333 -87.501 -40
s-51.834 -58.667 -66.501 -96z" />
    <glyph glyph-name="delete" horiz-adv-x="1600" 
d="M572 425c0 -84 -18.667 -151.666 -56 -202.999c-30.667 -42.667 -71.667 -70.334 -123 -83.001c-27.333 -6.66699 -59 -10 -95 -10h-211v586h202c45.333 0 80 -2.66699 104 -8c74.667 -17.333 126.667 -64.666 156 -141.999c15.333 -40.667 23 -87.334 23 -140.001z
M492 427.001c0 111.333 -34.667 180.333 -104 207c-20.667 8 -54 12 -100 12h-124v-448h126c68 0 115.667 13.667 143 41c39.333 39.333 59 102 59 188zM1080 129.001h-438v586h424v-69h-346v-179h324v-69h-324v-200h360v-69zM1520 129.001h-366v586h78v-517h288v-69z" />
    <glyph glyph-name="copyright" unicode="&#xa9;" horiz-adv-x="1484" 
d="M741 1424c89.333 0 172.333 -15.8311 249 -47.498s145.667 -78.167 207 -139.5c60.667 -60 107 -129.167 139 -207.5s48 -160.833 48 -247.5c0 -84.667 -16.333 -165.834 -49 -243.501s-78 -145.834 -136 -204.501c-63.333 -60 -134.833 -107.167 -214.5 -141.5
s-160.834 -51.5 -243.501 -51.5c-84.667 0 -165.5 16.167 -242.5 48.5s-146.167 79.833 -207.5 142.5c-62 61.333 -109 130.333 -141 207s-48 157.667 -48 243c0 84 16.833 165.5 50.5 244.5s80.167 149.5 139.5 211.5c60.667 60 129.334 106 206.001 138s157.667 48 243 48
zM1315 782.002c0 78.667 -14 152.666 -42 221.999s-68.667 131 -122 185c-56 54.667 -118.5 96.334 -187.5 125.001s-142.5 43 -220.5 43c-77.333 0 -150 -14 -218 -42s-129 -69 -183 -123c-56 -56 -98.833 -119.167 -128.5 -189.5s-44.5 -143.833 -44.5 -220.5
c0 -75.333 14.5 -147.5 43.5 -216.5s71.167 -131.167 126.5 -186.5c55.333 -54.667 117.333 -96.5 186 -125.5s141.334 -43.5 218.001 -43.5c75.333 0 147.666 14.5 216.999 43.5s133 71.5 191 127.5c54 52.667 94.833 113 122.5 181s41.5 141.333 41.5 220zM927 950.001
c-8.66699 46.667 -29.1699 81.833 -61.5029 105.5s-74.833 35.5 -127.5 35.5c-32 0 -60.833 -7 -86.5 -21s-47.5 -34.333 -65.5 -61s-31.667 -59.167 -41 -97.5s-14 -81.5 -14 -129.5c0 -47.333 4.83301 -89.666 14.5 -126.999s23.834 -68.833 42.501 -94.5
s41.167 -45.334 67.5 -59.001s56.5 -20.5 90.5 -20.5c50.667 0 92.5 13.5 125.5 40.5s54.167 65.167 63.5 114.5h111c-3.33301 -36 -12.666 -67.667 -27.999 -95s-36.666 -52.333 -63.999 -75c-55.333 -46.667 -126.333 -70 -213 -70c-104 0 -185.667 34.667 -245 104
c-59.333 68 -89 164 -89 288c0 116 31 208.667 93 278c62 70 144 105 246 105c82 0 149.667 -21.333 203 -64c25.333 -20.667 45.833 -43.5 61.5 -68.5s25.167 -54.5 28.5 -88.5h-112z" />
    <glyph glyph-name="guillemotleft" unicode="&#xab;" horiz-adv-x="782" 
d="M382 855h102l-50.5 -98.5l-53 -104l-53 -104l-50.5 -98.5l202 -390h-105l-278 390zM606 855h102l-26 -50.5l-39 -76.5l-58 -114.5l-82 -163.5l200 -390h-106l-274 390z" />
    <glyph glyph-name="registered" unicode="&#xae;" horiz-adv-x="1484" 
d="M741 1424c88 0 171 -16.168 249 -48.501s147.667 -79.833 209 -142.5c60 -60.667 105.833 -129.667 137.5 -207s47.5 -158.666 47.5 -243.999c0 -87.333 -15.833 -169.333 -47.5 -246s-78.167 -144.667 -139.5 -204c-63.333 -62 -134.166 -109.333 -212.499 -142
s-159.5 -49 -243.5 -49c-85.333 0 -166.5 16.333 -243.5 49s-146.5 80.667 -208.5 144c-61.333 61.333 -107.833 130.333 -139.5 207s-47.5 157 -47.5 241c0 85.333 16.667 167.5 50 246.5s81.333 150.5 144 214.5c58.667 59.333 125.667 104.333 201 135
s156.666 46 243.999 46zM1315 776.999c0 80.667 -13.668 155.669 -41.001 225.002s-67.666 131 -120.999 185c-56 56 -118.5 98.333 -187.5 127s-143.167 43 -222.5 43c-76.667 0 -149.5 -14.333 -218.5 -43s-129.167 -68.667 -180.5 -120
c-54 -56.667 -96.667 -120.834 -128 -192.501s-47 -144.834 -47 -219.501s14.5 -146.334 43.5 -215.001s70.5 -130.667 124.5 -186s115.667 -97.666 185 -126.999s141.333 -44 216 -44c78 0 151.5 14.167 220.5 42.5s132.5 70.5 190.5 126.5
c54 52 95.167 112.167 123.5 180.5s42.5 140.833 42.5 217.5zM758.999 1155c199.333 0 299 -64.334 299 -193.001c0 -50.667 -15.167 -92.667 -45.5 -126s-72.833 -55.666 -127.5 -66.999l82 -166l82 -167h-136l-151 314h-150v-314h-122v719h269zM611.999 1083
l0.000976562 -262.001h126c69.333 0 119.166 9.83301 149.499 29.5s45.5 51.834 45.5 96.501c0 48 -15.667 82.667 -47 104s-82 32 -152 32h-122z" />
    <glyph glyph-name="dagger" unicode="&#xb0;" horiz-adv-x="1006" 
d="M521 1048l456 -457l-456 -456l-457 456zM140 591l381 -380l380 380l-380 381zM521 809l217 -218l-217 -217l-217 217z" />
    <glyph glyph-name="daggerdbl" unicode="&#xb1;" horiz-adv-x="1011" 
d="M519 1043l237 -172l236 -171l-90 -279l-90 -277h-585l-90 277l-91 279l237 171zM686 321l166 122l-63 196l-64 196h-412l-63 -196l-64 -196l167 -122l166 -120zM611 671l93 -66l-36 -108l-35 -109h-227l-70 217l91 66l92 67z" />
    <glyph glyph-name="paragraph" unicode="&#xb6;" horiz-adv-x="891" 
d="M830 1379h-105.999v-1229h-80v1229h-173v-1229h-82v690c-103.333 4 -184 33 -242 87c-57.333 54 -86 124.333 -86 211c0 43.333 8.16699 83.333 24.5 120s38.5 69 66.5 97c31.333 26.667 67.666 47.167 108.999 61.5s87 21.5 137 21.5h432v-59z" />
    <glyph glyph-name="nonbreakingspace" unicode="&#xb7;" horiz-adv-x="996" 
d="M516 130l-189 210l189 190l192 -190zM971 592l-205 -197l-189 197l189 189zM516 1045l187 -205l-187 -189l-189 189zM62 592l202 189l190 -189l-190 -189z" />
    <glyph glyph-name="periodcentered" unicode="&#xba;" horiz-adv-x="983" 
d="M282 921h447l113 -194l111 -193l-111 -194l-113 -194h-447l-112 194l-111 194l111 193zM327 843l-179 -309l89 -156l90 -154h358l89 154l89 156l-89 155l-89 154h-358zM389 736h234l58 -101l59 -101l-117 -203h-234l-116 203l57 101z" />
    <glyph glyph-name="guillemotright" unicode="&#xbb;" horiz-adv-x="782" 
d="M708 450l-278 -390h-105l202 390l-50.5 98.5l-53 104l-53 104l-50.5 98.5h102zM481 450l-274 -390h-106l200 390l-82 163.5l-58 114.5l-39 76.5l-26 50.5h102z" />
    <glyph glyph-name="questiondown" unicode="&#xbf;" horiz-adv-x="774" 
d="M81 821h675v-675h-675v675z" />
    <glyph glyph-name="multiply" unicode="&#xd7;" horiz-adv-x="1076" 
d="M538 378l-315 -315l-149 149l315 315l-315 315l149 149l315 -315l315 315l150 -149l-315 -315l315 -315l-150 -149z" />
    <glyph glyph-name="agrave" unicode="&#xe0;" 
d="M355 95c-90.667 0 -163.668 25.832 -219.001 77.499s-83 119.834 -83 204.501c0 89.333 24.833 161 74.5 215s122.5 87.667 218.5 101l170 24c44 6 80.667 16 110 30c12.667 6 22.5 16.833 29.5 32.5s9.5 31.5 7.5 47.5c-3.33301 28 -17.333 49.667 -42 65
c-29.333 18.667 -71.666 28 -126.999 28c-49.333 0 -87.833 -12 -115.5 -36s-42.167 -58 -43.5 -102h-248c5.33301 114.667 44.333 200.5 117 257.5s179.334 85.5 320.001 85.5c121.333 0 217.333 -25.667 288 -77s106 -121.333 106 -210v-547
c0 -44 3.66699 -74.833 11 -92.5s21.666 -31.5 42.999 -41.5v-1v-35h-140h-139c-11.333 39.333 -19 78 -23 116v2c-81.333 -96 -186.333 -144 -315 -144zM664.999 481.999l-0.000976562 112c-30 -16.667 -69.667 -30 -119 -40l-95 -18
c-45.333 -8.66699 -79.666 -24.167 -102.999 -46.5s-35 -50.833 -35 -85.5c0 -38.667 10.5 -69.167 31.5 -91.5s50.5 -33.5 88.5 -33.5c82.667 0 148.667 29.333 198 88c9.33301 11.333 17.333 28 24 50s10 43.667 10 65zM442.998 1234l-270 267h283l174 -267h-187z" />
    <glyph glyph-name="aacute" unicode="&#xe1;" 
d="M355 95c-90.667 0 -163.668 25.832 -219.001 77.499s-83 119.834 -83 204.501c0 89.333 24.833 161 74.5 215s122.5 87.667 218.5 101l170 24c44 6 80.667 16 110 30c12.667 6 22.5 16.833 29.5 32.5s9.5 31.5 7.5 47.5c-3.33301 28 -17.333 49.667 -42 65
c-29.333 18.667 -71.666 28 -126.999 28c-49.333 0 -87.833 -12 -115.5 -36s-42.167 -58 -43.5 -102h-248c5.33301 114.667 44.333 200.5 117 257.5s179.334 85.5 320.001 85.5c121.333 0 217.333 -25.667 288 -77s106 -121.333 106 -210v-547
c0 -44 3.66699 -74.833 11 -92.5s21.666 -31.5 42.999 -41.5v-1v-35h-140h-139c-11.333 39.333 -19 78 -23 116v2c-81.333 -96 -186.333 -144 -315 -144zM664.999 481.999l-0.000976562 112c-30 -16.667 -69.667 -30 -119 -40l-95 -18
c-45.333 -8.66699 -79.666 -24.167 -102.999 -46.5s-35 -50.833 -35 -85.5c0 -38.667 10.5 -69.167 31.5 -91.5s50.5 -33.5 88.5 -33.5c82.667 0 148.667 29.333 198 88c9.33301 11.333 17.333 28 24 50s10 43.667 10 65zM322.998 1234l152 267h283l-248 -267h-187z" />
    <glyph glyph-name="ccedilla" unicode="&#xe7;" 
d="M966 483c-13.333 -122 -58.665 -217.166 -135.998 -285.499s-178.333 -102.5 -303 -102.5c-148 0 -262.333 44 -343 132s-121 213.667 -121 377c0 160 41.833 286.833 125.5 380.5s196.5 140.5 338.5 140.5c126 0 229.333 -34.833 310 -104.5
s123.667 -161.167 129 -274.5h-263c-2.66699 48.667 -20 88 -52 118s-73.333 45 -124 45c-64.667 0 -114 -25.833 -148 -77.5s-51 -127.5 -51 -227.5c0 -97.333 17 -171.333 51 -222s83.333 -76 148 -76c47.333 0 87.166 16.167 119.499 48.5s51.166 75.166 56.499 128.499
h263zM550.001 119.001l-64 -98.0029l51 5c48.667 0 87.834 -13.167 117.501 -39.5s44.5 -61.166 44.5 -104.499c0 -55.333 -20.667 -99.5 -62 -132.5s-97.333 -49.5 -168 -49.5c-33.333 0 -69 4.33301 -107 13s-72.667 20.334 -104 35.001l40 87
c30 -10 57.667 -17.5 83 -22.5s45.333 -7.5 60 -7.5c24 0 44.333 6.83301 61 20.5s25 30.834 25 51.501c0 20 -6.83301 36.167 -20.5 48.5s-30.834 18.5 -51.501 18.5c-9.33301 0 -20.5 -1.5 -33.5 -4.5s-26.5 -6.83301 -40.5 -11.5l-39 38l101 153h107z" />
    <glyph glyph-name="egrave" unicode="&#xe8;" 
d="M508 95c-149.333 0 -264.33 45.8311 -344.997 137.498s-121 222.5 -121 392.5c0 156.667 41.167 279.167 123.5 367.5s196.5 132.5 342.5 132.5c149.333 0 264.333 -45.167 345 -135.5s121 -218.833 121 -385.5c1.33301 -19.333 -0.333984 -38.666 -5.00098 -57.999h-667
c6 -77.333 23.333 -135.333 52 -174c36 -48 96 -72 180 -72c38.667 0 74.667 11.167 108 33.5s53.333 48.833 60 79.5h263c-22.667 -99.333 -74.334 -177.166 -155.001 -233.499s-181.334 -84.5 -302.001 -84.5zM705.003 709.998c-6 59.333 -21.667 105.333 -47 138
c-33.333 44 -84.666 66 -153.999 66c-66.667 0 -117.334 -25.667 -152.001 -77c-22 -32 -37.667 -74.333 -47 -127h400zM458.003 1234l-270 267h283l174 -267h-187z" />
    <glyph glyph-name="eacute" unicode="&#xe9;" 
d="M508 95c-149.333 0 -264.33 45.8311 -344.997 137.498s-121 222.5 -121 392.5c0 156.667 41.167 279.167 123.5 367.5s196.5 132.5 342.5 132.5c149.333 0 264.333 -45.167 345 -135.5s121 -218.833 121 -385.5c1.33301 -19.333 -0.333984 -38.666 -5.00098 -57.999h-667
c6 -77.333 23.333 -135.333 52 -174c36 -48 96 -72 180 -72c38.667 0 74.667 11.167 108 33.5s53.333 48.833 60 79.5h263c-22.667 -99.333 -74.334 -177.166 -155.001 -233.499s-181.334 -84.5 -302.001 -84.5zM705.003 709.998c-6 59.333 -21.667 105.333 -47 138
c-33.333 44 -84.666 66 -153.999 66c-66.667 0 -117.334 -25.667 -152.001 -77c-22 -32 -37.667 -74.333 -47 -127h400zM416.003 1234l174 267h282l-270 -267h-186z" />
    <glyph glyph-name="ecircumflex" unicode="&#xea;" 
d="M508 95c-149.333 0 -264.33 45.8311 -344.997 137.498s-121 222.5 -121 392.5c0 156.667 41.167 279.167 123.5 367.5s196.5 132.5 342.5 132.5c149.333 0 264.333 -45.167 345 -135.5s121 -218.833 121 -385.5c1.33301 -19.333 -0.333984 -38.666 -5.00098 -57.999h-667
c6 -77.333 23.333 -135.333 52 -174c36 -48 96 -72 180 -72c38.667 0 74.667 11.167 108 33.5s53.333 48.833 60 79.5h263c-22.667 -99.333 -74.334 -177.166 -155.001 -233.499s-181.334 -84.5 -302.001 -84.5zM705.003 709.998c-6 59.333 -21.667 105.333 -47 138
c-33.333 44 -84.666 66 -153.999 66c-66.667 0 -117.334 -25.667 -152.001 -77c-22 -32 -37.667 -74.333 -47 -127h400zM641.003 1501l209 -267h-207l-117 150l-117 -150h-207l209 267h115h115z" />
    <glyph glyph-name="ocircumflex" unicode="&#xf4;" horiz-adv-x="1126" 
d="M563 95c-152.667 0 -274.167 45.833 -364.5 137.5s-135.5 215.5 -135.5 371.5c0 160 45.167 286.833 135.5 380.5s211.833 140.5 364.5 140.5c154.667 0 277 -46.833 367 -140.5s135 -220.5 135 -380.5c0 -156 -45 -279.833 -135 -371.5s-212.333 -137.5 -367 -137.5z
M563 311c77.333 0 136 25.167 176 75.5s60 123.833 60 220.5c0 98.667 -20 173.667 -60 225s-98.667 77 -176 77c-76.667 0 -135 -25.667 -175 -77s-60 -126.333 -60 -225c0 -96.667 20 -170.167 60 -220.5s98.333 -75.5 175 -75.5zM678 1501l209 -267h-207l-117 150
l-117 -150h-207l209 267h115h115z" />
    <glyph glyph-name="divide" unicode="&#xf7;" horiz-adv-x="1076" 
d="M538 307c46 0 84.833 -16 116.5 -48s47.5 -70.667 47.5 -116c0 -46 -15.833 -84.833 -47.5 -116.5s-70.5 -47.5 -116.5 -47.5c-45.333 0 -84 15.833 -116 47.5s-48 70.5 -48 116.5c0 45.333 16 84 48 116s70.667 48 116 48zM74 634h929v-214h-929v214zM538 1075
c46 0 84.833 -15.833 116.5 -47.5s47.5 -70.5 47.5 -116.5c0 -45.333 -15.833 -83.833 -47.5 -115.5s-70.5 -47.5 -116.5 -47.5c-45.333 0 -84 15.833 -116 47.5s-48 70.167 -48 115.5c0 46 16 84.833 48 116.5s70.667 47.5 116 47.5z" />
    <glyph glyph-name="oe" unicode="&#x153;" horiz-adv-x="1740" 
d="M543 1065c138.667 -0.666992 250.332 -42.3359 334.999 -125.003c82.667 82.667 194.667 124.334 336 125.001c149.333 0 264.333 -45.167 345 -135.5s121 -218.833 121 -385.5c1.33301 -19.333 0 -38.666 -4 -57.999h-652c6 -77.333 23.333 -135.333 52 -174
c36 -48 96.667 -72 182 -72c34 0 66 11.167 96 33.5s48 48.833 54 79.5h263c-22 -99.333 -73.333 -177.166 -154 -233.499s-181.667 -84.5 -303 -84.5c-141.333 -0.666992 -252.333 41 -333 125c-85.333 -84 -198 -125.667 -338 -125
c-147.333 0 -264.166 45.833 -350.499 137.5s-129.5 215.5 -129.5 371.5c0 160 43.333 287 130 381c86 93.333 202.667 140 350 140zM552.998 848.998c-73.333 0 -129.166 -25.667 -167.499 -77s-57.5 -126.333 -57.5 -225c0 -96.667 19.167 -170.167 57.5 -220.5
s94.166 -75.5 167.499 -75.5c72.667 0 128.167 25.167 166.5 75.5s57.5 123.833 57.5 220.5c0 98.667 -19.333 174 -58 226c-38 50.667 -93.333 76 -166 76zM1430 649.998c-6 59.333 -21.668 105.333 -47.001 138c-33.333 44 -85 66 -155 66
c-67.333 0 -118.666 -25.667 -153.999 -77c-22.667 -32 -38 -74.333 -46 -127h402z" />
    <glyph glyph-name="arabiccomma" unicode="&#x60c;" horiz-adv-x="483" 
d="M271 761c-5.33301 -72 -8.66504 -130.5 -9.99805 -175.5s2 -81.833 10 -110.5s21.667 -51.5 41 -68.5s47 -33.167 83 -48.5l-106 -251c-58.667 22 -102.334 49.667 -131.001 83s-47 69.333 -55 108s-7.33301 79.167 2 121.5s23.166 84 41.499 125
s38.833 80.167 61.5 117.5s43.667 70.333 63 99z" />
    <glyph glyph-name="arabicsemicolon" unicode="&#x61b;" horiz-adv-x="565" 
d="M271 1238c-5.33301 -72 -8.66504 -130.5 -9.99805 -175.5s2 -81.833 10 -110.5s21.667 -51.5 41 -68.5s47 -33.167 83 -48.5l-106 -251c-58.667 22 -102.334 49.667 -131.001 83s-47 69.333 -55 108s-7.33301 79.167 2 121.5s23.166 84 41.499 125
s38.833 80.167 61.5 117.5s43.667 70.333 63 99zM290.001 500l199 -200l-199 -198l-199 198z" />
    <glyph glyph-name="arabicquestionmark" unicode="&#x61f;" horiz-adv-x="660" 
d="M525 1015c-22 8 -43.166 14.832 -63.499 20.499s-39.333 9.66699 -57 12s-33.167 2.16602 -46.5 -0.500977s-23.333 -8.66699 -30 -18c-6 -8.66699 -6.5 -18.167 -1.5 -28.5s13.167 -21.833 24.5 -34.5l38.5 -42c14.333 -15.333 27.666 -32.333 39.999 -51
s22.333 -39.167 30 -61.5s10.5 -46.5 8.5 -72.5s-10.167 -54 -24.5 -84s-37.5 -62.333 -69.5 -97c-12 37.333 -27.333 69.333 -46 96s-38.667 50.334 -60 71.001s-42.833 39.334 -64.5 56.001s-41.5 33.334 -59.5 50.001s-33.5 34.667 -46.5 54s-21 42.166 -24 68.499
s-0.5 57 7.5 92s24 76.833 48 125.5c22.667 40 48 70.667 76 92s56.667 35.833 86 43.5s59 9.83398 89 6.50098s58.333 -9.33301 85 -18s51 -18.834 73 -30.501s40 -22.167 54 -31.5zM360.001 499.999l199 -200l-199 -198l-199 198z" />
    <glyph glyph-name="hamza" unicode="&#x621;" horiz-adv-x="704" 
d="M142 289c-32 40 -54.835 82 -68.502 126s-19.834 87.5 -18.501 130.5s9 84 23 123s32.833 72.833 56.5 101.5s50.834 51 81.501 67s63.334 22.667 98.001 20s70.167 -16 106.5 -40s71.833 -61.667 106.5 -113c-58.667 -12.667 -106.167 -26 -142.5 -40
s-63.666 -28 -81.999 -42s-28.5 -27.667 -30.5 -41s1.83301 -25.833 11.5 -37.5s24 -22.167 43 -31.5s40.833 -17 65.5 -23l260 72v-368l-533 -144l-70 179z" />
    <glyph glyph-name="alefwithmaddaabove" unicode="&#x622;" horiz-adv-x="495" 
d="M70 1100l357.001 209.001v-654c0 -76.667 -3.83301 -144.834 -11.5 -204.501s-24 -112.5 -49 -158.5s-60.833 -86.167 -107.5 -120.5s-109.334 -64.5 -188.001 -90.5zM0.000976562 1314c-0.666992 76.667 19.5 143 60.5 199s117.667 58.5 230 7.5
s198.5 -32.833 258.5 54.5c-28.667 -198.667 -111 -267 -247 -205s-236.667 43.333 -302 -56z" />
    <glyph glyph-name="alefwithhamzaabove" unicode="&#x623;" horiz-adv-x="495" 
d="M70 1100l357.001 209.001v-654c0 -76.667 -3.83301 -144.834 -11.5 -204.501s-24 -112.5 -49 -158.5s-60.833 -86.167 -107.5 -120.5s-109.334 -64.5 -188.001 -90.5zM103.001 1411c-20 24 -32.332 49.835 -36.999 77.502s-4 53.667 2 78s16.333 45.666 31 63.999
s31.667 30.5 51 36.5s40.166 4.16699 62.499 -5.5s43.833 -30.167 64.5 -61.5c-40 -8.66699 -68.667 -17.834 -86 -27.501s-27 -19 -29 -28s2.33301 -17.167 13 -24.5s24.667 -13 42 -17l118 32v-167l-244 -65l-31 82z" />
    <glyph glyph-name="wawwithhamzaabove" unicode="&#x624;" horiz-adv-x="829" 
d="M469 -242c-34.667 -12.667 -70.334 -19.5049 -107.001 -20.5049s-73.5 4.5 -110.5 16.5s-74 30.833 -111 56.5s-73.167 58.834 -108.5 99.501c160.667 35.333 298.667 109.666 414 222.999c-73.333 -2 -135.833 6 -187.5 24s-93.167 43 -124.5 75
s-53.166 69.333 -65.499 112s-15.833 87.834 -10.5 135.501s19.166 96.334 41.499 146.001s51.833 97.5 88.5 143.5c20.667 26 43.334 49.167 68.001 69.5s50.5 37 77.5 50s54.5 21.5 82.5 25.5s56 2.33301 84 -5s55.333 -20.5 82 -39.5s52 -45.5 76 -79.5
c34.667 -48.667 63 -104.667 85 -168s36.833 -129.333 44.5 -198s7.5 -137.667 -0.5 -207s-24.833 -134.166 -50.5 -194.499s-60.5 -113.666 -104.5 -159.999s-98.333 -81.166 -163 -104.499zM254 1133c-28 34.667 -45.333 71.668 -52 111.001s-5.66699 76.5 3 111.5
s23.667 65.667 45 92s46 43.833 74 52.5s58 6.16699 90 -7.5s63 -42.834 93 -87.501c-58 -12.667 -99.833 -26.167 -125.5 -40.5s-39.667 -28 -42 -41s4.16699 -24.833 19.5 -35.5s35 -19 59 -25l171 47v-241l-350 -94l-46 117zM498 497.996
c0.666992 9.33301 0.165039 19.832 -1.50195 31.499s-4.66699 23.5 -9 35.5s-9.66602 23.5 -15.999 34.5s-13.5 20.5 -21.5 28.5c-12 12 -24.167 18.333 -36.5 19s-23.666 -2.33301 -33.999 -9s-19 -15.834 -26 -27.501s-11.5 -24.167 -13.5 -37.5s-1 -26.166 3 -38.499
s12 -22.666 24 -30.999s28.667 -13.5 50 -15.5s48.333 1.33301 81 10z" />
    <glyph glyph-name="alefwithhamzabelow" unicode="&#x625;" horiz-adv-x="495" 
d="M70 1100l357.001 209.001v-654c0 -76.667 -3.83301 -144.834 -11.5 -204.501s-24 -112.5 -49 -158.5s-60.833 -86.167 -107.5 -120.5s-109.334 -64.5 -188.001 -90.5zM148.001 -231.999c-20 24 -32.332 49.835 -36.999 77.502s-4 53.667 2 78s16.333 45.666 31 63.999
s31.667 30.5 51 36.5s40.166 4.16699 62.499 -5.5s43.833 -30.167 64.5 -61.5c-40 -8.66699 -68.667 -17.834 -86 -27.501s-27 -19 -29 -28s2.33301 -17.167 13 -24.5s24.667 -13 42 -17l118 32v-167l-244 -65l-31 82z" />
    <glyph glyph-name="yehwithhamzaabove" unicode="&#x626;" horiz-adv-x="1159" 
d="M809 -205c-66 -33.333 -135.505 -55.1641 -208.505 -65.4971s-143.5 -8.83301 -211.5 4.5c-45.333 8.66699 -88.333 22.334 -129 41.001s-76.667 42.667 -108 72s-57.166 63.666 -77.499 102.999s-33 84 -38 134s-1.5 105.167 10.5 165.5s34.667 125.833 68 196.5
l302 140c-29.333 -50.667 -51.166 -102.334 -65.499 -155.001s-20.333 -102.167 -18 -148.5s13.333 -87.5 33 -123.5s49 -62.333 88 -79s88 -22 147 -16s128.833 28 209.5 66c-12 8.66699 -28.667 16.5 -50 23.5s-44.166 15.333 -68.499 25s-48.5 21.167 -72.5 34.5
s-44.333 30.666 -61 51.999s-28 47.166 -34 77.499s-3.66699 67.5 7 111.5c19.333 76.667 48.333 145.5 87 206.5s84.667 111.5 138 151.5c26.667 20 54.334 37 83.001 51s59 24.667 91 32c13.333 3.33301 29.333 5.16602 48 5.49902s37 -1 55 -4s34.5 -8 49.5 -15
s25.5 -16.167 31.5 -27.5l-67 -261c-16 2.66699 -33 6 -51 10s-35.667 6.33301 -53 7s-33.5 -2.16602 -48.5 -8.49902s-27.167 -18.5 -36.5 -36.5c-4 -8.66699 -4.33301 -17 -1 -25s8.83301 -15.667 16.5 -23s16.834 -14.5 27.501 -21.5s21.334 -13.167 32.001 -18.5l30 -15
c9.33301 -4.66699 16.333 -8.33398 21 -11.001c47.333 -30.667 81.166 -65.5 101.499 -104.5s30 -79.667 29 -122s-10.667 -85 -29 -128s-41.833 -83.667 -70.5 -122s-61.167 -73.166 -97.5 -104.499s-72.833 -56.333 -109.5 -75zM94.9951 778.002
c-28 34.667 -45.333 71.668 -52 111.001s-5.66699 76.5 3 111.5s23.667 65.667 45 92s46 43.833 74 52.5s58 6.16699 90 -7.5s63 -42.834 93 -87.501c-58 -12.667 -99.833 -26.167 -125.5 -40.5s-39.667 -28 -42 -41s4.16699 -24.833 19.5 -35.5s35 -19 59 -25l171 47v-241
l-350 -94l-46 117z" />
    <glyph glyph-name="arabicalef" unicode="&#x627;" horiz-adv-x="495" 
d="M70 1100l357.001 209.001v-654c0 -76.667 -3.83301 -144.834 -11.5 -204.501s-24 -112.5 -49 -158.5s-60.833 -86.167 -107.5 -120.5s-109.334 -64.5 -188.001 -90.5z" />
    <glyph glyph-name="beh" unicode="&#x628;" horiz-adv-x="1424" 
d="M395 133c-59.333 2 -109.834 9.83301 -151.501 23.5s-76.834 32.167 -105.501 55.5c-28.667 24 -51.334 53.333 -68.001 88s-27.667 71.334 -33 110.001s-5.16602 77.5 0.500977 116.5s16.834 74.5 33.501 106.5l183 117c-10.667 -40 -12.5 -75.5 -5.5 -106.5
s21.333 -57.5 43 -79.5s50 -39.333 85 -52s75.5 -20.334 121.5 -23.001h523c-13.333 40 -28.5 78.167 -45.5 114.5s-37.167 71.166 -60.5 104.499l303 204c44 -64 77.833 -127.167 101.5 -189.5s40.334 -125.166 50.001 -188.499s14.167 -128 13.5 -194
s-3.66699 -135 -9 -207h-979zM706.999 -28l212 -212l-212 -211l-211 211z" />
    <glyph glyph-name="tehmarbuta" unicode="&#x629;" horiz-adv-x="780" 
d="M430 133c-73.333 -2 -135.836 5.99805 -187.503 23.998s-93.167 43 -124.5 75s-53.166 69.333 -65.499 112s-15.666 87.834 -9.99902 135.501s19.5 96.334 41.5 146.001s51.667 97.5 89 143.5c20.667 26 43.334 49.167 68.001 69.5s50.334 37 77.001 50s54 21.5 82 25.5
s56 2.33301 84 -5c45.333 -11.333 85 -29.833 119 -55.5s62 -56 84 -91s38.167 -73.167 48.5 -114.5s14.666 -83.333 12.999 -126s-9.5 -84.667 -23.5 -126s-34.333 -79.5 -61 -114.5s-59.5 -65.5 -98.5 -91.5s-84.167 -45 -135.5 -57zM220.997 1416l140 -139l140 139
l188 -188l-188 -188l-140 140l-140 -140l-188 188zM481.997 497.998c0.666992 9.33301 0.165039 19.832 -1.50195 31.499s-4.66699 23.5 -9 35.5s-9.66602 23.5 -15.999 34.5s-13.5 20.5 -21.5 28.5c-12 12 -24.167 18.333 -36.5 19s-23.666 -2.33301 -33.999 -9
s-19 -15.834 -26 -27.501s-11.5 -24.167 -13.5 -37.5s-1 -26.166 3 -38.499s12 -22.666 24 -30.999s28.667 -13.5 50 -15.5s48.333 1.33301 81 10z" />
    <glyph glyph-name="teh" unicode="&#x62a;" horiz-adv-x="1424" 
d="M395 133c-59.333 2 -109.834 9.83301 -151.501 23.5s-76.834 32.167 -105.501 55.5c-28.667 24 -51.334 53.333 -68.001 88s-27.667 71.334 -33 110.001s-5.16602 77.5 0.500977 116.5s16.834 74.5 33.501 106.5l183 117c-10.667 -40 -12.5 -75.5 -5.5 -106.5
s21.333 -57.5 43 -79.5s50 -39.333 85 -52s75.5 -20.334 121.5 -23.001h523c-13.333 40 -28.5 78.167 -45.5 114.5s-37.167 71.166 -60.5 104.499l303 204c44 -64 77.833 -127.167 101.5 -189.5s40.334 -125.166 50.001 -188.499s14.167 -128 13.5 -194
s-3.66699 -135 -9 -207h-979zM505.999 1242l140 -139l140 139l188 -188l-188 -188l-140 140l-140 -140l-188 188z" />
    <glyph glyph-name="theh" unicode="&#x62b;" horiz-adv-x="1424" 
d="M395 133c-59.333 2 -109.834 9.83301 -151.501 23.5s-76.834 32.167 -105.501 55.5c-28.667 24 -51.334 53.333 -68.001 88s-27.667 71.334 -33 110.001s-5.16602 77.5 0.500977 116.5s16.834 74.5 33.501 106.5l183 117c-10.667 -40 -12.5 -75.5 -5.5 -106.5
s21.333 -57.5 43 -79.5s50 -39.333 85 -52s75.5 -20.334 121.5 -23.001h523c-13.333 40 -28.5 78.167 -45.5 114.5s-37.167 71.166 -60.5 104.499l303 204c44 -64 77.833 -127.167 101.5 -189.5s40.334 -125.166 50.001 -188.499s14.167 -128 13.5 -194
s-3.66699 -135 -9 -207h-979zM525.999 1247l140 -139l140 139l188 -188l-188 -188l-140 140l-140 -140l-188 188zM669.999 1592l169 -188l-169 -188l-188 188z" />
    <glyph glyph-name="jeem" unicode="&#x62c;" horiz-adv-x="879" 
d="M836 364c-122 -24 -216.668 -56.667 -284.001 -98s-106.333 -87 -117 -137s7 -102.5 53 -157.5s121 -108.167 225 -159.5c-34.667 -18 -72.334 -36.333 -113.001 -55l-114 -51l-88.5 -38l-35.5 -15c-77.333 38.667 -140.333 84 -189 136s-84.167 107 -106.5 165
s-31.5 117 -27.5 177s20 117 48 171s67.833 103.333 119.5 148s114.167 80.334 187.5 107.001c-26.667 23.333 -51.834 42.5 -75.501 57.5s-48.667 24.333 -75 28s-55.166 0.666992 -86.499 -9s-68 -27.167 -110 -52.5c10 74.667 24.167 136.5 42.5 185.5
s39.5 87.667 63.5 116s50.333 47.166 79 56.499s59 11.666 91 6.99902c34 -5.33301 65.833 -15.166 95.5 -29.499s58.167 -31 85.5 -50s54 -39.167 80 -60.5s52.833 -41.5 80.5 -60.5s56.334 -36 86.001 -51s61.834 -25.167 96.501 -30.5zM681.999 237l157 -157l-157 -156
l-156 156z" />
    <glyph glyph-name="hah" unicode="&#x62d;" horiz-adv-x="879" 
d="M836 364c-122 -24 -216.668 -56.667 -284.001 -98s-106.333 -87 -117 -137s7 -102.5 53 -157.5s121 -108.167 225 -159.5c-34.667 -18 -72.334 -36.333 -113.001 -55l-114 -51l-88.5 -38l-35.5 -15c-77.333 38.667 -140.333 84 -189 136s-84.167 107 -106.5 165
s-31.5 117 -27.5 177s20 117 48 171s67.833 103.333 119.5 148s114.167 80.334 187.5 107.001c-26.667 23.333 -51.834 42.5 -75.501 57.5s-48.667 24.333 -75 28s-55.166 0.666992 -86.499 -9s-68 -27.167 -110 -52.5c10 74.667 24.167 136.5 42.5 185.5
s39.5 87.667 63.5 116s50.333 47.166 79 56.499s59 11.666 91 6.99902c34 -5.33301 65.833 -15.166 95.5 -29.499s58.167 -31 85.5 -50s54 -39.167 80 -60.5s52.833 -41.5 80.5 -60.5s56.334 -36 86.001 -51s61.834 -25.167 96.501 -30.5z" />
    <glyph glyph-name="khah" unicode="&#x62e;" horiz-adv-x="879" 
d="M836 364c-122 -24 -216.668 -56.667 -284.001 -98s-106.333 -87 -117 -137s7 -102.5 53 -157.5s121 -108.167 225 -159.5c-34.667 -18 -72.334 -36.333 -113.001 -55l-114 -51l-88.5 -38l-35.5 -15c-77.333 38.667 -140.333 84 -189 136s-84.167 107 -106.5 165
s-31.5 117 -27.5 177s20 117 48 171s67.833 103.333 119.5 148s114.167 80.334 187.5 107.001c-26.667 23.333 -51.834 42.5 -75.501 57.5s-48.667 24.333 -75 28s-55.166 0.666992 -86.499 -9s-68 -27.167 -110 -52.5c10 74.667 24.167 136.5 42.5 185.5
s39.5 87.667 63.5 116s50.333 47.166 79 56.499s59 11.666 91 6.99902c34 -5.33301 65.833 -15.166 95.5 -29.499s58.167 -31 85.5 -50s54 -39.167 80 -60.5s52.833 -41.5 80.5 -60.5s56.334 -36 86.001 -51s61.834 -25.167 96.501 -30.5zM411.999 1470l212 -212l-212 -211
l-211 211z" />
    <glyph glyph-name="dal" unicode="&#x62f;" horiz-adv-x="784" 
d="M37 489h428.999c-6 31.333 -15.833 58.5 -29.5 81.5s-31 44.5 -52 64.5s-45.833 39.833 -74.5 59.5l-99 66.5l198 257c80.667 -38 146.834 -88.667 198.501 -152s89 -134.5 112 -213.5s32.5 -163 28.5 -252s-21 -178.167 -51 -267.5h-660v356z" />
    <glyph glyph-name="thal" unicode="&#x630;" horiz-adv-x="784" 
d="M37 489h428.999c-6 31.333 -15.833 58.5 -29.5 81.5s-31 44.5 -52 64.5s-45.833 39.833 -74.5 59.5l-99 66.5l198 257c80.667 -38 146.834 -88.667 198.501 -152s89 -134.5 112 -213.5s32.5 -163 28.5 -252s-21 -178.167 -51 -267.5h-660v356zM411.999 1545l212 -212
l-212 -211l-211 211z" />
    <glyph glyph-name="reh" unicode="&#x631;" horiz-adv-x="829" 
d="M758 139c-20 -62.667 -45.665 -119.334 -76.998 -170.001s-66.666 -93.667 -105.999 -129s-81.833 -61.666 -127.5 -78.999s-92.834 -24.166 -141.501 -20.499s-97.834 19.167 -147.501 46.5s-97.834 68.333 -144.501 123c121.333 26 226.5 73.667 315.5 143
s161.5 158 217.5 266l-185 296l216 267c48.667 -61.333 88.334 -122.5 119.001 -183.5s53 -122.333 67 -184s20.167 -123.834 18.5 -186.501s-9.83398 -125.667 -24.501 -189z" />
    <glyph glyph-name="zain" unicode="&#x632;" horiz-adv-x="829" 
d="M758 139c-20 -62.667 -45.665 -119.334 -76.998 -170.001s-66.666 -93.667 -105.999 -129s-81.833 -61.666 -127.5 -78.999s-92.834 -24.166 -141.501 -20.499s-97.834 19.167 -147.501 46.5s-97.834 68.333 -144.501 123c121.333 26 226.5 73.667 315.5 143
s161.5 158 217.5 266l-185 296l216 267c48.667 -61.333 88.334 -122.5 119.001 -183.5s53 -122.333 67 -184s20.167 -123.834 18.5 -186.501s-9.83398 -125.667 -24.501 -189zM427.002 1360l212 -212l-212 -211l-211 211z" />
    <glyph glyph-name="seen" unicode="&#x633;" horiz-adv-x="2408" 
d="M479 -264c-95.333 0 -174.331 16.1641 -236.998 48.4971s-111.334 74.833 -146.001 127.5s-56.5 112.834 -65.5 180.501s-7.33301 137.167 5 208.5s34.333 141.166 66 209.499s70.834 129.833 117.501 184.5l101 14c-26 -74.667 -40.333 -145.834 -43 -213.501
s4.16602 -128 20.499 -181s41.666 -96.667 75.999 -131s75.666 -55.166 123.999 -62.499s103.166 0.833984 164.499 24.501s127 66.834 197 129.501l-77 244l287 243c17.333 -45.333 31.333 -90.666 42 -135.999s18 -91 22 -137h259l-21 78l303 200l75 -278h256
c-13.333 40 -28.666 78.167 -45.999 114.5s-37.666 71.166 -60.999 104.499l304 204c44 -64 77.833 -127.167 101.5 -189.5s40.334 -125.166 50.001 -188.499s14.167 -128 13.5 -194s-3.66699 -135 -9 -207h-870l-31 113l-60 -113h-306
c-21.333 -57.333 -49.833 -110.333 -85.5 -159s-78.834 -90.667 -129.501 -126s-109 -62.833 -175 -82.5s-140 -29.5 -222 -29.5z" />
    <glyph glyph-name="sheen" unicode="&#x634;" horiz-adv-x="2408" 
d="M479 -264c-95.333 0 -174.331 16.1641 -236.998 48.4971s-111.334 74.833 -146.001 127.5s-56.5 112.834 -65.5 180.501s-7.33301 137.167 5 208.5s34.333 141.166 66 209.499s70.834 129.833 117.501 184.5l101 14c-26 -74.667 -40.333 -145.834 -43 -213.501
s4.16602 -128 20.499 -181s41.666 -96.667 75.999 -131s75.666 -55.166 123.999 -62.499s103.166 0.833984 164.499 24.501s127 66.834 197 129.501l-77 244l287 243c17.333 -45.333 31.333 -90.666 42 -135.999s18 -91 22 -137h259l-21 78l303 200l75 -278h256
c-13.333 40 -28.666 78.167 -45.999 114.5s-37.666 71.166 -60.999 104.499l304 204c44 -64 77.833 -127.167 101.5 -189.5s40.334 -125.166 50.001 -188.499s14.167 -128 13.5 -194s-3.66699 -135 -9 -207h-870l-31 113l-60 -113h-306
c-21.333 -57.333 -49.833 -110.333 -85.5 -159s-78.834 -90.667 -129.501 -126s-109 -62.833 -175 -82.5s-140 -29.5 -222 -29.5zM1418 1311l140 -139l140 139l188 -188l-188 -188l-140 140l-140 -140l-188 188zM1562 1656l169 -188l-169 -188l-188 188z" />
    <glyph glyph-name="sad" unicode="&#x635;" horiz-adv-x="2308" 
d="M482 -264c-95.333 0 -174.33 16.1621 -236.997 48.4951s-111.334 74.833 -146.001 127.5s-56.5 112.834 -65.5 180.501s-7.33301 137.167 5 208.5s34.333 141.166 66 209.499s70.834 129.833 117.501 184.5l101 14c-26 -74.667 -40.333 -145.834 -43 -213.501
s4.16602 -128 20.499 -181s41.5 -96.667 75.5 -131s75.333 -55.166 124 -62.499s103.5 0.833984 164.5 24.501s126.833 66.834 197.5 129.501l-77 244l287 243c17.333 -45.333 31.333 -90.666 42 -135.999s18 -91 22 -137h64c18.667 19.333 40.5 44 65.5 74
s53.333 61.833 85 95.5s66.834 67.334 105.501 101.001s81.167 64 127.5 91s96.666 49.167 150.999 66.5s113.166 26 176.499 26c78.667 0 141.834 -13 189.501 -39s84.167 -60.833 109.5 -104.5s41.666 -93.667 48.999 -150s9.5 -114.5 6.5 -174.5s-9 -119.667 -18 -179
s-16.5 -113.666 -22.5 -162.999h-1131c-21.333 -57.333 -49.833 -110.333 -85.5 -159s-78.834 -90.667 -129.501 -126s-109 -62.833 -175 -82.5s-140 -29.5 -222 -29.5zM1941 488.995c-17.333 38.667 -36.5 68.166 -57.5 88.499s-43.333 33.833 -67 40.5
s-48.167 7.33398 -73.5 2.00098s-50.666 -14.333 -75.999 -27s-50.333 -28.167 -75 -46.5s-48.334 -37.5 -71.001 -57.5h420z" />
    <glyph glyph-name="dad" unicode="&#x636;" horiz-adv-x="2308" 
d="M482 -264c-95.333 0 -174.33 16.1621 -236.997 48.4951s-111.334 74.833 -146.001 127.5s-56.5 112.834 -65.5 180.501s-7.33301 137.167 5 208.5s34.333 141.166 66 209.499s70.834 129.833 117.501 184.5l101 14c-26 -74.667 -40.333 -145.834 -43 -213.501
s4.16602 -128 20.499 -181s41.5 -96.667 75.5 -131s75.333 -55.166 124 -62.499s103.5 0.833984 164.5 24.501s126.833 66.834 197.5 129.501l-77 244l287 243c17.333 -45.333 31.333 -90.666 42 -135.999s18 -91 22 -137h64c18.667 19.333 40.5 44 65.5 74
s53.333 61.833 85 95.5s66.834 67.334 105.501 101.001s81.167 64 127.5 91s96.666 49.167 150.999 66.5s113.166 26 176.499 26c78.667 0 141.834 -13 189.501 -39s84.167 -60.833 109.5 -104.5s41.666 -93.667 48.999 -150s9.5 -114.5 6.5 -174.5s-9 -119.667 -18 -179
s-16.5 -113.666 -22.5 -162.999h-1131c-21.333 -57.333 -49.833 -110.333 -85.5 -159s-78.834 -90.667 -129.501 -126s-109 -62.833 -175 -82.5s-140 -29.5 -222 -29.5zM1291 1315l212 -212l-212 -211l-211 211zM1941 488.995c-17.333 38.667 -36.5 68.166 -57.5 88.499
s-43.333 33.833 -67 40.5s-48.167 7.33398 -73.5 2.00098s-50.666 -14.333 -75.999 -27s-50.333 -28.167 -75 -46.5s-48.334 -37.5 -71.001 -57.5h420z" />
    <glyph glyph-name="tah" unicode="&#x637;" horiz-adv-x="1483" 
d="M272 1100l356.004 209.002v-635c28.667 31.333 60.167 63 94.5 95s70.666 60.833 108.999 86.5s78.833 46.667 121.5 63s86.667 24.5 132 24.5c78 0 140.833 -12.833 188.5 -38.5s84.167 -59.834 109.5 -102.501s42.166 -91.834 50.499 -147.501
s12.166 -113.5 11.499 -173.5s-3.33398 -120 -8.00098 -180s-7 -116 -7 -168h-1283l-119 356h244v611zM1115 489.002c-17.333 38.667 -36.5 68.166 -57.5 88.499s-43.333 33.833 -67 40.5s-48.167 7.33398 -73.5 2.00098s-50.666 -14.333 -75.999 -27
s-50.333 -28.167 -75 -46.5s-48.334 -37.5 -71.001 -57.5h420z" />
    <glyph glyph-name="zah" unicode="&#x638;" horiz-adv-x="1483" 
d="M272 1100l356.004 209.002v-635c28.667 31.333 60.167 63 94.5 95s70.666 60.833 108.999 86.5s78.833 46.667 121.5 63s86.667 24.5 132 24.5c78 0 140.833 -12.833 188.5 -38.5s84.167 -59.834 109.5 -102.501s42.166 -91.834 50.499 -147.501
s12.166 -113.5 11.499 -173.5s-3.33398 -120 -8.00098 -180s-7 -116 -7 -168h-1283l-119 356h244v611zM917.004 1420l212 -212l-212 -211l-211 211zM1115 489.002c-17.333 38.667 -36.5 68.166 -57.5 88.499s-43.333 33.833 -67 40.5s-48.167 7.33398 -73.5 2.00098
s-50.666 -14.333 -75.999 -27s-50.333 -28.167 -75 -46.5s-48.334 -37.5 -71.001 -57.5h420z" />
    <glyph glyph-name="ain" unicode="&#x639;" horiz-adv-x="879" 
d="M375 1106c38 14.667 77.3291 21.3359 117.996 20.0029s79.834 -11.666 117.501 -30.999s72.834 -48.166 105.501 -86.499s60.334 -87.5 83.001 -147.5c-38 3.33301 -75.5 5.83301 -112.5 7.5s-73 1.66699 -108 0s-69 -5.83398 -102 -12.501
s-64.167 -16.334 -93.5 -29.001c13.333 -40.667 35.833 -74.334 67.5 -101.001s69.5 -49.334 113.5 -68.001l280 52l-14 -346c-122 -24 -216.667 -56.667 -284 -98s-106.5 -87 -117.5 -137s6.5 -102.5 52.5 -157.5s121 -108.167 225 -159.5
c-34.667 -18 -72.334 -36.333 -113.001 -55l-114 -51l-88.5 -38l-35.5 -15c-72 36 -130.833 76 -176.5 120s-80.334 89.5 -104.001 136.5s-37.5 94.833 -41.5 143.5s-0.333008 96.167 11 142.5s29.5 90.5 54.5 132.5s54.167 80 87.5 114
c-25.333 34 -43.666 71.833 -54.999 113.5s-16.666 84.5 -15.999 128.5s7.16699 87.833 19.5 131.5s29.833 84.5 52.5 122.5s49.834 71.667 81.501 101s67.167 51.666 106.5 66.999z" />
    <glyph glyph-name="ghain" unicode="&#x63a;" horiz-adv-x="879" 
d="M375 1106c38 14.667 77.3291 21.3359 117.996 20.0029s79.834 -11.666 117.501 -30.999s72.834 -48.166 105.501 -86.499s60.334 -87.5 83.001 -147.5c-38 3.33301 -75.5 5.83301 -112.5 7.5s-73 1.66699 -108 0s-69 -5.83398 -102 -12.501
s-64.167 -16.334 -93.5 -29.001c13.333 -40.667 35.833 -74.334 67.5 -101.001s69.5 -49.334 113.5 -68.001l280 52l-14 -346c-122 -24 -216.667 -56.667 -284 -98s-106.5 -87 -117.5 -137s6.5 -102.5 52.5 -157.5s121 -108.167 225 -159.5
c-34.667 -18 -72.334 -36.333 -113.001 -55l-114 -51l-88.5 -38l-35.5 -15c-72 36 -130.833 76 -176.5 120s-80.334 89.5 -104.001 136.5s-37.5 94.833 -41.5 143.5s-0.333008 96.167 11 142.5s29.5 90.5 54.5 132.5s54.167 80 87.5 114
c-25.333 34 -43.666 71.833 -54.999 113.5s-16.666 84.5 -15.999 128.5s7.16699 87.833 19.5 131.5s29.833 84.5 52.5 122.5s49.834 71.667 81.501 101s67.167 51.666 106.5 66.999zM436.996 1650l212 -212l-212 -211l-211 211z" />
    <glyph glyph-name="tatweel" unicode="&#x640;" horiz-adv-x="408" 
d="M420 489v-356h-431v356h431z" />
    <glyph glyph-name="feh" unicode="&#x641;" horiz-adv-x="1423" 
d="M673 489c-10.667 33.333 -13.667 70.166 -9 110.499s15.5 80.833 32.5 121.5s39 79.5 66 116.5s57.167 68.5 90.5 94.5s69.166 45 107.499 57s77.166 13 116.499 3c46 -11.333 86.667 -31.666 122 -60.999s65.333 -65.333 90 -108s44.334 -90.667 59.001 -144
s24.5 -110 29.5 -170s5.66699 -121.833 2 -185.5s-11.5 -127.167 -23.5 -190.5h-962c-58.667 2 -109 9.83301 -151 23.5s-77 32.167 -105 55.5c-29.333 24 -52.333 53.333 -69 88s-27.667 71.334 -33 110.001s-5 77.5 1 116.5s17.333 74.5 34 106.5l183 117
c-10.667 -40 -12.667 -75.5 -6 -106.5s20.834 -57.5 42.501 -79.5s50 -39.333 85 -52s75.5 -20.334 121.5 -23.001h176zM737 1460l212 -212l-212 -211l-211 211zM1127 484c0.666992 9.33301 0.00488281 20.667 -1.99512 34s-5.33301 26.833 -10 40.5
s-10.334 26.667 -17.001 39s-14 22.5 -22 30.5c-26.667 26.667 -49.5 44.667 -68.5 54s-34.333 12.333 -46 9s-19.834 -11.333 -24.501 -24s-5.83398 -27.334 -3.50098 -44.001s8.16602 -34.167 17.499 -52.5s22.166 -34.666 38.499 -48.999s36 -25.333 59 -33
s49.167 -9.16699 78.5 -4.5z" />
    <glyph glyph-name="qaf" unicode="&#x642;" horiz-adv-x="1279" 
d="M527 -264c-77.333 0 -144.833 9.32617 -202.5 27.9932s-106.334 44 -146.001 76s-70.834 69.667 -93.501 113s-38 89.833 -46 139.5s-8.83301 101.334 -2.5 155.001s18.5 106.834 36.5 159.501s41.5 103.667 70.5 153s62.5 94.333 100.5 135l110 14
c-24.667 -66 -39.667 -129.5 -45 -190.5s-2 -116.667 10 -167s31.833 -94 59.5 -131s61.834 -64.167 102.501 -81.5s87.5 -23.666 140.5 -18.999s110.5 23.334 172.5 56.001c-46 18.667 -89.167 44.834 -129.5 78.501s-74 72 -101 115s-45.5 89.333 -55.5 139
s-8 100.167 6 151.5c7.33301 27.333 17.833 55.5 31.5 84.5s30 57.167 49 84.5s40.333 52.5 64 75.5s49.167 42.333 76.5 58s56.166 26.334 86.499 32.001s61.5 4.83398 93.5 -2.49902c44.667 -10.667 83.334 -29 116.001 -55s60.834 -56.667 84.501 -92
s43 -73.666 58 -114.999s27.167 -83 36.5 -125c14.667 -68.667 22.667 -137 24 -205s-6 -133.5 -22 -196.5s-41.833 -122.333 -77.5 -178s-83.167 -105.167 -142.5 -148.5c-62.667 -46.667 -133.5 -81.834 -212.5 -105.501s-163.167 -35.5 -252.5 -35.5zM281 1380.99
l140 -139l140 139l188 -188l-188 -188l-140 140l-140 -140l-188 188zM965 483.993c0.666992 9.33301 0.00488281 20.667 -1.99512 34s-5.33301 26.833 -10 40.5s-10.334 26.667 -17.001 39s-14 22.5 -22 30.5c-26.667 26.667 -49.5 44.667 -68.5 54s-34.333 12.333 -46 9
s-19.834 -11.333 -24.501 -24s-5.83398 -27.334 -3.50098 -44.001s8.16602 -34.167 17.499 -52.5s22.166 -34.666 38.499 -48.999s36 -25.333 59 -33s49.167 -9.16699 78.5 -4.5z" />
    <glyph glyph-name="arabickaf" unicode="&#x643;" horiz-adv-x="1373" 
d="M948 1100l356.001 209v-820l-75 -356h-836c-59.333 2 -109.833 9.83301 -151.5 23.5s-76.834 32.167 -105.501 55.5c-28.667 24 -51.334 53.333 -68.001 88s-27.667 71.334 -33 110.001s-5.16602 77.5 0.500977 116.5s16.834 74.5 33.501 106.5l183 117
c-10.667 -40 -12.5 -75.5 -5.5 -106.5s21.167 -57.5 42.5 -79.5s49.666 -39.333 84.999 -52s76 -20.334 122 -23.001h452v611zM842.001 905c-1.33301 -17.333 -5.83301 -36.166 -13.5 -56.499s-18.334 -40.833 -32.001 -61.5s-29.667 -40.5 -48 -59.5
s-39.333 -35.333 -63 -49s-49.334 -24.167 -77.001 -31.5s-57.167 -9.66602 -88.5 -6.99902c-21.333 1.33301 -42 5.5 -62 12.5s-40 16.5 -60 28.5l9 46c20 4 39.333 8.5 58 13.5s37.5 10.833 56.5 17.5s38.333 14.167 58 22.5s40.834 18.166 63.501 29.499
c-52 -5.33301 -92.667 -4 -122 4s-49.5 20.667 -60.5 38s-14.167 37.833 -9.5 61.5s15.334 48.667 32.001 75s38.167 52.5 64.5 78.5s55.333 50 87 72s65 40.5 100 55.5s69.5 24.5 103.5 28.5l-76 -169c-16.667 -1.33301 -36 -5.33301 -58 -12s-46 -20.334 -72 -41.001
c3.33301 -12 11.166 -19.667 23.499 -23s26.5 -5 42.5 -5c16.667 0 33.834 0.5 51.501 1.5s33.667 0 48 -3s25.833 -9.5 34.5 -19.5s12 -25.667 10 -47z" />
    <glyph glyph-name="lam" unicode="&#x644;" horiz-adv-x="1239" 
d="M492 -264c-95.333 0 -174.333 16.167 -237 48.5s-111.334 74.833 -146.001 127.5s-56.5 112.834 -65.5 180.501s-7.33301 137.167 5 208.5s34.333 141.166 66 209.499s70.834 129.833 117.501 184.5l101 14c-24.667 -70 -39 -137 -43 -201s0.833008 -122 14.5 -174
s35.167 -95.833 64.5 -131.5s65.333 -60.167 108 -73.5s91.167 -13.5 145.5 -0.5s113.166 42.167 176.499 87.5l-1 884l356 209v-820c-3.33301 -69.333 -10.666 -136 -21.999 -200s-28 -123.833 -50 -179.5s-50 -106.5 -84 -152.5s-75 -85.333 -123 -118
s-103.667 -58 -167 -76s-135.333 -27 -216 -27z" />
    <glyph glyph-name="meem" unicode="&#x645;" horiz-adv-x="1169" 
d="M334 559c51.333 103.333 105.166 182.831 161.499 238.498s112.166 91.834 167.499 108.501s109 16.334 161 -0.999023s98.833 -47.333 140.5 -90s77.167 -95.667 106.5 -159s49 -132.166 59 -206.499s9.16699 -152 -2.5 -233s-37.5 -160.833 -77.5 -239.5l-580 156
c-40.667 13.333 -75.667 20.833 -105 22.5s-48.666 -5.83301 -57.999 -22.5c14.667 -46 28.334 -92.333 41.001 -139s21.334 -94 26.001 -142c5.33301 -60.667 2.5 -119.667 -8.5 -177s-24.5 -115 -40.5 -173h-27c-12 36.667 -27.833 78.167 -47.5 124.5l-63 146l-66.5 158
c-22 54.333 -40.833 107.666 -56.5 159.999s-27 102.833 -34 151.5s-6.5 93.334 1.5 134.001c8 44.667 24 80.5 48 107.5s50.833 47.167 80.5 60.5s60.167 20.666 91.5 21.999s58.666 -1 81.999 -7zM846 405.998c0 52 -9.33301 93.667 -28 125s-40.834 51 -66.501 59
s-52.167 3.5 -79.5 -13.5s-49.666 -47.833 -66.999 -92.5z" />
    <glyph glyph-name="noon" unicode="&#x646;" horiz-adv-x="1184" 
d="M486 -264c-95.333 0 -174.327 16.167 -236.994 48.5s-111.334 74.833 -146.001 127.5s-56.5 112.834 -65.5 180.501s-7.33301 137.167 5 208.5s34.333 141.166 66 209.499s70.834 129.833 117.501 184.5l101 14c-26 -74.667 -40.333 -145.834 -43 -213.501
s4.16602 -128 20.499 -181s41.666 -96.667 75.999 -131s75.666 -55.166 123.999 -62.499s103.166 0.833984 164.499 24.501s127 66.834 197 129.501l-130 416l265 230c48.667 -84.667 85 -172.834 109 -264.501s35.333 -181.334 34 -269.001s-15.833 -171 -43.5 -250
s-68.834 -148.167 -123.501 -207.5s-122.834 -106.5 -204.501 -141.5s-177.167 -52.5 -286.5 -52.5zM557.006 1236l212 -212l-212 -211l-211 211z" />
    <glyph glyph-name="heh" unicode="&#x647;" horiz-adv-x="780" 
d="M430 133c-73.333 -2 -135.836 5.99805 -187.503 23.998s-93.167 43 -124.5 75s-53.166 69.333 -65.499 112s-15.666 87.834 -9.99902 135.501s19.5 96.334 41.5 146.001s51.667 97.5 89 143.5c20.667 26 43.334 49.167 68.001 69.5s50.334 37 77.001 50s54 21.5 82 25.5
s56 2.33301 84 -5c45.333 -11.333 85 -29.833 119 -55.5s62 -56 84 -91s38.167 -73.167 48.5 -114.5s14.666 -83.333 12.999 -126s-9.5 -84.667 -23.5 -126s-34.333 -79.5 -61 -114.5s-59.5 -65.5 -98.5 -91.5s-84.167 -45 -135.5 -57zM481.997 497.998
c0.666992 9.33301 0.165039 19.832 -1.50195 31.499s-4.66699 23.5 -9 35.5s-9.66602 23.5 -15.999 34.5s-13.5 20.5 -21.5 28.5c-12 12 -24.167 18.333 -36.5 19s-23.666 -2.33301 -33.999 -9s-19 -15.834 -26 -27.501s-11.5 -24.167 -13.5 -37.5s-1 -26.166 3 -38.499
s12 -22.666 24 -30.999s28.667 -13.5 50 -15.5s48.333 1.33301 81 10z" />
    <glyph glyph-name="waw" unicode="&#x648;" horiz-adv-x="829" 
d="M469 -242c-34.667 -12.667 -70.334 -19.5049 -107.001 -20.5049s-73.5 4.5 -110.5 16.5s-74 30.833 -111 56.5s-73.167 58.834 -108.5 99.501c160.667 35.333 298.667 109.666 414 222.999c-73.333 -2 -135.833 6 -187.5 24s-93.167 43 -124.5 75
s-53.166 69.333 -65.499 112s-15.833 87.834 -10.5 135.501s19.166 96.334 41.499 146.001s51.833 97.5 88.5 143.5c20.667 26 43.334 49.167 68.001 69.5s50.5 37 77.5 50s54.5 21.5 82.5 25.5s56 2.33301 84 -5s55.333 -20.5 82 -39.5s52 -45.5 76 -79.5
c34.667 -48.667 63 -104.667 85 -168s36.833 -129.333 44.5 -198s7.5 -137.667 -0.5 -207s-24.833 -134.166 -50.5 -194.499s-60.5 -113.666 -104.5 -159.999s-98.333 -81.166 -163 -104.499zM498 497.995c0.666992 9.33301 0.165039 19.832 -1.50195 31.499
s-4.66699 23.5 -9 35.5s-9.66602 23.5 -15.999 34.5s-13.5 20.5 -21.5 28.5c-12 12 -24.167 18.333 -36.5 19s-23.666 -2.33301 -33.999 -9s-19 -15.834 -26 -27.501s-11.5 -24.167 -13.5 -37.5s-1 -26.166 3 -38.499s12 -22.666 24 -30.999s28.667 -13.5 50 -15.5
s48.333 1.33301 81 10z" />
    <glyph glyph-name="alefmaksura" unicode="&#x649;" horiz-adv-x="1159" 
d="M809 -205c-66 -33.333 -135.505 -55.1641 -208.505 -65.4971s-143.5 -8.83301 -211.5 4.5c-45.333 8.66699 -88.333 22.334 -129 41.001s-76.667 42.667 -108 72s-57.166 63.666 -77.499 102.999s-33 84 -38 134s-1.5 105.167 10.5 165.5s34.667 125.833 68 196.5
l302 140c-29.333 -50.667 -51.166 -102.334 -65.499 -155.001s-20.333 -102.167 -18 -148.5s13.333 -87.5 33 -123.5s49 -62.333 88 -79s88 -22 147 -16s128.833 28 209.5 66c-12 8.66699 -28.667 16.5 -50 23.5s-44.166 15.333 -68.499 25s-48.5 21.167 -72.5 34.5
s-44.333 30.666 -61 51.999s-28 47.166 -34 77.499s-3.66699 67.5 7 111.5c19.333 76.667 48.333 145.5 87 206.5s84.667 111.5 138 151.5c26.667 20 54.334 37 83.001 51s59 24.667 91 32c13.333 3.33301 29.333 5.16602 48 5.49902s37 -1 55 -4s34.5 -8 49.5 -15
s25.5 -16.167 31.5 -27.5l-67 -261c-16 2.66699 -33 6 -51 10s-35.667 6.33301 -53 7s-33.5 -2.16602 -48.5 -8.49902s-27.167 -18.5 -36.5 -36.5c-4 -8.66699 -4.33301 -17 -1 -25s8.83301 -15.667 16.5 -23s16.834 -14.5 27.501 -21.5s21.334 -13.167 32.001 -18.5l30 -15
c9.33301 -4.66699 16.333 -8.33398 21 -11.001c47.333 -30.667 81.166 -65.5 101.499 -104.5s30 -79.667 29 -122s-10.667 -85 -29 -128s-41.833 -83.667 -70.5 -122s-61.167 -73.166 -97.5 -104.499s-72.833 -56.333 -109.5 -75z" />
    <glyph glyph-name="yeh" unicode="&#x64a;" horiz-adv-x="1159" 
d="M809 -205c-66 -33.333 -135.505 -55.1641 -208.505 -65.4971s-143.5 -8.83301 -211.5 4.5c-45.333 8.66699 -88.333 22.334 -129 41.001s-76.667 42.667 -108 72s-57.166 63.666 -77.499 102.999s-33 84 -38 134s-1.5 105.167 10.5 165.5s34.667 125.833 68 196.5
l302 140c-29.333 -50.667 -51.166 -102.334 -65.499 -155.001s-20.333 -102.167 -18 -148.5s13.333 -87.5 33 -123.5s49 -62.333 88 -79s88 -22 147 -16s128.833 28 209.5 66c-12 8.66699 -28.667 16.5 -50 23.5s-44.166 15.333 -68.499 25s-48.5 21.167 -72.5 34.5
s-44.333 30.666 -61 51.999s-28 47.166 -34 77.499s-3.66699 67.5 7 111.5c19.333 76.667 48.333 145.5 87 206.5s84.667 111.5 138 151.5c26.667 20 54.334 37 83.001 51s59 24.667 91 32c13.333 3.33301 29.333 5.16602 48 5.49902s37 -1 55 -4s34.5 -8 49.5 -15
s25.5 -16.167 31.5 -27.5l-67 -261c-16 2.66699 -33 6 -51 10s-35.667 6.33301 -53 7s-33.5 -2.16602 -48.5 -8.49902s-27.167 -18.5 -36.5 -36.5c-4 -8.66699 -4.33301 -17 -1 -25s8.83301 -15.667 16.5 -23s16.834 -14.5 27.501 -21.5s21.334 -13.167 32.001 -18.5l30 -15
c9.33301 -4.66699 16.333 -8.33398 21 -11.001c47.333 -30.667 81.166 -65.5 101.499 -104.5s30 -79.667 29 -122s-10.667 -85 -29 -128s-41.833 -83.667 -70.5 -122s-61.167 -73.166 -97.5 -104.499s-72.833 -56.333 -109.5 -75zM370.995 -376.998l140 -139l140 139
l188 -188l-188 -188l-140 140l-140 -140l-188 188z" />
    <glyph glyph-name="fathatan" unicode="&#x64b;" horiz-adv-x="408" 
d="M389 1675l-340 -193l17 91l340 193zM403 1842l-340 -193l17 91l340 193z" />
    <glyph glyph-name="dammatan" unicode="&#x64c;" horiz-adv-x="469" 
d="M409 1632c-4 -9.33301 -10.5 -20.499 -19.5 -33.499s-19.667 -26.333 -32 -40s-25.833 -26.834 -40.5 -39.501s-29.834 -23 -45.501 -31s-31.5 -13 -47.5 -15s-31.333 0.666992 -46 8s-22.667 17.833 -24 31.5s-0.333008 27.667 3 42s6.83301 28.333 10.5 42
s3 24.334 -2 32.001s-16.5 11.167 -34.5 10.5s-46.667 -7.33398 -86 -20.001c12.667 18 27.5 32.5 44.5 43.5s33.833 18.333 50.5 22s32.334 3.33398 47.001 -0.999023s26 -12.5 34 -24.5s11.5 -28 10.5 -48s-8.83301 -44 -23.5 -72c30.667 13.333 59.167 28 85.5 44
s50.166 36.667 71.499 62c-27.333 6.66699 -47.5 17.167 -60.5 31.5s-20.333 30.166 -22 47.499s1 35 8 53s17 34.5 30 49.5s27.667 27 44 36s32.833 13.167 49.5 12.5c14 -1.33301 23.333 -9.5 28 -24.5s6.83398 -32 6.50098 -51s-2.33301 -37.5 -6 -55.5
s-6.5 -30.333 -8.5 -37l38 -12l-17 -76zM388 1793c-6.66699 6.66699 -14.333 9.99805 -23 9.99805c-9.33301 0.666992 -16.833 -2.16602 -22.5 -8.49902s-8.5 -13.5 -8.5 -21.5c-1.33301 -7.33301 -0.333008 -13.666 3 -18.999s8 -10 14 -14s12.833 -7.83301 20.5 -11.5
l24.5 -11.5c1.33301 12.667 2 24.334 2 35.001c0 9.33301 -0.833008 18.166 -2.5 26.499s-4.16699 13.833 -7.5 16.5v-2z" />
    <glyph glyph-name="kasratan" unicode="&#x64d;" horiz-adv-x="408" 
d="M405 -148l-340 -193l17 91l340 193zM378 -316l-340 -193l17 91l340 193z" />
    <glyph glyph-name="fatha" unicode="&#x64e;" horiz-adv-x="408" 
d="M389 1675l-340 -193l17 91l340 193z" />
    <glyph glyph-name="damma" unicode="&#x64f;" horiz-adv-x="414" 
d="M366 1664c-7.33301 -15.333 -19.8301 -32.833 -37.4971 -52.5s-38.5 -38 -62.5 -55s-50.167 -31.167 -78.5 -42.5s-56.833 -16.333 -85.5 -15c-19.333 1.33301 -35.166 2.33301 -47.499 3s-21.833 1.33398 -28.5 2.00098s-10.834 1.16699 -12.501 1.5
s-1.83398 0.833008 -0.500977 1.5l105.5 43c29.667 12 56 24 79 36s43.833 25.167 62.5 39.5s37.334 32.5 56.001 54.5c-31.333 7.33301 -54.333 18.666 -69 33.999s-23.167 32.333 -25.5 51s0.666992 37.834 9 57.501s19.666 37.5 33.999 53.5s30.833 28.833 49.5 38.5
s37.334 14.167 56.001 13.5c10.667 -0.666992 19 -4.83398 25 -12.501s10.167 -17.334 12.5 -29.001s3.16602 -24.667 2.49902 -39s-1.83398 -28.166 -3.50098 -41.499s-3.83398 -25.5 -6.50098 -36.5s-5 -19.167 -7 -24.5l44 -13l-19 -80zM341.003 1841
c-3.33301 4 -7.33301 6.66699 -12 8s-8.66699 2 -12 2c-11.333 1.33301 -20.333 -1.5 -27 -8.5s-10.334 -15.167 -11.001 -24.5c-1.33301 -16.667 5.33398 -29 20.001 -37s31.667 -15.667 51 -23c1.33301 13.333 2 26 2 38c0 10 -0.666992 19.5 -2 28.5
s-4.33301 15.167 -9 18.5v-2z" />
    <glyph glyph-name="kasra" unicode="&#x650;" horiz-adv-x="408" 
d="M395 -148l-340 -193l17 91l340 193z" />
    <glyph glyph-name="shadda" unicode="&#x651;" horiz-adv-x="425" 
d="M398 1823c7.33301 -11.333 13.1699 -23.3242 17.5029 -35.9912s8.16602 -25.334 11.499 -38.001c4 -22 5 -44.333 3 -67s-7 -43.334 -15 -62.001s-19 -33.834 -33 -45.501s-31 -17.5 -51 -17.5c-16.667 0 -29.167 3 -37.5 9s-17.5 13.667 -27.5 23
c-4 -6.66699 -9 -14.334 -15 -23.001s-13.333 -17 -22 -25s-19 -15 -31 -21s-25.333 -9.66699 -40 -11c-23.333 -2 -42 1.33301 -56 10s-24.333 20.334 -31 35.001s-10.5 31.167 -11.5 49.5s-0.333008 36.166 2 53.499s5.83301 33.166 10.5 47.499
s9.33398 24.833 14.001 31.5c0 -2 1.66699 -1.66699 5 1l11.5 9c4.33301 3.33301 8.16602 6.16602 11.499 8.49902s5 2.5 5 0.5c-5.33301 -13.333 -9.83301 -28.833 -13.5 -46.5s-4.66699 -34.334 -3 -50.001s6.33398 -28.834 14.001 -39.501s20.167 -15.667 37.5 -15
c19.333 0 34.166 5.33301 44.499 16s18.166 23.167 23.499 37.5s9.5 29.166 12.5 44.499s7.16699 28 12.5 38c0.666992 -2 2.33398 -2 5.00098 0s5.66699 4.5 9 7.5s6.5 5.66699 9.5 8s4.83301 2.5 5.5 0.5c-5.33301 -19.333 -6.16602 -37.333 -2.49902 -54
s10.167 -30 19.5 -40s21.166 -16 35.499 -18s29.833 2.66699 46.5 14c4 6 5.83301 13.333 5.5 22s-1.83301 17.5 -4.5 26.5s-6.33398 18 -11.001 27s-9.33398 16.833 -14.001 23.5l24.5 34z" />
    </font>
</defs>
</svg>
